<svg xmlns="http://www.w3.org/2000/svg" width="1920" height="284" fill="none" viewBox="0 0 1920 284"><g clip-path="url(#a)"><path fill="#000" d="M-5.562 294.087v-77.445H.162c5.388 48.15 22.224 73.067 65.66 73.067 35.019 0 57.242-16.836 62.293-45.457 5.387-30.304-11.785-49.497-47.814-69.7-41.416-23.233-69.7-45.794-62.966-80.812 5.724-30.641 34.008-45.457 69.027-45.457 27.274 0 39.059 8.755 48.487 8.755 6.061 0 9.765-4.377 9.765-12.459l5.387-.337 4.378 69.028-5.724.336c-6.735-34.682-23.907-59.262-62.966-59.262-29.968 0-48.824 14.816-53.202 38.386-5.05 26.6 11.112 43.773 48.824 64.649 41.416 22.897 69.027 49.835 62.293 87.21-6.398 35.692-39.059 51.518-77.445 51.518-34.345 0-47.477-12.795-57.579-12.795-4.377 0-7.407 2.357-8.418 10.775zm207.668 2.02c-22.897 0-36.366-18.52-36.366-54.885 0-62.966 43.1-124.922 92.261-124.922 18.519 0 30.304 8.418 41.079 8.418 5.724 0 8.755-2.357 11.785-8.081h3.704l-26.937 146.808c-2.357 12.459-.337 19.193 6.734 19.193 6.735 0 16.499-7.408 28.284-21.886l2.357 3.03c-12.458 18.183-24.58 32.325-38.049 32.325-13.805 0-16.499-14.816-12.795-33.672l6.398-33.672h-2.357c-14.816 28.958-43.437 67.344-76.098 67.344m5.724-10.438c20.203 0 46.467-25.254 64.65-56.906 10.101-17.509 13.805-34.008 17.172-51.854l6.735-35.692c-9.765-12.122-23.907-19.866-38.723-19.866-40.069 0-75.088 52.528-75.088 116.167 0 31.651 8.418 48.151 25.254 48.151m150.533 4.377 25.928-142.768h-32.325v-4.377c18.183 0 42.426-11.449 47.14-25.591h4.378l-12.796 67.343h1.01c13.469-29.967 41.08-68.353 61.956-68.353 6.398 0 9.092 3.704 9.092 7.408 0 4.377-3.367 8.754-9.428 11.111-23.907 0-44.784 23.571-56.906 50.508-7.744 17.509-12.121 36.029-15.825 56.568l-8.755 48.151zm134.424 6.061c-22.897 0-36.365-18.52-36.365-54.885 0-62.966 43.099-124.922 92.26-124.922 18.52 0 30.305 8.418 41.08 8.418 5.724 0 8.754-2.357 11.785-8.081h3.704l-26.938 146.808c-2.357 12.459-.336 19.193 6.735 19.193 6.734 0 16.499-7.408 28.284-21.886l2.357 3.03c-12.459 18.183-24.581 32.325-38.049 32.325-13.806 0-16.499-14.816-12.795-33.672l6.397-33.672h-2.357c-14.815 28.958-43.436 67.344-76.098 67.344m5.724-10.438c20.203 0 46.467-25.254 64.65-56.906 10.101-17.509 13.805-34.008 17.173-51.854l6.734-35.692c-9.765-12.122-23.907-19.866-38.723-19.866-40.069 0-75.087 52.528-75.087 116.167 0 31.651 8.417 48.151 25.253 48.151m261.353 10.438c-9.091 0-14.142-6.398-14.142-17.509 0-4.041.674-8.755 1.347-12.796l17.846-101.352c3.704-20.539 1.684-33.671-11.785-33.671-23.57 0-57.242 40.069-77.782 85.526-10.101 22.223-15.489 43.1-18.519 61.619l-2.02 12.122h-13.806l45.12-245.803h-31.988v-4.378c17.173 0 41.08-11.111 46.467-25.254h4.377l-19.529 107.75c-5.724 31.988-11.112 63.303-17.173 94.954h1.347c15.826-38.049 53.201-100.678 91.25-100.678 22.56 0 22.224 22.56 18.52 43.099l-18.183 103.036c-2.357 12.795-1.01 19.866 6.061 19.866 6.734 0 16.499-7.408 28.284-21.886l2.357 3.03c-12.458 18.183-24.58 32.325-38.049 32.325m181.028 0c-31.988 0-53.202-22.897-53.202-54.885 0-45.457 41.753-80.812 92.598-101.689-10.439-14.142-15.826-26.263-15.826-39.395 0-30.305 27.611-51.855 60.608-51.855 33 0 51.18 15.826 51.18 27.948 0 6.734-5.05 11.785-11.78 11.785-16.17 0-15.16-33.672-44.11-33.672-30.308 0-42.766 21.55-42.766 42.09 0 21.55 14.479 39.396 43.096 68.353l19.2 19.866c12.79-32.661 30.97-61.619 49.16-61.619 5.72 0 8.75 3.367 8.75 7.745 0 6.061-5.39 10.101-10.77 12.795-18.19 8.755-32.33 26.601-42.43 46.804 30.64 34.008 40.74 53.538 40.74 70.037 0 19.866-14.48 35.692-34.01 35.692-18.85 0-28.95-15.152-28.95-37.039 0-10.102 2.02-23.234 5.72-38.049-19.19 38.722-46.802 75.088-87.208 75.088m-39.396-56.569c0 27.274 14.479 45.457 43.773 45.457 41.753 0 66.331-37.712 87.551-80.138.67-2.021 1.01-3.704 1.68-5.388l-22.22-23.57c-11.79-12.122-21.891-23.234-29.299-32.662-45.457 16.499-81.485 52.865-81.485 96.301m125.594 18.52c0 24.58 11.79 32.661 22.9 32.661 13.8 0 21.55-12.795 21.55-26.937 0-17.846-11.45-35.355-33-59.599-7.74 19.866-11.45 39.733-11.45 53.875m370.05 38.049c-14.48 0-22.89-9.765-22.89-27.948 0-22.896 13.8-50.507 34-81.148-11.11-40.07-28.95-83.843-42.42-113.81l-7.75 27.273c-9.76 34.009-22.89 74.415-39.73 107.076-25.93 50.171-59.26 88.557-97.98 88.557-30.31 0-46.13-22.897-46.13-46.13 0-24.581 17.51-40.743 32.66-48.488l1.34 3.368c-13.8 8.081-22.89 23.233-22.89 40.406 0 21.213 13.47 36.702 37.71 36.702 31.99 0 60.95-26.264 87.55-76.435 19.19-36.365 33.33-77.445 42.09-107.75l9.09-30.64h-24.25c-40.4 0-86.87 18.855-86.87 63.639 0 13.468 4.04 27.611 13.47 43.436l-3.37 2.694c-12.46-16.162-19.19-34.345-19.19-51.854 0-40.07 34.34-70.711 96.3-70.711h33.67c12.12 22.223 33 70.711 47.48 117.178 26.26-38.049 69.7-88.557 103.37-117.178h46.81v5.387c-22.9 0-30.98 3.704-38.39 43.437l-29.29 160.277c-2.36 12.796-.34 19.193 6.39 19.193 7.07 0 16.84-7.408 28.62-21.886l2.36 3.03c-12.79 18.183-24.24 32.325-37.37 32.325-9.43 0-15.49-7.745-15.49-19.866 0-4.378.67-10.439 2.02-17.846l35.69-197.653c-30.31 26.6-75.09 77.108-102.7 117.514 7.74 26.264 12.8 50.507 12.8 68.69 0 32.998-17.85 49.161-36.71 49.161m-16.5-28.284c0 14.142 6.4 22.223 16.17 22.223 13.8 0 21.88-17.846 21.88-41.753 0-14.816-3.36-33.672-8.42-53.201-16.49 24.243-29.63 50.844-29.63 72.731m223.25 28.284c-22.9 0-36.37-18.52-36.37-54.885 0-62.966 43.1-124.922 92.26-124.922 18.52 0 30.31 8.418 41.08 8.418 5.73 0 8.76-2.357 11.79-8.081h3.7l-26.94 146.808c-2.35 12.459-.33 19.193 6.74 19.193 6.73 0 16.5-7.408 28.28-21.886l2.36 3.03c-12.46 18.183-24.58 32.325-38.05 32.325-13.81 0-16.5-14.816-12.8-33.672l6.4-33.672h-2.35c-14.82 28.958-43.44 67.344-76.1 67.344m5.72-10.438c20.2 0 46.47-25.254 64.65-56.906 10.1-17.509 13.81-34.008 17.17-51.854l6.74-35.692c-9.77-12.122-23.91-19.866-38.72-19.866-40.07 0-75.09 52.528-75.09 116.167 0 31.651 8.42 48.151 25.25 48.151m163.33 10.438c-10.1 0-15.15-7.408-15.15-17.173 0-4.377.67-11.111 2.35-20.203l23.24-125.595h-24.92v-4.714c26.6 0 37.71-12.122 46.47-59.262h4.04l-10.1 55.221c13.47 2.02 25.25 0 38.72-6.061l.67 3.367c-10.1 7.408-20.54 11.449-39.73 11.449h-1.35l-24.24 130.646c-2.36 13.469 1.01 17.846 7.07 17.846 8.42 0 18.18-8.418 30.98-24.917l2.36 3.03c-12.46 19.867-25.59 36.366-40.41 36.366m86.15 0c-10.1 0-15.15-7.408-15.15-17.173 0-4.377.67-11.111 2.36-20.203l23.23-125.595h-24.92v-4.714c26.6 0 37.72-12.122 46.47-59.262h4.04l-10.1 55.221c13.47 2.02 25.25 0 38.72-6.061l.68 3.367c-10.11 7.408-20.54 11.449-39.74 11.449h-1.34l-24.25 130.646c-2.35 13.469 1.01 17.846 7.07 17.846 8.42 0 18.19-8.418 30.98-24.917l2.36 3.03c-12.46 19.867-25.59 36.366-40.41 36.366"/></g><defs><clipPath id="a"><path fill="#fff" d="M0 0h1920v284H0z"/></clipPath></defs></svg>