<svg xmlns="http://www.w3.org/2000/svg" width="652" height="993" fill="none" viewBox="0 0 652 993"><path stroke="#68374e" stroke-width="1.492" d="M9.847 13.427h275.512"/><path fill="#a76f00" d="m320.472 6.976.082.006a13 13 0 0 0-.352 1.48q-.14-.006-.28-.007a9.2 9.2 0 1 0 7.831 14.027q.695.3 1.428.519a10.69 10.69 0 0 1-9.259 5.346l-.551-.014c-5.467-.277-9.85-4.661-10.128-10.128l-.013-.55c0-5.905 4.787-10.692 10.692-10.692zm4.241 1.12a10.69 10.69 0 0 1 5.902 9.56l-.015.549a10 10 0 0 1-.064.708 8.5 8.5 0 0 1-1.444-.55q.029-.351.03-.708a9.2 9.2 0 0 0-4.741-8.048q.1-.78.332-1.51"/><circle cx="332.852" cy="10.692" r="9.946" stroke="#a76f00" stroke-width="1.492"/><path stroke="#68374e" stroke-width="1.492" d="M367.416 13.428h275.511"/><path fill="#68374e" d="M7.32 212.999v-36.603h2.706c2.546 22.757 10.503 34.534 31.032 34.534 16.551 0 27.054-7.957 29.441-21.484 2.547-14.323-5.57-23.394-22.598-32.942-19.574-10.981-32.942-21.643-29.759-38.194 2.706-14.482 16.073-21.484 32.624-21.484 12.89 0 18.46 4.138 22.916 4.138 2.865 0 4.615-2.069 4.615-5.888l2.547-.16 2.068 32.624-2.705.159c-3.183-16.391-11.3-28.008-29.76-28.008-14.163 0-23.075 7.002-25.144 18.142-2.387 12.572 5.252 20.688 23.076 30.555 19.574 10.821 32.624 23.552 29.44 41.217-3.023 16.869-18.46 24.349-36.601 24.349-16.233 0-22.44-6.048-27.214-6.048-2.068 0-3.5 1.114-3.978 5.093zm98.149.955c-10.821 0-17.187-8.753-17.187-25.94 0-29.76 20.37-59.041 43.605-59.041 8.752 0 14.322 3.978 19.415 3.978 2.705 0 4.137-1.114 5.57-3.819h1.75l-12.731 69.385c-1.114 5.888-.159 9.071 3.183 9.071 3.183 0 7.798-3.501 13.368-10.344l1.113 1.432c-5.888 8.594-11.617 15.278-17.982 15.278-6.525 0-7.798-7.003-6.048-15.914l3.024-15.915h-1.114c-7.002 13.687-20.529 31.829-35.966 31.829m2.706-4.934c9.548 0 21.961-11.935 30.555-26.895 4.774-8.275 6.524-16.073 8.116-24.507l3.183-16.869c-4.616-5.729-11.299-9.389-18.302-9.389-18.937 0-35.488 24.826-35.488 54.903 0 14.959 3.979 22.757 11.936 22.757m71.145 2.069 12.254-67.476h-15.277v-2.068c8.593 0 20.051-5.411 22.279-12.095h2.069l-6.047 31.828h.477c6.366-14.163 19.415-32.305 29.282-32.305 3.024 0 4.297 1.75 4.297 3.501 0 2.068-1.592 4.137-4.456 5.251-11.299 0-21.166 11.14-26.895 23.871-3.66 8.276-5.729 17.028-7.479 26.736l-4.138 22.757zm63.532 2.865c-10.821 0-17.187-8.753-17.187-25.94 0-29.76 20.37-59.041 43.605-59.041 8.752 0 14.322 3.978 19.415 3.978 2.705 0 4.137-1.114 5.57-3.819h1.75l-12.731 69.385c-1.114 5.888-.159 9.071 3.183 9.071 3.182 0 7.798-3.501 13.367-10.344l1.114 1.432c-5.888 8.594-11.617 15.278-17.982 15.278-6.525 0-7.798-7.003-6.048-15.914l3.024-15.915h-1.114c-7.002 13.687-20.529 31.829-35.966 31.829m2.706-4.934c9.548 0 21.961-11.935 30.555-26.895 4.774-8.275 6.524-16.073 8.116-24.507l3.183-16.869c-4.616-5.729-11.299-9.389-18.302-9.389-18.937 0-35.488 24.826-35.488 54.903 0 14.959 3.979 22.757 11.936 22.757m123.521 4.934c-4.297 0-6.684-3.024-6.684-8.276 0-1.909.319-4.137.637-6.047l8.434-47.901c1.751-9.708.796-15.914-5.57-15.914-11.139 0-27.054 18.937-36.761 40.421-4.774 10.504-7.321 20.37-8.753 29.123l-.955 5.729h-6.524l21.324-116.172h-15.118v-2.07c8.116 0 19.415-5.251 21.961-11.935h2.069l-9.23 50.925c-2.705 15.118-5.252 29.918-8.116 44.878h.637c7.479-17.983 25.144-47.583 43.127-47.583 10.662 0 10.503 10.662 8.752 20.37l-8.593 48.697c-1.114 6.047-.478 9.389 2.864 9.389 3.183 0 7.798-3.501 13.368-10.344l1.114 1.432c-5.888 8.594-11.617 15.278-17.983 15.278M0 367.543c11.458 0 14.482-1.432 18.142-20.848l12.572-67.953c2.706-14.641.955-17.505-11.14-17.505v-2.546h35.489c23.234 0 38.193 14.481 34.374 35.17-3.66 19.415-21.166 29.282-45.514 29.282-4.934 0-9.39-.478-14.323-1.274l-4.615 25.145c-2.705 14.959-3.82 20.529 13.527 20.529v2.546H0zm30.078-48.379c4.456.796 9.389 1.273 13.686 1.273 15.755 0 34.056-6.206 37.716-27.213 3.66-20.847-11.617-31.669-28.804-31.669-7.003 0-12.095 1.114-14.005 11.14zm77.012 53.79c-16.71 0-27.53-11.299-27.53-30.555 0-28.009 21.006-54.426 44.877-54.426 8.752 0 16.073 3.66 16.073 13.208 0 17.028-24.349 28.168-52.039 28.009-.796 3.819-1.114 7.48-1.114 11.14 0 16.869 8.275 28.008 22.757 28.008 11.14 0 20.529-6.683 28.645-18.301l.955 1.751c-7.32 11.776-17.664 21.166-32.624 21.166m-17.982-46.31c27.213-.159 42.808-10.504 42.808-25.145 0-5.888-2.546-10.662-9.866-10.662-13.686 0-28.01 16.232-32.942 35.807m71.052 46.31c-4.774 0-7.161-3.502-7.161-8.117 0-2.068.318-5.251 1.114-9.548l10.98-59.359h-11.776v-2.228c12.572 0 17.824-5.729 21.961-28.009h1.91l-4.774 26.099c6.366.955 11.935 0 18.301-2.865l.318 1.592c-4.774 3.501-9.707 5.411-18.778 5.411h-.637l-11.458 61.746c-1.114 6.366.477 8.435 3.342 8.435 3.979 0 8.594-3.979 14.641-11.777l1.114 1.432c-5.888 9.39-12.095 17.188-19.097 17.188m33.116-2.865 12.254-67.476h-15.277v-2.068c8.593 0 20.051-5.411 22.279-12.095h2.069l-6.047 31.828h.477c6.366-14.163 19.415-32.305 29.282-32.305 3.024 0 4.297 1.75 4.297 3.501 0 2.068-1.592 4.137-4.456 5.251-11.299 0-21.166 11.14-26.895 23.871-3.66 8.276-5.729 17.028-7.48 26.736l-4.137 22.757zm73.698 2.865c-16.55 0-25.78-12.095-25.78-31.192 0-25.144 15.914-53.789 40.899-53.789 16.55 0 25.781 12.094 25.781 31.191 0 25.144-15.915 53.79-40.9 53.79m2.547-3.502c17.346 0 30.873-20.37 30.873-46.469 0-14.959-4.456-31.509-20.848-31.509-17.346 0-30.873 20.37-30.873 46.469 0 14.959 4.456 31.509 20.848 31.509m100.522 3.502c-4.774 0-7.48-5.252-10.822-11.936l-13.368-26.258c-2.705-5.252-4.137-5.252-14.163-2.228l-6.843 37.557h-6.366l20.688-116.173h-15.118v-2.068c8.275 0 19.574-5.252 22.121-11.936h1.909l-13.049 74h.796c7.957-16.391 20.051-25.78 31.509-25.78 7.798 0 12.413 4.456 12.413 10.344 0 10.503-14.641 22.757-31.032 28.963l16.232 31.351c3.024 5.888 4.297 8.275 7.002 8.275 2.228 0 4.456-1.432 10.026-10.821l1.273 1.273c-4.615 9.867-8.275 15.437-13.208 15.437m-37.876-43.287c22.917-5.57 39.785-19.097 39.785-30.077 0-4.934-3.342-7.162-8.275-7.162-9.707 0-18.46 9.071-25.303 21.484-3.342 5.889-5.411 11.14-6.048 14.8zm84.002 43.287c-16.551 0-25.781-12.095-25.781-31.192 0-25.144 15.914-53.789 40.899-53.789 16.551 0 25.781 12.094 25.781 31.191 0 25.144-15.914 53.79-40.899 53.79m2.546-3.502c17.346 0 30.873-20.37 30.873-46.469 0-14.959-4.456-31.509-20.847-31.509-17.347 0-30.874 20.37-30.874 46.469 0 14.959 4.456 31.509 20.848 31.509m108.142 3.502c-4.297 0-6.684-3.024-6.684-8.276 0-1.909.318-4.137.637-6.047l8.434-47.901c1.751-9.708.796-15.914-5.57-15.914-11.14 0-27.054 18.937-36.761 40.421-4.774 10.504-7.321 20.37-8.753 29.123l-.955 5.729h-6.525l12.413-67.476h-15.277v-2.068c8.593 0 20.052-5.411 22.28-12.095h2.068l-8.593 47.265h.636c7.48-17.983 25.145-47.583 43.127-47.583 10.663 0 10.504 10.662 8.753 20.37l-8.593 48.697c-1.114 6.047-.478 9.389 2.864 9.389 3.183 0 7.798-3.501 13.368-10.344l1.114 1.432c-5.888 8.594-11.617 15.278-17.983 15.278m40.213 0c-4.615 0-6.843-3.502-6.843-8.117 0-2.068.318-5.251 1.114-9.548l9.389-52.676h-14.959v-2.068c8.275 0 19.892-5.411 22.12-12.095h1.91l-12.572 69.067c-1.114 6.047-.159 9.071 3.024 9.071 3.342 0 7.957-3.501 13.527-10.344l1.114 1.432c-6.048 8.594-11.459 15.278-17.824 15.278m14.482-103.76c-3.661 0-6.366-2.546-6.366-6.207 0-3.978 3.024-6.843 6.843-6.843 3.66 0 6.366 2.547 6.366 6.207 0 3.978-3.024 6.843-6.843 6.843m32.423 103.76c-15.277 0-23.553-7.639-23.553-13.05 0-2.387 1.592-4.297 4.138-4.297 7.002 0 7.639 14.323 22.439 14.323 10.026 0 17.028-6.843 17.028-16.232 0-9.39-7.161-16.233-15.914-22.917l-4.774-3.66c-6.525-4.933-12.572-10.503-12.572-18.938 0-10.025 8.752-20.051 24.189-20.051 10.662 0 20.052 5.092 20.052 10.503 0 2.228-1.592 3.66-4.138 3.66-6.684 0-9.071-10.662-20.688-10.662-7.48 0-14.005 4.774-14.005 13.049 0 7.639 5.57 12.254 12.254 17.506l5.093 3.978c8.752 6.843 17.028 14.482 17.028 25.463 0 11.458-9.071 21.325-26.577 21.325M3.63 456.831v-12.6h8.207v1.962H6.06v3.366h4.626v1.908H6.06v5.364zm12.161 0v-12.6h4.698q1.53 0 2.52.522t1.476 1.404a3.86 3.86 0 0 1 .486 1.926q0 1.008-.468 1.89-.468.864-1.476 1.404-.99.522-2.556.522h-2.25v4.932zm6.534 0-2.592-5.544h2.628l2.736 5.544zm-4.104-6.696h2.124q1.098 0 1.62-.54t.522-1.422-.522-1.386q-.504-.522-1.62-.522h-2.124zm11.086 6.696v-12.6h2.43v12.6zm7.064 0v-12.6h4.212q2.196 0 3.618.792 1.44.774 2.124 2.196.702 1.404.702 3.312t-.702 3.33q-.684 1.404-2.106 2.196-1.422.774-3.636.774zm2.43-2.088h1.656q1.548 0 2.43-.504a2.82 2.82 0 0 0 1.278-1.44q.378-.954.378-2.268 0-1.332-.378-2.268a2.8 2.8 0 0 0-1.278-1.458q-.882-.504-2.43-.504H38.8zm10.82 2.088 4.607-12.6h2.755l4.59 12.6h-2.575l-3.401-9.828-3.42 9.828zm2.033-2.862.648-1.89h6.409l.63 1.89zm15.498 2.862v-4.428l-4.248-8.172h2.754l2.97 6.228h-.486l2.952-6.228h2.736l-4.248 8.172v4.428zm8.04 2.214 1.026-4.572h2.34l-1.782 4.572zm12.986-2.214 4.608-12.6h2.754l4.59 12.6h-2.574l-3.402-9.828-3.42 9.828zm2.034-2.862.648-1.89h6.408l.63 1.89zm18.067 3.078q-1.386 0-2.52-.558a4.24 4.24 0 0 1-1.8-1.674q-.666-1.116-.666-2.844v-7.74h2.43v7.758q0 .936.306 1.584.306.63.882.936.594.306 1.404.306.828 0 1.404-.306.594-.306.9-.936.306-.648.306-1.584v-7.758h2.43v7.74q0 1.728-.684 2.844a4.3 4.3 0 0 1-1.854 1.674q-1.152.558-2.538.558m15.131 0q-1.8 0-3.132-.792a5.5 5.5 0 0 1-2.07-2.25q-.738-1.458-.738-3.384 0-1.944.756-3.42a5.6 5.6 0 0 1 2.178-2.34q1.422-.846 3.402-.846 2.214 0 3.672 1.062 1.476 1.062 1.908 2.952h-2.718a2.36 2.36 0 0 0-1.008-1.296q-.72-.486-1.872-.486-1.224 0-2.088.54a3.44 3.44 0 0 0-1.314 1.512q-.45.972-.45 2.322 0 1.368.45 2.322t1.278 1.458q.846.486 1.98.486 1.656 0 2.502-.882.864-.9 1.026-2.322h-3.096v-1.818h5.544v6.966h-2.25l-.18-1.602a4.2 4.2 0 0 1-.936 1.008 3.6 3.6 0 0 1-1.224.594q-.702.216-1.62.216m15.521 0q-1.386 0-2.52-.558a4.24 4.24 0 0 1-1.8-1.674q-.666-1.116-.666-2.844v-7.74h2.43v7.758q0 .936.306 1.584.306.63.882.936.594.306 1.404.306.828 0 1.404-.306.594-.306.9-.936.306-.648.306-1.584v-7.758h2.43v7.74q0 1.728-.684 2.844a4.3 4.3 0 0 1-1.854 1.674q-1.152.558-2.538.558m13.943 0q-1.368 0-2.448-.468a3.97 3.97 0 0 1-1.692-1.368q-.612-.9-.63-2.178h2.574q.018.558.288 1.008t.738.72q.486.252 1.152.252.576 0 .99-.18.432-.198.666-.54a1.4 1.4 0 0 0 .234-.81q0-.54-.27-.9a2 2 0 0 0-.72-.612 6 6 0 0 0-1.062-.45 123 123 0 0 0-1.26-.45q-1.494-.486-2.286-1.296-.774-.81-.774-2.142 0-1.134.54-1.944.558-.81 1.53-1.242t2.214-.432q1.278 0 2.232.45a3.5 3.5 0 0 1 1.53 1.26q.576.828.594 1.944h-2.592a1.5 1.5 0 0 0-.252-.774 1.54 1.54 0 0 0-.612-.594 1.8 1.8 0 0 0-.936-.234q-.468-.018-.864.144-.378.162-.612.486-.216.306-.216.774 0 .45.216.756.234.306.63.54.396.216.936.414.54.18 1.17.378.936.324 1.728.774.792.432 1.26 1.134t.468 1.854q0 .99-.522 1.836t-1.512 1.368q-.972.522-2.43.522m11.496-.216v-10.638h-3.69v-1.962h9.774v1.962h-3.672v10.638zm16.02 0v-1.782a91 91 0 0 0 2.232-1.836 25 25 0 0 0 1.962-1.818q.864-.918 1.368-1.782t.504-1.674q0-.504-.18-.918a1.46 1.46 0 0 0-.576-.684q-.378-.27-1.008-.27t-1.062.288-.648.774a2.5 2.5 0 0 0-.216 1.062h-2.358q.054-1.386.63-2.322t1.548-1.386q.972-.468 2.178-.468 1.332 0 2.25.504.918.486 1.386 1.332.486.846.486 1.944a4.5 4.5 0 0 1-.306 1.62 6.5 6.5 0 0 1-.828 1.548q-.522.738-1.188 1.422a24 24 0 0 1-1.386 1.314q-.72.612-1.404 1.152h5.418v1.98zm17.214.216q-1.278 0-2.34-.468-1.044-.468-1.656-1.314t-.612-1.962q0-.774.252-1.404.27-.63.738-1.116t1.116-.738a3.3 3.3 0 0 1-1.314-1.08 2.7 2.7 0 0 1-.486-1.584q0-.882.486-1.656t1.44-1.242 2.376-.468 2.376.468 1.44 1.242a3.06 3.06 0 0 1 .486 1.656q0 .864-.504 1.584a3.2 3.2 0 0 1-1.296 1.08q.648.27 1.116.756.486.468.738 1.098.27.63.27 1.404 0 1.116-.63 1.962-.612.846-1.656 1.314t-2.34.468m0-2.034q1.116 0 1.674-.54t.558-1.368q0-.918-.594-1.44-.576-.54-1.638-.54-1.044 0-1.656.54-.594.522-.594 1.44 0 .828.576 1.368t1.674.54m0-5.67q.918 0 1.404-.468.504-.468.504-1.206 0-.792-.504-1.224-.486-.45-1.404-.45-.9 0-1.404.45-.504.432-.504 1.242 0 .72.504 1.188t1.404.468m11.775 7.488v-10.638h-3.69v-1.962h9.774v1.962h-3.672v10.638zm17.904 0v-12.6h2.43v12.6zm-7.938 0v-12.6h2.43v12.6zm2.088-5.454v-1.962h6.264v1.962z"/><path stroke="#68374e" stroke-width="1.492" d="M255.258 450.085h319.258"/><path fill="#68374e" d="M600.088 456.831v-1.782a91 91 0 0 0 2.232-1.836 25 25 0 0 0 1.962-1.818q.864-.918 1.368-1.782t.504-1.674q0-.504-.18-.918a1.46 1.46 0 0 0-.576-.684q-.378-.27-1.008-.27t-1.062.288-.648.774a2.5 2.5 0 0 0-.216 1.062h-2.358q.054-1.386.63-2.322t1.548-1.386q.972-.468 2.178-.468 1.332 0 2.25.504.918.486 1.386 1.332.486.846.486 1.944a4.5 4.5 0 0 1-.306 1.62 6.5 6.5 0 0 1-.828 1.548q-.522.738-1.188 1.422a24 24 0 0 1-1.386 1.314q-.72.612-1.404 1.152h5.418v1.98zm17.915.216q-1.71 0-2.952-.828t-1.908-2.286q-.648-1.476-.648-3.402t.648-3.384q.666-1.476 1.89-2.304 1.242-.828 2.97-.828t2.952.828q1.242.828 1.89 2.304.666 1.458.666 3.384t-.666 3.402q-.648 1.458-1.89 2.286-1.224.828-2.952.828m0-2.178q.9 0 1.584-.522.684-.54 1.062-1.512.396-.972.396-2.304 0-1.35-.396-2.304-.378-.972-1.062-1.494a2.54 2.54 0 0 0-1.584-.522q-.9 0-1.584.522t-1.08 1.494q-.378.954-.378 2.304 0 1.332.378 2.304.396.972 1.08 1.512.684.522 1.584.522m9.327 1.962v-1.782a91 91 0 0 0 2.232-1.836 25 25 0 0 0 1.962-1.818q.864-.918 1.368-1.782t.504-1.674q0-.504-.18-.918a1.46 1.46 0 0 0-.576-.684q-.378-.27-1.008-.27t-1.062.288-.648.774a2.5 2.5 0 0 0-.216 1.062h-2.358q.054-1.386.63-2.322t1.548-1.386q.972-.468 2.178-.468 1.332 0 2.25.504.918.486 1.386 1.332.486.846.486 1.944a4.5 4.5 0 0 1-.306 1.62 6.5 6.5 0 0 1-.828 1.548q-.522.738-1.188 1.422a24 24 0 0 1-1.386 1.314q-.72.612-1.404 1.152h5.418v1.98zm17.625.216q-1.422 0-2.412-.522a4.3 4.3 0 0 1-1.566-1.404 6.4 6.4 0 0 1-.846-1.962 10 10 0 0 1-.252-2.214q0-2.124.594-3.672t1.71-2.394q1.116-.864 2.7-.864 1.332 0 2.25.522.918.504 1.422 1.332t.594 1.782h-2.268q-.144-.792-.666-1.206-.522-.432-1.35-.432-.774 0-1.35.468t-.9 1.404q-.306.936-.36 2.358v.108q.288-.486.756-.864a3.6 3.6 0 0 1 1.08-.594q.612-.216 1.296-.216 1.044 0 1.944.504t1.458 1.422.558 2.178q0 1.134-.558 2.124-.54.972-1.53 1.566-.99.576-2.304.576m-.144-2.088q.648 0 1.134-.27.504-.27.792-.738.288-.486.288-1.098 0-.648-.288-1.116a2.04 2.04 0 0 0-.792-.738q-.504-.27-1.152-.27-.63 0-1.134.27t-.81.756a2 2 0 0 0-.288 1.08q0 .63.288 1.116.306.468.81.738.522.27 1.152.27"/><path fill="#a76f00" d="M94.34 733.022c-17.498 0-29.043-12.267-29.043-29.765 0-23.812 21.286-42.212 47.804-53.036-6.674-8.117-9.921-14.792-9.921-22.007 0-16.416 16.054-27.961 36.078-27.961 15.514 0 30.667 7.937 30.667 15.153 0 3.788-2.526 5.772-5.412 5.772-9.741 0-6.675-18.58-28.682-18.58-15.695 0-23.271 11.906-23.271 22.729 0 11.545 8.659 21.106 25.616 36.981l10.643 10.282c7.396-16.776 18.039-31.749 28.321-32.651 4.33-.361 6.495 1.984 6.495 4.871 0 3.066-2.346 5.411-6.675 5.953-11.545 1.443-20.384 11.184-26.518 23.27 19.483 19.483 25.436 30.306 25.436 39.506 0 11.185-9.02 19.483-20.385 19.483-11.004 0-17.137-7.938-17.137-20.024 0-5.592 1.263-12.808 3.428-20.745-10.102 20.745-25.255 40.769-47.444 40.769m-19.663-31.389c0 14.612 7.938 24.353 23.271 24.353 22.369 0 35.177-20.564 46.902-43.655l-13.529-13.168c-6.855-6.494-12.087-11.726-16.416-16.777-22.91 9.2-40.228 27.6-40.228 49.247m66.205 10.643c0 13.35 7.035 18.22 13.89 18.22 7.576 0 11.906-7.035 11.906-14.251 0-9.561-7.036-18.941-20.385-32.471-3.608 10.102-5.411 20.385-5.411 28.502"/><circle cx="128.88" cy="671.049" r="120.599" stroke="#68374e" stroke-width="1.492"/><path fill="#68374e" d="M402.084 645.438c-6.843 0-10.821-4.615-10.821-13.209 0-10.821 6.524-24.03 16.073-38.353-5.252-18.937-13.845-39.944-20.052-53.789l-3.66 12.89c-4.615 16.073-10.822 35.17-18.779 50.607-12.253 23.712-28.008 41.854-46.31 41.854-14.322 0-21.802-10.822-21.802-21.802 0-11.618 8.276-19.256 15.437-22.917l.636 1.592c-6.524 3.819-10.821 10.98-10.821 19.097 0 10.025 6.365 17.346 17.824 17.346 15.118 0 28.804-12.413 41.376-36.125 9.071-17.187 15.755-36.602 19.893-50.925l4.296-14.482h-11.458c-19.097 0-41.058 8.912-41.058 30.078 0 6.365 1.91 13.049 6.366 20.529l-1.592 1.273c-5.888-7.639-9.071-16.232-9.071-24.508 0-18.937 16.233-33.419 45.514-33.419h15.915c5.729 10.503 15.754 33.579 22.438 55.381 12.413-17.983 32.942-41.854 48.856-55.381h22.121v2.546c-10.822 0-14.641 1.751-18.142 20.529l-13.845 75.751c-1.114 6.048-.159 9.071 3.023 9.071 3.342 0 7.957-3.501 13.527-10.344l1.114 1.432c-6.047 8.594-11.458 15.278-17.664 15.278-4.456 0-7.321-3.66-7.321-9.389 0-2.069.319-4.934.955-8.435l16.869-93.415c-14.323 12.572-35.488 36.443-48.538 55.54 3.66 12.413 6.048 23.871 6.048 32.464 0 15.596-8.435 23.235-17.347 23.235m-7.798-13.368c0 6.684 3.024 10.503 7.639 10.503 6.525 0 10.344-8.434 10.344-19.733 0-7.002-1.591-15.914-3.978-25.144-7.798 11.458-14.005 24.03-14.005 34.374m105.51 13.368c-10.821 0-17.187-8.753-17.187-25.94 0-29.759 20.37-59.041 43.605-59.041 8.753 0 14.322 3.978 19.415 3.978 2.705 0 4.138-1.114 5.57-3.819h1.75l-12.731 69.385c-1.114 5.888-.159 9.071 3.183 9.071 3.183 0 7.798-3.501 13.368-10.344l1.114 1.432c-5.888 8.594-11.618 15.278-17.983 15.278-6.525 0-7.798-7.002-6.047-15.914l3.023-15.914h-1.114c-7.002 13.686-20.529 31.828-35.966 31.828m2.706-4.934c9.548 0 21.961-11.935 30.555-26.894 4.774-8.276 6.525-16.073 8.116-24.508l3.183-16.869c-4.615-5.729-11.299-9.389-18.301-9.389-18.938 0-35.489 24.826-35.489 54.903 0 14.96 3.979 22.757 11.936 22.757m77.193 4.934c-4.774 0-7.161-3.501-7.161-8.116 0-2.069.318-5.252 1.114-9.549l10.98-59.359h-11.776v-2.228c12.572 0 17.824-5.729 21.961-28.009h1.91l-4.774 26.099c6.365.955 11.935 0 18.301-2.864l.318 1.591c-4.774 3.501-9.707 5.411-18.778 5.411h-.637l-11.458 61.746c-1.114 6.366.477 8.435 3.342 8.435 3.978 0 8.593-3.979 14.641-11.777l1.114 1.433c-5.888 9.389-12.095 17.187-19.097 17.187m40.718 0c-4.775 0-7.162-3.501-7.162-8.116 0-2.069.318-5.252 1.114-9.549l10.981-59.359h-11.777v-2.228c12.573 0 17.824-5.729 21.962-28.009h1.91l-4.775 26.099c6.366.955 11.936 0 18.301-2.864l.319 1.591c-4.774 3.501-9.708 5.411-18.779 5.411h-.636l-11.458 61.746c-1.114 6.366.477 8.435 3.341 8.435 3.979 0 8.594-3.979 14.641-11.777l1.114 1.433c-5.888 9.389-12.094 17.187-19.096 17.187M296.574 799.027c11.458 0 14.482-1.432 18.142-20.847l12.572-67.953c2.706-14.641.955-17.506-11.14-17.506v-2.546h35.489c23.234 0 38.193 14.482 34.374 35.17-3.66 19.415-21.166 29.282-45.514 29.282-4.934 0-9.389-.478-14.323-1.273l-4.615 25.144c-2.705 14.959-3.819 20.529 13.527 20.529v2.546h-38.512zm30.078-48.379c4.456.796 9.389 1.273 13.686 1.273 15.755 0 34.056-6.206 37.716-27.213 3.66-20.847-11.617-31.669-28.804-31.669-7.003 0-12.095 1.114-14.005 11.14zm68.559 53.79c-4.456 0-6.843-3.501-6.843-8.116 0-2.069.319-5.252 1.114-9.549l18.461-101.372h-15.119v-2.069c8.276 0 19.575-5.252 22.121-11.936h1.909L395.37 789.001c-1.114 6.048-.159 9.071 3.024 9.071 3.342 0 7.957-3.501 13.527-10.344l1.114 1.432c-6.047 8.594-11.458 15.278-17.824 15.278m43.198 0c-10.821 0-17.187-8.753-17.187-25.94 0-29.759 20.37-59.041 43.605-59.041 8.752 0 14.322 3.978 19.415 3.978 2.705 0 4.137-1.114 5.57-3.819h1.75l-12.731 69.385c-1.114 5.888-.159 9.071 3.183 9.071 3.183 0 7.798-3.501 13.368-10.344l1.114 1.432c-5.889 8.594-11.618 15.278-17.983 15.278-6.525 0-7.798-7.002-6.048-15.914l3.024-15.914h-1.114c-7.002 13.686-20.529 31.828-35.966 31.828m2.706-4.934c9.548 0 21.961-11.935 30.555-26.894 4.774-8.276 6.524-16.073 8.116-24.508l3.183-16.869c-4.615-5.729-11.299-9.389-18.302-9.389-18.937 0-35.488 24.826-35.488 54.903 0 14.96 3.979 22.757 11.936 22.757m35.614 44.719c-14.005 0-30.555-5.093-30.555-14.004 0-3.342 2.387-5.729 5.729-5.729 8.752 0 5.729 15.914 28.168 15.914 17.028 0 49.015-7.48 49.015-57.609 0-20.848-4.297-56.654-16.551-56.654-3.819 0-8.275 3.66-10.821 12.094l-1.592-.636c2.069-10.663 6.366-18.142 13.527-18.142 16.869 0 22.439 38.034 22.439 61.905 0 9.39-.955 18.779-3.501 27.85l.636.159c12.891-16.55 26.895-43.763 26.895-62.86 0-16.073-10.026-15.278-10.026-22.121 0-3.183 2.387-4.933 5.093-4.933 4.456 0 10.026 4.774 10.026 18.46 0 19.415-10.981 47.265-27.532 69.385-16.709 22.598-36.602 36.921-60.95 36.921m114.949-39.785c-15.278 0-23.553-7.639-23.553-13.05 0-2.387 1.591-4.296 4.138-4.296 7.002 0 7.638 14.322 22.438 14.322 10.026 0 17.028-6.843 17.028-16.232s-7.161-16.232-15.914-22.916l-4.774-3.661c-6.525-4.933-12.572-10.503-12.572-18.937 0-10.026 8.753-20.052 24.189-20.052 10.663 0 20.052 5.092 20.052 10.503 0 2.228-1.591 3.66-4.138 3.66-6.683 0-9.071-10.662-20.688-10.662-7.479 0-14.004 4.774-14.004 13.05 0 7.638 5.57 12.253 12.254 17.505l5.092 3.979c8.753 6.843 17.028 14.481 17.028 25.462 0 11.458-9.071 21.325-26.576 21.325M13.102 888.531q-1.368 0-2.376-.486-.99-.486-1.548-1.332a4.05 4.05 0 0 1-.648-1.926h2.376q.126.702.72 1.188t1.494.486q.648 0 1.134-.324a2.2 2.2 0 0 0 .756-.864q.27-.558.27-1.26 0-.72-.288-1.242a2.02 2.02 0 0 0-1.836-1.098q-.774 0-1.332.378-.54.36-.774.882H8.692l1.044-7.218h7.074v2.124h-5.274l-.522 2.808q.396-.414 1.062-.666.666-.27 1.494-.27 1.026 0 1.782.36.756.342 1.26.954.504.594.756 1.368.252.756.252 1.602 0 .99-.342 1.818a4.15 4.15 0 0 1-.936 1.44q-.594.612-1.422.954-.81.324-1.818.324m21.068 0q-1.836 0-3.24-.828a5.83 5.83 0 0 1-2.196-2.286q-.792-1.476-.792-3.402t.792-3.384a5.8 5.8 0 0 1 2.196-2.304q1.404-.828 3.24-.828 1.854 0 3.258.828a5.7 5.7 0 0 1 2.178 2.304q.792 1.458.792 3.384t-.792 3.402a5.7 5.7 0 0 1-2.178 2.286q-1.404.828-3.258.828m0-2.178q1.152 0 1.98-.522.846-.54 1.314-1.512t.468-2.304q0-1.35-.468-2.304-.468-.972-1.314-1.494-.828-.522-1.98-.522-1.134 0-1.98.522t-1.314 1.494q-.468.954-.468 2.304 0 1.332.468 2.304t1.314 1.512q.846.522 1.98.522m13.27-10.638-1.855 4.608H43.93l.972-4.608zm9.591 12.816q-1.89 0-3.258-.81a5.6 5.6 0 0 1-2.088-2.286q-.72-1.476-.72-3.402t.72-3.402q.738-1.476 2.088-2.304 1.368-.828 3.258-.828 2.286 0 3.744 1.134t1.818 3.204h-2.646q-.234-1.008-.99-1.566-.738-.576-1.944-.576-1.116 0-1.926.54-.792.522-1.224 1.494-.432.954-.432 2.304 0 1.332.432 2.304t1.224 1.494q.81.522 1.926.522 1.206 0 1.944-.522.738-.54.972-1.494h2.664q-.36 1.962-1.818 3.078t-3.744 1.116m9.797-.216v-12.6h2.43v10.71h5.526v1.89zm16.886.216q-1.836 0-3.24-.828a5.83 5.83 0 0 1-2.196-2.286q-.792-1.476-.792-3.402t.792-3.384a5.8 5.8 0 0 1 2.196-2.304q1.404-.828 3.24-.828 1.854 0 3.258.828a5.7 5.7 0 0 1 2.178 2.304q.792 1.458.792 3.384t-.792 3.402a5.7 5.7 0 0 1-2.178 2.286q-1.404.828-3.258.828m0-2.178q1.152 0 1.98-.522.846-.54 1.314-1.512t.468-2.304q0-1.35-.468-2.304-.468-.972-1.314-1.494-.828-.522-1.98-.522-1.134 0-1.98.522t-1.314 1.494q-.468.954-.468 2.304 0 1.332.468 2.304t1.314 1.512q.846.522 1.98.522m16.114 2.178q-1.89 0-3.258-.81a5.6 5.6 0 0 1-2.088-2.286q-.72-1.476-.72-3.402t.72-3.402q.738-1.476 2.088-2.304 1.368-.828 3.258-.828 2.285 0 3.743 1.134t1.818 3.204h-2.646q-.234-1.008-.99-1.566-.738-.576-1.944-.576-1.115 0-1.925.54-.792.522-1.225 1.494-.431.954-.431 2.304 0 1.332.431 2.304.433.972 1.224 1.494.81.522 1.927.522 1.205 0 1.943-.522.738-.54.972-1.494h2.664q-.36 1.962-1.818 3.078t-3.743 1.116m9.797-.216v-12.6h2.43v4.986l4.554-4.986h2.988l-4.626 4.986 4.77 7.614h-2.97l-3.546-5.724-1.17 1.26v4.464z"/><path stroke="#68374e" stroke-width="1.492" d="M132.296 881.569h298.183"/><path fill="#68374e" d="M443.656 888.315v-12.6h2.43v12.6zm7.064 0v-12.6h2.43l5.796 8.694v-8.694h2.43v12.6h-2.43l-5.796-8.676v8.676zm24.604 0v-10.638h-3.69v-1.962h9.774v1.962h-3.672v10.638zm17.904 0v-12.6h2.43v12.6zm-7.938 0v-12.6h2.43v12.6zm2.088-5.454v-1.962h6.264v1.962zm12.922 5.454v-12.6h8.28v1.962h-5.85v3.294h5.31v1.89h-5.31v3.492h5.85v1.962zm18.204 0 4.608-12.6h2.754l4.59 12.6h-2.574l-3.402-9.828-3.42 9.828zm2.034-2.862.648-1.89h6.408l.63 1.89zm13.734 2.862v-12.6h8.208v1.962h-5.778v3.366h4.626v1.908h-4.626v5.364zm15.096 0v-10.638h-3.69v-1.962h9.774v1.962h-3.672v10.638zm9.966 0v-12.6h8.28v1.962h-5.85v3.294h5.31v1.89h-5.31v3.492h5.85v1.962zm12.654 0v-12.6h4.698q1.53 0 2.52.522t1.476 1.404a3.86 3.86 0 0 1 .486 1.926q0 1.008-.468 1.89-.468.864-1.476 1.404-.99.522-2.556.522h-2.25v4.932zm6.534 0-2.592-5.544h2.628l2.736 5.544zm-4.104-6.696h2.124q1.098 0 1.62-.54t.522-1.422-.522-1.386q-.504-.522-1.62-.522h-2.124zm11.086 6.696v-12.6h2.43l5.796 8.694v-8.694h2.43v12.6h-2.43l-5.796-8.676v8.676zm21.087.216q-1.836 0-3.24-.828a5.83 5.83 0 0 1-2.196-2.286q-.792-1.476-.792-3.402t.792-3.384a5.8 5.8 0 0 1 2.196-2.304q1.404-.828 3.24-.828 1.854 0 3.258.828a5.7 5.7 0 0 1 2.178 2.304q.792 1.458.792 3.384t-.792 3.402a5.7 5.7 0 0 1-2.178 2.286q-1.404.828-3.258.828m0-2.178q1.152 0 1.98-.522.846-.54 1.314-1.512t.468-2.304q0-1.35-.468-2.304-.468-.972-1.314-1.494-.828-.522-1.98-.522-1.134 0-1.98.522t-1.314 1.494q-.468.954-.468 2.304 0 1.332.468 2.304t1.314 1.512q.846.522 1.98.522m16.275 2.178q-1.836 0-3.24-.828a5.83 5.83 0 0 1-2.196-2.286q-.792-1.476-.792-3.402t.792-3.384a5.8 5.8 0 0 1 2.196-2.304q1.404-.828 3.24-.828 1.854 0 3.258.828a5.7 5.7 0 0 1 2.178 2.304q.792 1.458.792 3.384t-.792 3.402a5.7 5.7 0 0 1-2.178 2.286q-1.404.828-3.258.828m0-2.178q1.152 0 1.98-.522.846-.54 1.314-1.512t.468-2.304q0-1.35-.468-2.304-.468-.972-1.314-1.494-.828-.522-1.98-.522-1.134 0-1.98.522t-1.314 1.494q-.468.954-.468 2.304 0 1.332.468 2.304t1.314 1.512q.846.522 1.98.522m10.462 1.962v-12.6h2.43l5.796 8.694v-8.694h2.43v12.6h-2.43l-5.796-8.676v8.676z"/><path stroke="#68374e" stroke-width="1.989" d="M3.382 940.052h646.011v51.839H3.382z"/><path fill="#68374e" d="M39.436 971.972v-12.6h8.28v1.962h-5.85v3.294h5.31v1.89h-5.31v3.492h5.85v1.962zm12.006 0 3.978-6.39-4.032-6.21h2.808l2.772 4.302 2.538-4.302h2.736L58.3 965.69l4.05 6.282h-2.808l-2.79-4.374-2.556 4.374zm19.604.216q-1.89 0-3.258-.81a5.6 5.6 0 0 1-2.087-2.286q-.72-1.476-.72-3.402t.72-3.402q.738-1.476 2.088-2.304 1.368-.828 3.257-.828 2.286 0 3.744 1.134t1.819 3.204h-2.646q-.234-1.008-.99-1.566-.738-.576-1.945-.576-1.116 0-1.925.54-.792.522-1.224 1.494-.433.954-.433 2.304 0 1.332.433 2.304.43.972 1.224 1.494.81.522 1.925.522 1.207 0 1.944-.522.74-.54.973-1.494h2.664q-.36 1.962-1.819 3.078-1.458 1.116-3.744 1.116m9.798-.216v-12.6h8.28v1.962h-5.85v3.294h5.31v1.89h-5.31v3.492h5.85v1.962zm12.654 0v-12.6h2.43v10.71h5.526v1.89zm15.99.216q-1.368 0-2.448-.468a3.97 3.97 0 0 1-1.692-1.368q-.612-.9-.63-2.178h2.574q.018.558.288 1.008t.738.72q.486.252 1.152.252.576 0 .99-.18.432-.198.666-.54a1.4 1.4 0 0 0 .234-.81q0-.54-.27-.9a2 2 0 0 0-.72-.612 6 6 0 0 0-1.062-.45 123 123 0 0 0-1.26-.45q-1.494-.486-2.286-1.296-.774-.81-.774-2.142 0-1.134.54-1.944.558-.81 1.53-1.242t2.214-.432q1.278 0 2.232.45a3.5 3.5 0 0 1 1.53 1.26q.576.828.594 1.944h-2.592a1.5 1.5 0 0 0-.252-.774 1.54 1.54 0 0 0-.612-.594 1.8 1.8 0 0 0-.936-.234q-.468-.018-.864.144-.378.162-.612.486-.216.306-.216.774 0 .45.216.756.234.306.63.54.396.216.936.414.54.18 1.17.378.936.324 1.728.774.792.432 1.26 1.134t.468 1.854q0 .99-.522 1.836t-1.512 1.368q-.972.522-2.43.522m8.685-.216v-12.6h2.43v12.6zm12.878.216q-1.836 0-3.24-.828a5.83 5.83 0 0 1-2.196-2.286q-.792-1.476-.792-3.402t.792-3.384a5.8 5.8 0 0 1 2.196-2.304q1.404-.828 3.24-.828 1.854 0 3.258.828a5.7 5.7 0 0 1 2.178 2.304q.792 1.458.792 3.384t-.792 3.402a5.7 5.7 0 0 1-2.178 2.286q-1.404.828-3.258.828m0-2.178q1.152 0 1.98-.522.846-.54 1.314-1.512t.468-2.304q0-1.35-.468-2.304-.468-.972-1.314-1.494-.828-.522-1.98-.522-1.134 0-1.98.522t-1.314 1.494q-.468.954-.468 2.304 0 1.332.468 2.304t1.314 1.512q.846.522 1.98.522m10.462 1.962v-12.6h4.698q1.53 0 2.52.522t1.476 1.404a3.86 3.86 0 0 1 .486 1.926q0 1.008-.468 1.89-.468.864-1.476 1.404-.99.522-2.556.522h-2.25v4.932zm6.534 0-2.592-5.544h2.628l2.736 5.544zm-4.104-6.696h2.124q1.098 0 1.62-.54t.522-1.422-.522-1.386q-.504-.522-1.62-.522h-2.124z"/><path stroke="#68374e" stroke-width="1.492" d="m174.723 976.404 5.694-21.251"/><path fill="#68374e" d="M207.177 971.972v-9.81l-2.232.594v-1.944l3.276-1.44h1.476v12.6zm6.827 0v-1.782a91 91 0 0 0 2.232-1.836 25 25 0 0 0 1.962-1.818q.864-.918 1.368-1.782t.504-1.674q0-.504-.18-.918a1.46 1.46 0 0 0-.576-.684q-.378-.27-1.008-.27t-1.062.288-.648.774a2.5 2.5 0 0 0-.216 1.062h-2.358q.054-1.386.63-2.322t1.548-1.386q.972-.468 2.178-.468 1.332 0 2.25.504.918.486 1.386 1.332.486.846.486 1.944a4.5 4.5 0 0 1-.306 1.62 6.5 6.5 0 0 1-.828 1.548q-.522.738-1.188 1.422a24 24 0 0 1-1.386 1.314q-.72.612-1.404 1.152h5.418v1.98zm17.391.216q-1.368 0-2.376-.486-.99-.486-1.548-1.332a4.05 4.05 0 0 1-.648-1.926h2.376q.126.702.72 1.188t1.494.486q.648 0 1.134-.324a2.2 2.2 0 0 0 .756-.864q.27-.558.27-1.26 0-.72-.288-1.242a2.02 2.02 0 0 0-1.836-1.098q-.774 0-1.332.378-.54.36-.774.882h-2.358l1.044-7.218h7.074v2.124h-5.274l-.522 2.808q.396-.414 1.062-.666.666-.27 1.494-.27 1.026 0 1.782.36.756.342 1.26.954.504.594.756 1.368.252.756.252 1.602 0 .99-.342 1.818a4.15 4.15 0 0 1-.936 1.44q-.594.612-1.422.954-.81.324-1.818.324m15.253-.216v-12.6h8.28v1.962h-5.85v3.294h5.31v1.89h-5.31v3.492h5.85v1.962zm19.051 0v-12.6h2.43v4.986l4.554-4.986h2.988l-4.626 4.986 4.77 7.614h-2.97l-3.546-5.724-1.17 1.26v4.464zm13.919 0v-12.6h2.43v12.6zm7.065 0v-12.6h2.43l5.796 8.694v-8.694h2.43v12.6h-2.43l-5.796-8.676v8.676zm20.799.216q-1.8 0-3.132-.792a5.5 5.5 0 0 1-2.07-2.25q-.738-1.458-.738-3.384 0-1.944.756-3.42a5.6 5.6 0 0 1 2.178-2.34q1.422-.846 3.402-.846 2.214 0 3.672 1.062 1.476 1.062 1.908 2.952h-2.718a2.36 2.36 0 0 0-1.008-1.296q-.72-.486-1.872-.486-1.224 0-2.088.54a3.44 3.44 0 0 0-1.314 1.512q-.45.972-.45 2.322 0 1.368.45 2.322t1.278 1.458q.846.486 1.98.486 1.656 0 2.502-.882.864-.9 1.026-2.322h-3.096v-1.818h5.544v6.966h-2.25l-.18-1.602a4.2 4.2 0 0 1-.936 1.008 3.6 3.6 0 0 1-1.224.594q-.702.216-1.62.216m21.378 0q-1.368 0-2.448-.468a3.97 3.97 0 0 1-1.692-1.368q-.612-.9-.63-2.178h2.574q.018.558.288 1.008t.738.72q.486.252 1.152.252.576 0 .99-.18.432-.198.666-.54a1.4 1.4 0 0 0 .234-.81q0-.54-.27-.9a2 2 0 0 0-.72-.612 6 6 0 0 0-1.062-.45 123 123 0 0 0-1.26-.45q-1.494-.486-2.286-1.296-.774-.81-.774-2.142 0-1.134.54-1.944.558-.81 1.53-1.242t2.214-.432q1.278 0 2.232.45a3.5 3.5 0 0 1 1.53 1.26q.576.828.594 1.944h-2.592a1.5 1.5 0 0 0-.252-.774 1.54 1.54 0 0 0-.612-.594 1.8 1.8 0 0 0-.936-.234q-.468-.018-.864.144-.378.162-.612.486-.216.306-.216.774 0 .45.216.756.234.306.63.54.396.216.936.414.54.18 1.17.378.936.324 1.728.774.792.432 1.26 1.134t.468 1.854q0 .99-.522 1.836t-1.512 1.368q-.972.522-2.43.522m11.496-.216v-10.638h-3.69v-1.962h9.774v1.962h-3.672v10.638zm9.966 0v-12.6h4.698q1.53 0 2.52.522t1.476 1.404a3.86 3.86 0 0 1 .486 1.926q0 1.008-.468 1.89-.468.864-1.476 1.404-.99.522-2.556.522h-2.25v4.932zm6.534 0-2.592-5.544h2.628l2.736 5.544zm-4.104-6.696h2.124q1.098 0 1.62-.54t.522-1.422-.522-1.386q-.504-.522-1.62-.522h-2.124zm11.086 6.696v-12.6h8.28v1.962h-5.85v3.294h5.31v1.89h-5.31v3.492h5.85v1.962zm12.654 0v-12.6h8.28v1.962h-5.85v3.294h5.31v1.89h-5.31v3.492h5.85v1.962zm15.588 0v-10.638h-3.69v-1.962h9.774v1.962h-3.672v10.638z"/><path stroke="#68374e" stroke-width="1.492" d="m421.916 976.404 5.694-21.251"/><path fill="#68374e" d="M453.549 971.972v-12.6h2.43v10.71h5.526v1.89zm11.351 0 4.608-12.6h2.754l4.59 12.6h-2.574l-3.402-9.828-3.42 9.828zm2.034-2.862.648-1.89h6.408l.63 1.89zm13.734 2.862v-12.6h2.43l5.796 8.694v-8.694h2.43v12.6h-2.43l-5.796-8.676v8.676zm20.925.216q-1.89 0-3.258-.81a5.6 5.6 0 0 1-2.088-2.286q-.72-1.476-.72-3.402t.72-3.402q.738-1.476 2.088-2.304 1.368-.828 3.258-.828 2.286 0 3.744 1.134t1.818 3.204h-2.646q-.234-1.008-.99-1.566-.738-.576-1.944-.576-1.116 0-1.926.54-.792.522-1.224 1.494-.432.954-.432 2.304 0 1.332.432 2.304t1.224 1.494q.81.522 1.926.522 1.206 0 1.944-.522.738-.54.972-1.494h2.664q-.36 1.962-1.818 3.078t-3.744 1.116m8.828-.216 4.608-12.6h2.754l4.59 12.6h-2.574l-3.402-9.828-3.42 9.828zm2.034-2.862.648-1.89h6.408l.63 1.89zm18.072 3.078q-1.368 0-2.448-.468a3.97 3.97 0 0 1-1.692-1.368q-.612-.9-.63-2.178h2.574q.018.558.288 1.008t.738.72q.486.252 1.152.252.576 0 .99-.18.432-.198.666-.54a1.4 1.4 0 0 0 .234-.81q0-.54-.27-.9a2 2 0 0 0-.72-.612 6 6 0 0 0-1.062-.45 123 123 0 0 0-1.26-.45q-1.494-.486-2.286-1.296-.774-.81-.774-2.142 0-1.134.54-1.944.558-.81 1.53-1.242t2.214-.432q1.278 0 2.232.45a3.5 3.5 0 0 1 1.53 1.26q.576.828.594 1.944h-2.592a1.5 1.5 0 0 0-.252-.774 1.54 1.54 0 0 0-.612-.594 1.8 1.8 0 0 0-.936-.234q-.468-.018-.864.144-.378.162-.612.486-.216.306-.216.774 0 .45.216.756.234.306.63.54.396.216.936.414.54.18 1.17.378.936.324 1.728.774.792.432 1.26 1.134t.468 1.854q0 .99-.522 1.836t-1.512 1.368q-.972.522-2.43.522m11.496-.216v-10.638h-3.69v-1.962h9.774v1.962h-3.672v10.638zm9.966 0v-12.6h8.28v1.962h-5.85v3.294h5.31v1.89h-5.31v3.492h5.85v1.962zm12.655 0v-12.6h4.698q1.53 0 2.52.522t1.476 1.404a3.86 3.86 0 0 1 .486 1.926q0 1.008-.468 1.89-.468.864-1.476 1.404-.99.522-2.556.522h-2.25v4.932zm6.534 0-2.592-5.544h2.628l2.736 5.544zm-4.104-6.696h2.124q1.098 0 1.62-.54t.522-1.422-.522-1.386q-.504-.522-1.62-.522h-2.124zm10.239 8.91 1.026-4.572h2.34l-1.782 4.572zm13.832-2.214v-12.6h4.716q1.53 0 2.538.522t1.494 1.404.486 2.016q0 1.044-.468 1.926t-1.476 1.44q-1.008.54-2.574.54h-2.286v4.752zm2.43-6.714h2.142q1.17 0 1.674-.522.522-.54.522-1.422 0-.936-.522-1.44-.504-.522-1.674-.522h-2.142zm8.64 6.714 4.608-12.6h2.754l4.59 12.6h-2.574l-3.402-9.828-3.42 9.828zm2.034-2.862.648-1.89h6.408l.63 1.89z"/><path fill="#a76f00" d="M592.902 214.455q2.33 0 3.729 1.402 1.398 1.169 3.263 2.104v-.935q0-5.376-3.962-9.818-4.195-4.442-9.556-4.442-.233 0-.699.234h-.699.233q0-.468-.466-1.87-.467-1.636 0-2.104 0-.468 1.165-1.636.932-1.403 1.165-1.637a28.8 28.8 0 0 0 3.263-5.143q1.166-2.805 2.331-5.376.233-.234.932-1.637.466-1.635 1.165-3.506l1.399-3.74q.698-1.87.932-2.806a86 86 0 0 0 2.097-6.779q.7-3.74.7-7.247v-27.584q0-.233-.234-1.403a85 85 0 0 1-.466-2.571q-.232-1.636-.466-3.039-.233-1.402-.233-2.338-2.097-9.35-4.661-17.766a352 352 0 0 0-6.293-17.766q-1.398-4.441-1.398-8.65 0-3.038 1.398-5.376.467-.935 1.632-1.169.932-.234.932-1.169 0-.934-.699-1.402h-2.098q-5.127 0-8.39 3.974-3.495 3.974-3.496 9.117v1.87q0 .467.233 1.636a20.3 20.3 0 0 1-5.593-3.273q-2.563-2.337-5.361-3.506l-7.924-3.974q-4.428-2.104-8.856-2.572-.932 0-3.263-.233a48 48 0 0 0-4.661-.702 134 134 0 0 1-4.428-.467q-2.097-.234-2.797-.234-.233-.234-1.631-.234h-4.428q-1.399 0-1.632.234-.932 0-3.962.468-3.03.234-3.962.467l-28.433 6.078h-2.098q-4.428 0-7.924-1.169a59 59 0 0 0-7.924-2.337v1.636q0 4.675 1.865 7.714 1.63 3.04 6.059 4.442l2.797.467q1.166 0 2.564.468-.466.468-1.632 1.87-1.165 1.17-1.631 1.403v.467q-.233.234-.233.468l.233.233 6.293 3.04-5.128 5.142h-.233q-.233-6.78-5.36-10.052t-11.187-3.272q-1.865 0-4.894.935-3.03.7-3.496 3.039h.233q3.03-.935 5.127-1.403 2.098-.701 5.127-.701 4.662 0 8.624 2.805 3.729 2.571 3.729 7.714 0 3.273-1.865 5.611t-4.894 2.805q-.466.234-1.632.234h-1.631q-1.399 0-3.496-.234a22 22 0 0 1-4.195-1.403q-2.097-.935-3.496-2.104-1.398-1.403-1.398-3.506 0-1.87.699-2.104.466-.234 2.097-.935.466 0 2.331-.935 1.632-.935 1.865-.935.932-.468 1.631-.468h1.631q1.864 0 3.729.935 1.865.701 1.865 3.039 0 1.169-.466 2.572-.7 1.402-2.098 1.402h-5.826q-.234 0-.699-.467-.466-.468-2.098-1.637-1.864-1.402-2.331-1.87l-.699.935q3.963 4.676 10.255 4.676a4.87 4.87 0 0 0 2.563-.702q1.165-.7 2.331-.935.7-1.636.932-2.337v-2.104q0-3.507-2.33-4.91-2.564-1.636-5.827-1.636-4.66 0-8.856 3.273-4.428 3.039-4.428 8.416 0 .233.233.233v.702q.233-.234.466-.234.466 0 .466-.234h.932q1.399 1.87 3.962 4.208t5.128 2.337h11.42l-4.429 13.559q-.233 0-.233.467 0 .234-.233.234-.232 0-.466-.234h-.233q-.233-.233-.466-.233-3.496-.936-6.059-1.87-2.797-.935-5.128-3.974h-.233q-.466.467-.699.467 3.729 4.442 9.322 6.312.467 0 2.564.467 1.864.468 2.331.702 1.165 0 1.165.935.699.7-.233.701h-3.03q-4.66 0-8.39-1.87-3.962-2.104-6.759-5.143-2.796-3.273-4.195-7.481a23.7 23.7 0 0 1-1.631-8.649q0-3.974 2.563-7.247a230 230 0 0 0 4.195-6.078q.467-.935.467-1.168-1.632 0-2.564 1.636-1.166 1.636-2.331 1.636-1.398 0-1.864-2.104-.466-2.337-.699-3.038 0-.468-.233-2.338-.234-1.87-.233-2.572v-.467q0-4.676 2.563-7.714 2.33-3.273 7.225-3.273 1.632 0 2.797.701a52 52 0 0 0 2.33 1.636q0-1.168-.932-2.337-1.165-1.17-2.331-1.636h-2.563q-3.963 0-7.691 3.272-3.729 3.273-3.729 7.715v7.714q0 1.169.932 3.272l1.399 2.806v1.169q-1.166 3.505-1.632 5.61-.466 2.104-.466 5.844 0 2.805.466 5.377.466 2.57 1.632 5.143 1.165 1.635 3.495 3.974 2.098 2.337 2.098 3.506v.468l-.699.233-1.399.702q-1.165.467-1.398.467.233 0 .932.234h.699q1.632 0 3.03-.234 1.398-.468 3.03-.467h1.398q.466.233 2.797.935 2.097.467 2.564.935.466 0 .466.935v.234l-10.954 2.337h-.466q-.233 0-.466-.233h-.233q-.234-.234-.466-.234-.7-.468-2.797-2.104-2.097-1.87-2.564-2.338h-.233q-.466 0-.466.701 0 3.273 3.03 4.91 3.03 1.636 5.36 2.805.234.234.466.234l-1.165 2.337q-.932 1.636-1.165 2.104 0 .234-.466 1.169-.233.468-.233.701v6.312q0 2.104 1.631 3.74 1.399 1.403 3.496 3.039a33 33 0 0 1 3.496 3.039q1.398 1.403 1.398 3.039 0 1.169-.699 1.636-.933.468-1.865.468-.699 0-1.398-.935a21 21 0 0 1-1.631-2.338 26 26 0 0 0-1.865-2.104q-1.165-1.169-2.563-1.169h-.467q-.233.468-.233 2.338-.233 1.636-.233 2.104v.234q0 2.104 2.098 5.376t4.195 3.273h6.293q1.398 0 2.33-.935.699-1.168 1.399-2.571.465-1.637.699-3.039v-2.572q0-3.039-1.399-5.376a45 45 0 0 0-3.029-4.442 38 38 0 0 1-3.263-4.208q-1.4-2.103-1.399-4.675 0-3.74 3.263-5.143 3.263-1.636 6.293-1.636h.233q.233 1.637.466 5.61.232 3.975.699 8.65.234 4.442.466 8.649.234 3.974.233 5.61 0 .234.233 1.87v1.871q0 5.377-2.097 10.051-2.097 4.676-6.759 7.013 1.398 1.87 3.729 2.572 2.33.468 4.894.467 1.166 0 1.865-.233.699-.234 1.864-.234h.233q-.465.7-1.631 2.805-1.398 1.87-1.865 2.338l-.466.467h-.233q-.233 0-.932-.467-.932-.468-1.165-.702h-.233q-.233 0-.233.468.233.234.932.701.699.468.699 1.169v1.87q0 2.572-1.165 4.909-1.398 2.104-4.661 2.104-2.33 0-5.128-1.402a20.3 20.3 0 0 1-4.894-3.974 25.2 25.2 0 0 1-3.962-5.143q-1.632-3.039-1.864-5.611 1.398 1.17 2.33 2.806a17 17 0 0 0 2.098 2.571h.466q0-.468.466-.468v-.233l-6.526-10.754h-.466l-.699.234q0 .468.466 1.169.233.468.233.701v.468a6.3 6.3 0 0 1-.466 2.338q-.466.935-.466 2.103 0 4.91 3.263 8.65a130 130 0 0 0 6.525 6.545q.933 1.169 2.797 1.87t3.03 1.403v.234q0 1.87-.932 3.74-.933 1.637-.933 3.974 0 2.805 1.632 6.078 1.398 3.273 4.894 3.273 1.865 0 3.962-.702 2.097-.934 3.263-2.805 0-.234-.233-.467h-.233q-1.165 0-2.098.467a6.2 6.2 0 0 1-2.33.468q-2.564 0-3.496-2.338-.933-2.571-.932-4.442 0-3.974 2.796-7.013 2.564-3.272 4.428-6.077.466-.468 1.399-1.637.7-1.403 1.631-2.805a14.4 14.4 0 0 1 1.632-2.571l.932-1.871a13.9 13.9 0 0 1 3.729-3.039q1.865-1.402 4.428-1.402 4.894 0 4.894 5.143 0 4.441-1.631 4.909t-5.594 1.169q-3.495.467-6.059 3.272-2.564 2.806-2.564 6.312v.935q.467 1.169.932 4.208.234 2.805.233 3.974l-.233.234v.467q0 .234.233.468h.7q.232 0 .466-.234h.466q.233 0 .233-.234h.233q4.661 5.377 10.954 8.182 6.293 2.571 13.284 3.507 4.662.233 8.623.467h8.391q11.186 0 21.441-2.104a369 369 0 0 0 20.742-5.376 39 39 0 0 0 8.158-2.806 362 362 0 0 1 7.69-3.74 51.4 51.4 0 0 1 8.158-3.039q3.962-1.402 8.39-1.402m-43.816 10.051q-.232 0-1.864.468a94 94 0 0 0-4.195 1.169l-4.661.935q-2.564.468-3.962.701-.933.234-3.03.468a48 48 0 0 0-4.661.701q-2.564.234-4.661.468-2.098.233-2.797.233-.466 0-2.331.234h-3.03q-7.458 0-15.148-1.636-7.692-1.87-13.984-5.377l-.699 1.636h-.233q-.466 0-.933-.233l-.932-.935q.466 0 .699-.234.234 0 .467-.234v-.467q0-.234-.234-.468l-.466-.467a175 175 0 0 1-3.263-4.208q-1.63-2.104-1.631-5.377 0-1.637.699-3.273a46 46 0 0 1 .932-3.272q1.166-.468 3.263-1.403 2.098-1.169 3.496-1.169 5.36 0 10.022 2.338a35.3 35.3 0 0 0 9.788 2.805q.466 0 2.797.234t2.797.467l-7.924 7.715h.233q.466 0 1.398-.468.699-.468.699-.701l1.865-.935q1.165-.935 1.631-1.169.699-.468 2.331-1.636a39 39 0 0 1 3.729-2.806 46 46 0 0 1 3.496-2.805q1.63-1.402 2.33-1.87a25 25 0 0 1 2.098-1.403 3.4 3.4 0 0 1 2.097-.701q.932 0 1.166.935v2.338q0 .234-.233.467l-.467 1.403q.466 1.403 2.098 1.403.932 0 1.631-2.572.467-2.805 1.166-3.974a9.4 9.4 0 0 1 3.03-3.039 29 29 0 0 1 3.495-2.571l3.729-2.338q1.865-1.169 3.496-3.039h.233q.7 0 1.399 1.169t.699 1.636v7.715q0 1.636-1.165 3.039a38 38 0 0 1-2.564 2.337q-1.632 1.169-2.797 2.338-1.165.935-1.165 1.87 0 .702.932.701 1.865 0 3.03-1.168 1.165-1.17 3.263-1.169.466 0 1.398.233.699 0 .699.702 0 2.571-2.563 5.376-2.798 2.573-4.662 3.273-.932.468-3.029.701-2.098 0-4.195.468-2.331.233-3.962 1.169-1.632.7-1.632 2.571 0 .468.699.701.467.234.699.234.466 0 1.399.234h1.398q4.196 0 7.691-1.87 3.263-2.104 6.06-5.143a53 53 0 0 0 5.127-6.545 258 258 0 0 1 4.195-6.78q.234-.233.466-.701.234-.7.466-.935 2.565-2.571 5.594-4.208a27.7 27.7 0 0 0 5.127-4.441l.233-.468q.233-.234.233-.467h.466q.933.7 1.166 3.039v3.039q0 2.103-1.166 3.74a28 28 0 0 1-3.029 3.039 64 64 0 0 0-2.797 2.104q-1.398.934-1.398 1.87 0 1.636 1.398 1.636 2.564 0 4.661-2.805t3.962-4.442q.7-.467 3.263-1.636 2.564-1.403 3.263-1.636 1.165-.702 2.797-2.572 1.63-1.87 2.796-1.87h.466q.233.702.233 2.104v.701l-1.864 2.805q-1.632 1.87-2.098 2.338l-.466.468q-.233.234-.233.467 2.331 0 3.263-.467h3.496q2.563 0 6.06.701 3.262.702 4.195 4.442-1.865 0-3.263-.234t-3.263-.234q-2.563 0-4.428.234t-4.195 1.402q-.7.234-2.797 1.403a611 611 0 0 0-4.661 2.104 65 65 0 0 0-4.661 2.338q-2.098 1.168-2.797 1.402-.233 0-.932.468-.7.233-.933.233v.234q-.232 0-.466-.234.699-.233 2.331-1.168a30 30 0 0 1 3.263-1.871 38 38 0 0 1 3.263-2.103q1.63-.936 2.33-1.403l.932-.468q.466-.233.7-.701-.234-.468-.933-.467-1.165 0-2.563.935-1.399.701-2.564 1.168l-2.331 1.169a53 53 0 0 0-4.195 2.104q-2.33.936-4.195 2.104-2.098.935-2.563 1.169-.467.468-1.865.935a18.5 18.5 0 0 0-2.797.701q-1.398.234-2.563.702-1.166.233-1.166.701 0 1.403 1.166.935zm-34.026 3.741q-.933-.936-1.166-1.87a12 12 0 0 1-.233-2.338h-.233q-1.63 0-1.631 1.87 0 .468.466 1.87.232 1.403 1.398.935.234 0 .7-.233.465-.234.699-.234m-8.857-3.039q.234 1.168.933 2.104.466.935 1.864.935h.233a66 66 0 0 0-.699-2.338q-.233-.7-2.098-.701zm21.675-5.143h-.932q-1.631 0-3.263 1.169-1.865 1.168-1.865 3.039 0 3.039 2.331 3.039h.699q.699 0 .699-.234v-3.74zm-8.39 5.143q0-.701.233-1.169 0-.468.699-1.169h-1.165q-3.03 0-3.03 2.572 0 .467.466 1.168.234.702.699.702h3.03q-.932-.702-.932-2.104m15.615-18.468a44 44 0 0 1-10.255 9.117q-5.826 3.507-12.585 5.377-.466 0-1.165.234h-15.382q-5.361 0-9.09-4.208-3.729-4.442-6.292-8.182v.935q0 3.039 1.864 5.143a77 77 0 0 0 3.496 3.74q3.496 3.273 8.39 4.208 4.662.935 9.09.935 5.826 0 11.187-1.87a61 61 0 0 0 10.254-4.675q.933-.468 2.331-1.403 1.399-.935 1.864-1.169l7.225-7.48zm23.772 14.728q-.466 1.168-2.331 1.168-.698 0-.932-.233.466-.234 1.399-.468.699-.468 1.631-.467zm3.962-1.871q.466 0 .466.468 0 .234-.466.234-.233 0-.233-.234 0-.468.233-.468m-61.062-2.805q-1.398-1.87-3.263-1.636t-3.495-1.169a18.8 18.8 0 0 1-3.263-3.74q-1.4-2.338-4.195-2.338-.699 0-1.632.234-1.165 0-1.165 1.169 0 2.337 1.631 3.974 1.632 1.403 3.962 2.337 2.098.936 4.662 1.403 2.563.468 4.195.468h1.631q.467 0 .932-.702m62.926-33.662v.234q-.233 0-.233.233 0 .234-.233.234a42 42 0 0 0-.466 6.312q-.232 3.273-2.796 5.61l-6.06 6.078a6.37 6.37 0 0 0-1.631 2.805 124 124 0 0 0-1.166 2.806h-.233q-.466 0-2.097-.234-1.865-.468-2.331-.468 1.632-7.247 6.759-13.091 5.128-6.078 10.021-10.753v-1.402l-.466.701q-.699.701-2.563 2.337a45 45 0 0 0-4.195 3.741 92 92 0 0 0-3.963 3.74q-1.863 1.636-2.563 2.338-.467 0-.932.701a11 11 0 0 1-1.166.701l-1.631-5.143v-.467l1.864-.935a38 38 0 0 1 2.564-1.403l2.797-1.402q1.165-.702 1.631-1.169.466-.234 2.564-1.403a49 49 0 0 1 4.195-2.805 51 51 0 0 1 4.428-2.805q1.865-1.403 2.331-1.87 2.33-1.17 5.593-2.572 3.03-1.636 6.293-1.636.932 0 .932 1.402 0 .468-.233 1.403l-.466 1.403a793 793 0 0 1-4.195 10.285q-2.564 5.377-6.526 8.65l-.233-.935q-.232-.468-.699-2.104t-.466-2.104h-.466q-.466 0-.933.234-.699.233-1.165.233-.699 0-.699-.467zm-39.387 16.597q-3.495 0-6.059 1.637-2.797 1.636-5.128 4.207a6 6 0 0 0-.699 1.403q-.466.702-1.398.701h-.466q-.233 0-.233-.233l-20.51-6.078-.466-.468v-.234q0-1.637.466-3.039.467-1.403.467-3.272 0-3.74-3.03-5.143t-6.293-2.805v-.234q.234-.702.699-1.87l.933-2.338q.465-1.402.932-2.338.466-.935.699-.935.232.234.699.468t.466.467a257 257 0 0 1 6.759 5.143q3.03 2.572 6.992 4.676 10.953 5.61 23.306 5.61 4.66 0 9.089-.701a231 231 0 0 0 8.623-2.104v.234q-.232.233-.466.233-.232.234-.699.234-.7.468-2.564 1.636-1.864.936-3.962 2.338a90 90 0 0 0-3.962 2.338l-2.796 1.402v-.935zm-57.099-.467q0-1.403-1.166-1.637a13 13 0 0 1-.699 1.637q-.466.935-1.165 1.402h-1.632q-1.864 0-3.029-.701a53 53 0 0 1-2.331-1.636 87 87 0 0 0-2.097-1.637q-.933-.935-2.331-.935 0 1.169 1.165 2.572.932 1.168 2.564 2.337 1.398 1.17 3.03 2.104 1.631.702 2.796.702 1.865 0 3.496-1.169 1.4-1.17 1.399-3.039m125.619-44.65q-.467.468-.699 1.403l-.932 1.87q0 .468-.467 2.572a93 93 0 0 0-.932 4.207 20.5 20.5 0 0 0-.932 4.208q-.466 1.87-.466 2.338-1.398 5.61-4.661 11.221a208 208 0 0 1-6.526 10.519q-.932 1.169-2.331 3.273-1.631 1.87-3.496 2.337v-.233q.234-.468.7-1.169.233-.701.233-.935.233-.468 1.398-2.104a24.5 24.5 0 0 1 2.331-3.74 39 39 0 0 1 2.33-3.741q.933-1.636 1.166-2.104.466-.7 1.165-2.103.467-1.637.699-1.871l6.992-20.337q0-.234.233-3.74t.233-5.377q0-.234.233-2.572v-6.545q-.233-2.337-.233-3.039-.233-3.506-2.098-6.779a86 86 0 0 0-3.962-6.312 96 96 0 0 1-3.729-6.312q-1.864-3.038-1.864-6.311 1.864 0 3.496.467 1.398.234 3.03 1.403.466.468 1.864 2.104t2.797 1.636q0-4.442-2.331-6.545-2.33-2.339-5.826-3.273-3.497-.935-7.691-1.169a723 723 0 0 1-7.691-.467q-3.496-.468-5.827-1.169-2.33-.936-2.33-3.039 0-2.338 3.263-2.805 3.029-.702 4.428-.702 0-.234-.233-.935-.466-.935-.933-.935h-7.691q-1.165 0-2.796-1.636-1.631-1.87-1.865-2.805 2.798-3.507 7.458-3.507 1.865 0 3.729.935 1.865.701 3.729.701h1.398q.467-.232.467-1.636 0-2.337-2.797-2.805-3.03-.701-4.894-.701-5.827 0-10.255 3.74a1355 1355 0 0 1-9.089 6.78q-1.865 1.168-4.196 2.103-2.563.702-4.428.701 0-4.675 1.166-7.948.932-3.272 6.292-3.506-.466-2.338-1.864-2.338-3.03 0-4.894 1.87-2.099 1.637-3.729 3.974l-3.263 4.208a7.77 7.77 0 0 1-4.195 2.805q-.233.234-1.166.702a8.3 8.3 0 0 0-2.097.701q-1.165.234-2.098.467-1.166.234-1.398.234a12.5 12.5 0 0 0-3.263 2.338 42 42 0 0 0-2.564 2.805v.468h-.233q-.931 0-1.398-.935-.7-.935-.932-1.403v-3.273q0-3.273.699-5.376.466-2.105 3.03-3.975.466-.467 2.097-1.402 1.398-1.169 1.865-2.338h-6.992q0-1.168 1.864-2.337 1.632-1.403 2.564-1.87t3.496-1.637q2.563-1.402 3.496-1.87l.466-.234v-2.571q-3.729 0-6.759 1.87a35 35 0 0 0-5.826 3.974 80 80 0 0 0-5.361 4.909q-2.796 2.338-5.826 3.507-2.331.7-3.962.935h-7.225q-.933 0-.932-.468v-.468l1.165-1.168a18 18 0 0 1 1.631-1.87q.7-.936 1.399-1.637.7-.935.932-1.169.232-.467.699-.935.466-.467.466-.701h-.699q-1.864 0-3.496.234a25 25 0 0 1-3.496.234q-2.563 0-4.428-.702-2.097-.7-3.496-3.039-.233-.467-.932-1.402-.699-1.169-.699-2.104l6.526 1.87q3.029.702 6.292.701 7.458 0 15.149-2.337 7.69-2.339 14.45-3.74 3.962-.936 7.691-1.17t7.691-.233q10.021 0 19.81 3.039t18.179 8.649 14.682 13.792q6.06 7.948 8.624 18h.233q1.165 0 1.165-1.636 0-1.169-.466-2.338a48 48 0 0 0-.932-2.571 36 36 0 0 0-.7-1.87 16.5 16.5 0 0 1-1.165-2.338 32 32 0 0 1-1.165-2.104q-.466-.935-.466-1.169a77 77 0 0 0-5.827-8.65q-3.263-4.44-3.263-9.817 0-1.17.466-3.04.234-2.104.933-3.973.699-1.87 1.864-3.273t2.797-1.403q0 1.636-.233 3.04-.466 1.169-.466 2.57v3.04q0 1.403.233 3.974v2.805q0 .468 1.165 2.571l1.165 2.338q.233.468 1.166 2.805.7 2.104.932 3.04a350 350 0 0 1 5.593 20.337 201 201 0 0 1 3.496 20.805v5.377q0 9.584-2.33 18.935a118 118 0 0 1-6.526 18 178 178 0 0 1-3.496 7.948 24.1 24.1 0 0 1-5.36 6.545q-.466.468-1.399 1.169-1.165.701-1.864.701h-.233a29.1 29.1 0 0 1 5.127-8.415 36.5 36.5 0 0 0 4.894-8.65q2.098-6.077 4.195-12.389a40.5 40.5 0 0 0 2.098-12.857zM446.54 177.987q2.331 5.377 7.458 8.649a179 179 0 0 0 9.789 5.845q.232.233 1.165.467.7.234.932.468h.466q-.466-.935-1.398-1.871a29 29 0 0 0-1.865-1.402q-.232-.234-1.398-.935l-2.331-1.403a21 21 0 0 0-2.33-1.636q-1.165-.701-1.399-.935-.232-.234-1.398-1.169a37 37 0 0 0-2.564-1.87 165 165 0 0 0-2.563-2.104q-1.399-.935-1.632-1.403-.232 0-.466-.233zM582.647 167l-2.097.701-3.263.935q-1.865.468-3.496.935-1.632.468-2.098.702l-1.864.935q-1.398.7-1.632.935l-15.382 10.052q-.232 0-1.864.935a56 56 0 0 1-2.564 1.402q-6.293 2.806-12.585 4.442-6.525 1.636-13.517 1.636-8.158 0-15.382-2.805a78.4 78.4 0 0 1-13.751-7.48q-2.098-1.403-4.894-3.974-2.797-2.806-2.797-5.844.466 0 2.331.701 1.631.467 3.496 1.402a30 30 0 0 1 3.262 1.871q1.399.7 1.166.935.466.467 1.864 1.402a64 64 0 0 1 2.564 1.637 37 37 0 0 0 2.564 1.87q1.164.7 1.631.935 3.03 1.87 6.06 2.805a113 113 0 0 1 5.826 1.636q3.496.468 5.827.702h4.894q8.156 0 15.149-4.208t11.886-10.052q.931-1.168 1.398-2.805.467-1.636 1.632-2.572.465-.467 1.398-.701.699-.234 1.398-.701a170 170 0 0 0 2.564-2.104 9.9 9.9 0 0 0 1.864-2.572 7.3 7.3 0 0 0 1.166-3.039q.232-1.636.699-3.272.232-1.636.699-2.806.467-1.403 1.631-2.103v.935q0 6.779-4.428 12.155a279 279 0 0 1-8.856 9.819 2.9 2.9 0 0 0-.699 1.168q-.466.702-.466 1.403v.468a83 83 0 0 0 4.894-3.741 41.5 41.5 0 0 1 5.36-3.74 29.7 29.7 0 0 1 5.827-3.039q3.03-1.169 6.059-1.169.933 0 3.729.702 2.797.7 2.797 2.337zm-100.915 7.714q0 5.844-3.729 9.351-3.962 3.506-9.788 3.506 0-2.57 1.864-4.675 1.632-2.103 2.331-4.441 1.398-3.975 1.631-7.948v-12.39q-.233-2.805-.233-3.273v-10.753a99 99 0 0 1-.233-6.546v-4.441q-2.564 1.87-5.36 2.571-3.03.702-5.361 1.637-2.33.934-3.729 2.805-1.63 1.87-1.631 6.078 0 1.168.233 1.87.466.468 1.398 1.636.933 1.17 2.098 2.338a29 29 0 0 0 2.097 2.338l1.166 1.168a17.2 17.2 0 0 1 2.33 3.507q.933 1.87.933 4.208 0 2.805-1.865 4.909-2.097 1.87-4.894 1.87t-4.894-1.636q-2.331-1.87-2.331-4.676 0-1.636.699-1.636 1.865 4.91 6.759 4.909 3.495 0 3.496-3.74 0-2.338-1.632-4.208a93 93 0 0 0-3.729-3.974 45 45 0 0 1-3.729-4.208q-1.864-2.337-1.864-5.143 0-3.505 1.864-5.844 1.632-2.571 4.195-3.974 2.565-1.637 5.827-2.571a50 50 0 0 1 5.826-1.87h.933q.465.467.932.701l.932.467.233.234.233-.234.933-5.142q.233-2.572.932-5.143a71.3 71.3 0 0 1 4.894-11.922q3.03-6.078 7.225-10.754.7-1.168 2.564-2.571 1.864-1.636 3.262-1.636l.467.233-6.759 7.247.466.468.233.233q.466 0 1.165-.701a70 70 0 0 1 6.992-6.545q3.497-3.274 8.157-5.143v.233q0 2.105-2.563 3.273-2.797.936-4.196 2.104-2.097 2.105-4.195 4.909a150 150 0 0 1-3.962 4.676 38.7 38.7 0 0 0-5.36 10.753 39 39 0 0 0-1.864 11.922q0 3.507.699 7.714.7 4.208 2.33 8.416a28.9 28.9 0 0 0 3.962 7.48q2.331 3.273 5.594 5.143 1.166.936 2.796 1.636a11.8 11.8 0 0 0 3.263.468h1.166q-1.166-1.403-3.496-2.571-2.563-1.403-3.729-2.104-1.865-1.403-3.729-3.507a25 25 0 0 1-3.263-4.675q-1.632-2.572-2.564-5.143-.932-2.805-.932-4.909v-1.403q.466-.7 2.331-.935 1.63-.467 2.097-.935.467 0 .932-.234l.933-.467q.699-.234 1.165-.701.466-.234 1.864-1.169a21 21 0 0 1 3.03-2.104 21 21 0 0 1 3.03-2.104q1.398-1.169 1.631-1.403.467-.233 1.166-.701l.932-.467q.466-.234.699-.234h.233q.466 1.168.466 2.571v2.572q-1.398 2.57-2.796 4.441-1.4 1.636-1.399 4.909 0 2.805.932 4.676.7 1.636 2.797 3.506.467.234 1.632.701.932.234.932.935v.234q-.234.468-1.165 1.637-.933.935-.933 1.402v7.714q-.466 0-1.398.468v.234q.466.234.932.935.466.468.466.701 0 2.571-3.029 3.507-3.264.935-5.128.935a6.8 6.8 0 0 1-4.195-1.403 15.9 15.9 0 0 1-3.729-3.506 26.7 26.7 0 0 1-2.797-4.442q-1.398-2.337-2.097-4.208a89 89 0 0 0-.932-2.571 37 37 0 0 1-1.632-4.442 211 211 0 0 1-1.631-4.208q-.7-2.103-1.165-3.038l-.7-1.403v1.169q0 6.545 3.729 12.857a313 313 0 0 1 6.293 11.922 34 34 0 0 1 1.398 3.273q.466 1.637.466 3.272-4.194 0-6.059-2.337-2.098-2.573-4.195-5.844l-.466-.234v1.402q0 3.039.932 6.078.932 2.806.932 6.078m63.859 3.273q-2.331 2.805-5.594 4.208a38.5 38.5 0 0 1-7.225 2.104 66 66 0 0 1-7.691.467h-9.555l-19.111-9.35v-.468q-.233 0-.233-.234l-.233-.233-.233-.234q-.467-.468-1.865-2.338a37 37 0 0 1-1.165-1.636v-.468q1.398 0 3.03.234 1.398.234 3.03.234 3.262 0 5.127-2.104t4.661-3.039q1.864 1.168 4.894 1.87 2.797.702 3.962 2.571.233.234.933 1.637.465 1.168.932 1.636 1.631 2.571 4.195 3.507 2.33.7 4.894.701h1.398q.7-.234.933-.234 2.097-.467 3.03-2.337.932-2.104 2.796-3.273a4.93 4.93 0 0 1 1.632 2.337q.465 1.17 2.33 2.806 1.166 1.169 2.564.935t2.564.701m19.11 2.805q-.466 0-.466.468 0 .234.466.234.467 0 .467-.234 0-.468-.467-.468m-86.931-4.909q.233-2.571.233-5.376v-5.377h-.932v3.039q-.233 2.337-.233 3.039a20.5 20.5 0 0 1-.932 4.208 10.8 10.8 0 0 0-.933 4.441v.701a7.9 7.9 0 0 0 1.865-2.103q.466-1.404.932-2.572m57.566-9.351q0 1.404-.699 4.442-.933 3.039-3.03 3.039h-5.36q-1.632 0-2.797-.935a9.9 9.9 0 0 1-1.865-2.571 13 13 0 0 1-.932-3.273 22 22 0 0 1-.233-3.039q-3.263.468-5.127 0-1.865-.468-4.195-2.338-.466-.234-.933-.935-.466-.7-.466-.935v-6.545q0-1.87 2.331-3.039t3.729-1.637q.932 0 3.263-.234 2.33-.233 3.263-.467.932-.935.932-2.338 0-2.103-2.331-2.104a8.7 8.7 0 0 0-3.962.935q-2.097.936-4.195.936-3.03 0-5.127-1.637-2.331-1.87-2.331-5.143 0-1.168.233-2.104 0-.935.699-2.103.467-.468 1.865-2.104 1.399-1.637 1.864-2.104v-8.416q0-2.571 2.331-3.506 2.33-.936 4.195-.935h2.098q1.865.467 3.029 2.103a72 72 0 0 1 1.865 3.507 52 52 0 0 0 1.864 3.039q.933 1.169 2.564 1.169.7 0 1.165-.702.466-.701.466-1.168 0-1.403-.699-2.572a26 26 0 0 0-1.864-2.104 29 29 0 0 1-2.098-2.337q-.932-1.17-.932-2.806 0-3.272 2.331-4.909 2.33-1.87 5.36-1.87 2.33 0 3.962.935 1.398.702 3.263 2.338 2.563-3.74 6.292-3.74 3.73 0 5.594 2.104 1.631 2.103 1.631 5.61v1.169q-.233.467-.233.701l-.233.701-5.826 6.078v.234l.699 1.403q.467.935.699 1.169l.466-.234 8.623-7.948h.467q.233 0 .233-.234h.233q3.729 0 5.826 2.805 1.865 2.805 1.865 6.078v2.571q-.234.936-.933 2.104 1.4 1.87 3.03 2.806 1.399.7 1.399 3.272 0 2.805-1.399 6.078-1.631 3.039-4.894 3.039-1.864 0-3.496-1.402-1.632-1.403-3.496-1.403-.699 0-1.165.234-.699 0-1.399.701v.234q0 1.87 1.399 2.571 1.165.701 2.797 1.403 1.631.468 3.262 1.169 1.632.467 2.331 2.104v2.103q0 2.572-.932 3.974-.933 1.403-2.797 3.273l-.466.234-.233.234h-4.894q.232 3.506-1.632 7.013-1.865 3.273-6.059 3.272-2.331 0-3.729-1.402a8.5 8.5 0 0 1-1.865-3.74 14 14 0 0 1-.699-4.442q-.233-2.337-.233-3.974l-1.632-1.403-.233.468q-.232-.935-1.165-1.636-.932-.935-.932-1.169-.699 1.168-.699 2.104-.233.701-.233 1.87 0 1.87.699 3.273.466 1.169.466 3.038m50.574-13.558q0 .934-.233 2.805a23 23 0 0 0-.699 3.507 28 28 0 0 0-.699 3.039q-.233 1.402-.467 1.636l-.233.701q-.465-.233-1.631-.935-1.166-.7-1.631-.935-.467-.467-.467-.701.233 0 .233-.234t.234-.234v-.233q.931-1.87 2.097-3.974 1.165-2.338 1.165-4.676 0-1.402-1.165-1.636a12 12 0 0 0-2.331-.234q-1.63 0-3.029.468-1.632.234-2.098 2.104h.466q1.165 0 2.098-.468.7-.7 2.33-.701 0 3.506-3.262 6.779-3.496 3.273-6.759 3.273-.234 0-.466-.234.466-2.338 1.864-4.442 1.398-2.337 3.263-3.506v-.468q-1.398 0-2.098 1.637-.699 1.636-2.563 1.636v-.234q0-3.039.699-5.844.466-3.039.466-6.312 0-4.908-.466-8.649-.7-3.974-1.864-7.247a30.2 30.2 0 0 0-3.263-6.779q-2.098-3.273-5.361-6.779-4.194-4.909-9.089-7.481-5.128-2.571-11.653-2.571h-2.564q2.33.935 4.195.935l-1.864 2.104h-.466q-.467 0-1.632-.234-1.398-.234-1.398-.935.233 0 .233-.234v-.467q.233-.234.233-.468v-.233q-5.127 0-9.555 2.571-4.662 2.337-5.827 7.714h-4.195a6.2 6.2 0 0 1-2.331-.467q.234 0 .234-.234v-.468q.232-.467 1.165-1.87.7-1.403 1.631-2.805a19 19 0 0 1 1.632-3.039q.932-1.402 1.165-1.87 0-.234.699-.701l.699-.702q.467-.467 3.03-2.104 2.33-1.869 3.263-2.805.7-.7 1.165-.701h.233q.234.468.466 1.636.233 1.17.233 1.637.466.467.7 1.169.233.7.699.701h.466q.699 0 2.098-.234 1.398-.234 3.029-.467l2.797-.468q1.398-.234 2.098-.234a13.3 13.3 0 0 0 4.195-2.104 33 33 0 0 0 3.029-3.506l5.594 5.61v.234q0 .468-.233.701-.233.234-.233.702v.233q.466.701 1.398 1.871.7.934 1.165 1.402 3.263 3.974 8.391 4.909 4.893.702 9.322 1.169 0 2.572.466 4.909.233 2.338 1.865 4.675 0 .468.932 1.637.7 1.168 1.631 2.805l1.865 2.805q.7 1.169.932 1.403 2.564 4.441 3.263 8.883.699 4.208.699 9.117zm-108.839 7.013q-.466 0-.466.701v.468q0 .233.233.701v.701q.233.468.233.936h.932v-1.871q-.233-.934-.233-1.636zm65.956-6.545 5.36 7.948v-.702l-2.796-8.415v-.702h.466q-.234-.232.233.234.466.468 1.864 2.104 1.166 1.403 1.632 1.636l.466.468q0 .234.233.468.232.233.699.467l.699-.234q-.466-.7-1.398-2.571-1.166-2.104-1.632-2.572-.698-1.168-.932-1.402l5.827 2.571h.233q-.466-.7-2.098-2.805a206 206 0 0 1-2.097-3.039q-.7-.233-.7-1.169 0-.7.234-1.169a13 13 0 0 1 .699-1.636h.699q.232 0 .699-.234.7-.233 3.263-.467 2.331-.468 3.03-.702h-.466q-.233 0-.233-.233-.7-.234-3.03-.702-2.331-.7-3.263-.935v-.233q0-.702.466-.702.233 0 .699-.233.932 0 3.962-.702 3.03-.7 4.195-1.169-2.097-.467-3.962-.233-2.097 0-3.962-.702l7.691-4.207q-.466 0-.466-.702h-.466l-7.691 2.338h-1.165q1.165-1.168 3.263-2.572 2.097-1.635 2.097-3.74h-.466q-1.631.936-3.962 2.572-2.33 1.402-4.195 1.402t-3.03-1.636v-1.87q0-1.169.233-2.338v-3.039a2.1 2.1 0 0 0-.233.935l-.699.702q-.233.467-.932 2.103-.932 1.403-1.166 1.871h-.932v-9.585q-1.165 1.87-1.165 4.208a6.85 6.85 0 0 1-1.399 4.208q0-.468-.466-2.572-.7-2.337-.932-2.805 0-.234-.233-.467-.233-.468-.233-.702l-.233-.234-.233.234-.466 8.65h-.233l-.466-.468q-.233-1.169-1.166-3.974-.932-3.04-1.165-4.208 0-.234-.233-.467-.233-.468-.233-.702v11.455q0 .7-.699.935-.7.234-1.166.234h-.466q-.931-.468-3.729-1.637-2.796-1.168-3.729-1.636l-.466-.234q-.233 0-.466-.233l6.293 7.013v.233q-1.166 0-.933.234l-1.165-.467-2.097-.702-2.797-1.402a57 57 0 0 1-3.03-1.403q-1.398-.702-2.097-.935l-.233.701q0 .234.233.468l1.864.935q1.165.701 2.564 1.402l2.33 1.403q1.165.701 1.399.935.232.234.466.234l.233.234q.233.233.466.233h-8.157q0 1.17.466 1.403l7.691 1.636q-.466.234-1.165.935l-1.399.702-.233.233q2.564.468 4.195 1.403 1.632.701 1.632 3.974h-.233l-6.293 5.844h-.233l.233.234.233.468h.466q.467-.468 1.865-1.403 1.165-.935 1.631-1.169.234 0 .466-.234.234-.233.466-.233l.233.467v.234q0 1.637-1.631 2.805-1.865 1.168-2.331 2.805v.234q.466-.468 2.331-1.636 1.865-1.17 2.564-1.637l.466-.233v.233q0 2.105-1.399 3.974-1.631 1.87-2.563 3.741 0 .233.233.467h.466l.466-.467q.467-.468 1.398-1.637.7-1.168 1.865-2.337l1.864-2.338q.933-1.169 1.166-1.636h.466l-2.797 7.714v.467q1.399 0 2.098-1.168.465-1.404 1.165-2.806.7-1.637 1.631-2.805.933-1.402 2.797-1.402h.466q.466 0 1.632.233h1.165q1.865 1.17 2.097 3.974.234 2.572 2.098 4.208v-.935q0-1.87-.233-3.74a15.4 15.4 0 0 1-.466-3.74zm-6.992 5.61q.466 0 .466.234 0 .233-.466.233t-.466-.233q0-.234.466-.234m-60.595-12.623q0 1.402.233 3.506l.466 4.208q.232 2.103.466 3.74l.233 1.403h.466v-2.805q0-2.104-.233-2.806v-3.039q-.233-2.337-.233-2.805-.233-1.402-1.398-1.402m61.061 12.155q.233 0 .233.468 0 .234-.233.234-.466 0-.466-.234 0-.468.466-.468m17.946-6.311q0 .234.233.467.233.234.466.234t-.233-.467-.466-.234m-7.691-12.156q0 3.74-2.331 7.013-2.33 3.039-6.292 3.039-3.963 0-6.293-2.338-2.331-2.571-2.331-6.545 0-1.17.467-2.805.233-1.87.932-3.273.699-1.636 1.864-2.572 1.165-1.168 2.797-1.168h5.593q1.166 0 2.331.935.933.934 1.631 2.337.7 1.403 1.166 3.039.466 1.403.466 2.338m-3.496 3.506q0-1.637-1.865-2.337-2.097-.702-2.097-2.805 0-.702.466-1.871.233-1.403.699-2.103v-.234q0-1.169-.932-1.169H537.9q-1.4 0-2.331.701.466 1.169.932 1.87t.466 2.104v.702q-.233.233-.233.467l-.233.468h-4.661v.233q0 .234-.233.468v1.169q0 2.337 2.331 2.337 1.864 0 1.864-1.402 0-1.403 1.865-1.403 1.164 0 1.631 1.169 0 .935.233 2.571t1.864 1.637q1.865 0 1.865-2.572m-64.558-11.688v1.87h.7v-1.87zm36.358-27.818a47 47 0 0 0-.933 2.571q-.699 1.403-1.165 2.104-4.195 7.013-10.721 12.39-6.758 5.376-13.983 8.649-.699.234-1.632.701-1.165.234-1.864.234v-3.272l.233-.234q6.06-1.87 10.721-5.377 4.428-3.74 9.089-7.714.233 0 .932-.701a131 131 0 0 0 4.428-5.143q1.865-2.805 4.895-4.676zm-9.323 6.779q0 .701-.466 1.169l-19.344 14.026-1.165-.468q0-3.039 1.864-7.246 1.865-4.209 4.662-8.182 2.563-4.208 5.593-7.481 3.03-3.506 5.593-4.909h.467l2.796 12.39zm-3.962 13.792-.466-.467.466-.234zm-44.98-6.545q-.466-.468-1.399-3.039-.932-2.805-1.165-3.74v-.234q0-.234-.233-.468-.233-.233-.466-.701-.466 1.168-.466 3.039 0 1.403 1.165 3.273.933 1.87 2.098 2.805l.466-.468zm98.351-6.078a6.2 6.2 0 0 1 2.098 1.403l1.631 1.636h-2.797q-.466 0-.466-.468-.233-.233-.233-.935 0-.7-.233-1.169zm30.065-8.883q-.933 0-2.331.935t-1.631 1.636l.233.702.466.467h2.797l.466-.935zm-3.263-4.675-.466-.468q-.234-.234-.466-.234h-.466q.233 2.104-.7 3.039a64 64 0 0 1-2.796 2.104q.699.701 2.097.701t2.098-1.168q.699-1.404.699-2.572zm-3.962-1.87q0-1.17-.699-2.338-.7-1.403-2.098-1.403v3.04l-3.03 2.804v.468q0 .234.233.234.234 0 .234.233h4.195l.466-.935q.232-.467.466-.701.233-.234.233-.701zm-4.661-4.208q0-1.17-.466-2.572-.466-1.636-1.399-2.104-.233 0-.699.234-.7 0-.932-.234-.233 0-.233-.467-.233-.702-.233-.935v1.87q0 .935.233 2.104.233.934.233 2.104 0 .935-1.165 1.168h-1.865v.936q0 1.636.932 1.636.234 0 .699.234h.7q4.195 0 4.195-3.974m-25.637-9.351q3.263 0 6.293.468 3.03.467 6.292.467h.933q0-.234-.933-.701a9 9 0 0 0-2.097-1.17 47 47 0 0 1-2.564-.934q-1.165-.468-1.864-.468h-12.819q-.233 0-1.631.234-1.631.234-2.564.468-1.165.233-4.428 1.402t-6.759 3.04q-3.496 1.635-6.292 3.74-2.797 1.87-2.797 3.506v.467h.466q.234-.233.466-.233l1.865-.935a37 37 0 0 1 2.563-1.87 26 26 0 0 1 2.797-1.637q1.398-.935 1.632-1.169 4.894-2.805 10.254-3.74 5.361-.935 11.187-.935m-39.387 8.182-.466-.468h.466zm-51.972-11.455h1.631q.7-.234 1.165.234.466.234 1.399 1.403.932 1.168 1.398 1.636l1.165.468q.234-.468.7-1.637.233-1.402.233-1.87v-.234q0-.467-.933-1.169a9 9 0 0 0-2.097-1.168 32 32 0 0 0-2.098-1.17q-1.165-.467-1.631-.467-3.263 0-4.661 3.507-1.632 3.273-1.632 5.844 0 1.402.233 3.273.234 1.869 1.399 2.805v-8.182q0-2.339 1.864-3.273zm51.506 7.948q.466 0 .466.468 0 .234-.466.234t-.466-.234q0-.468.466-.468m17.945-9.818q0-3.74-3.495-3.74h-.7q-.465-.234-.932.234l2.098 2.103v.702q0 1.635-.933 3.974h.467q3.495 0 3.495-3.273m1.166-4.208q0 1.17.932 1.637.933.233.932 1.168 0 1.17-.932 2.104-.932.702-.932 1.87.699 0 2.796-.233 1.865-.468 1.865-1.637v-3.272q0-1.17-1.865-1.403-2.097-.234-2.796-.234M537.2 76.3q0-1.403-1.165-1.87t-2.097-.468q0 .935.233 1.403t.233 1.168q0 .936-.233 1.637a4.4 4.4 0 0 0-.233 1.403q1.164 0 2.33-.702.933-.934.932-2.571m4.662.233q0-1.636-2.098-1.636 0 .234-.233.234h-.466q.233 0 .699.467.233.468.233.702v1.403a2.1 2.1 0 0 0-.233.934q1.166 0 1.631-.233.467-.468.467-1.87"/></svg>