<svg xmlns="http://www.w3.org/2000/svg" width="88" height="88" fill="none" viewBox="0 0 88 88"><path fill="#68374e" d="M.864 85.248q0-.096.096-.192l.192-.192 10.752-11.52q.48-.48.864-1.152.48-.576.672-1.248a5.55 5.55 0 0 1-2.688-.288 8 8 0 0 0-2.688-.48q-1.536 0-2.4.864a5.4 5.4 0 0 1-2.112 1.44l-.192-.288a12 12 0 0 1-.096-1.44v-2.304q0-.096-.096-.48v-.48h.48v3.072q.672 0 1.152-.384a6 6 0 0 0 1.152-.768l1.152-.768q.672-.288 1.536-.288h.576a.93.93 0 0 1 .576.384l3.648.672v-.192a.63.63 0 0 1-.288-.288l-.288-.288q0-.096-.096-.192-1.536-.96-3.648-.96H7.968q0 .096-.096.096-.096.096-.192.096t-.096-.192l-.384-.384q.192-.192.672-.288t.672-.096q1.632 0 3.264.384 1.632.48 3.168 1.056l.192.096h.192q.768 0 1.344-.576.576-.48.576-1.248 0-.384-.288-.48a4 4 0 0 1-.576-.48q.288-.192.576-.096t.48.096v-.48q.096 0-.096-.384a67 67 0 0 0-1.152-2.88 9.7 9.7 0 0 1-.48-3.072v-.576q.096-.384.096-.576.096-.48.672-1.728.672-1.248.864-1.44l.864.864-.768.96q-.672.864-.672 1.344 0 .192-.096.864v1.728q.096.48.096.576 0 .288.192 1.056.192.672.48 1.44.288.672.672 1.248t.864.576q.672 0 1.632-.672a78 78 0 0 1 1.536-.96 80 80 0 0 1 3.264-1.536 8.7 8.7 0 0 1 3.552-.768h.384q-.288.48-.864.576a113 113 0 0 1-4.128 1.632q-2.208.768-3.744 2.4l-5.376 5.664-6.336 8.736q-1.632 2.208-3.84 3.072L3.744 84.48v.576q0 .192.576.288t1.248.192 1.248.096q.672.096.864.096 2.976 0 5.568-1.536 2.688-1.536 4.032-4.128l3.36-6.432q.288-.672.768-1.152t1.248-.48q0 .96-.384 1.728t-.864 1.44l-.96 1.344a7.6 7.6 0 0 0-.768 1.632q-.192.48-.192.96v1.152q0 1.44.384 2.688t2.016 1.632l-.192.288a51 51 0 0 1-1.056.672q-.768.576-.96.768-.096.096-.192.096t-.096.096l-.096-.192q-.096-.096-.48-.672t-.48-.672l-.48-.48q-.288-.288-.384-.288h-.192a245 245 0 0 1-4.32 2.016q-2.112.96-4.512.96H7.392q-.192 0-1.44-.192a23 23 0 0 0-1.632-.096q-.288 0-.864-.096a7.6 7.6 0 0 1-1.152-.288 5.3 5.3 0 0 1-1.056-.48q-.384-.288-.384-.672zm33.504-1.44q-.864 1.632-2.592 2.112a9.8 9.8 0 0 1-3.264.576h-1.44q-1.344-.288-2.208-1.248Q24 84.384 22.656 84q1.056-1.248 2.784-2.304l.192.096q.576.864.864 1.44.384.576.768.864.48.384 1.056.48.672.192 1.824.192h1.344q.96-.288.96-1.344v-.192q-3.072-1.536-4.704-3.36-1.632-1.728-1.632-5.472 0-2.304.768-4.128.864-1.728 2.208-3.552l.192-.192q.192-.096.288-.192.288.288.288.48 0 .096-.48.48t-.576.576a17 17 0 0 0-1.248 2.688 9.4 9.4 0 0 0-.48 2.976q0 1.92.576 3.168.672 1.344 1.728 2.208t2.496 1.44 3.168 1.056q.96.288 2.016.288a4.8 4.8 0 0 1 2.112.672l4.224 2.688q.672.48 1.248.48.384 0 .48-.096t.576-.384q.192-.096.864-.48a19 19 0 0 0 1.536-.864q.864-.48 1.536-.96.768-.384.96-.576h.192q.096 0 .096-.096l3.264-1.344q1.728-.576 3.072-1.536a6.3 6.3 0 0 0 2.112-2.208q.864-1.344.864-3.36 0-1.248-.288-2.496a8.6 8.6 0 0 0-.96-2.4 6 6 0 0 0-1.536-1.824 5.44 5.44 0 0 0-2.208-1.056 4.6 4.6 0 0 0-1.248-.192 6 6 0 0 0-1.152-.096q-1.344 0-2.304.192-.864.096-1.92 1.152 0-.096-.096-.192a.7.7 0 0 1-.096-.288q0-.384.672-.672a12 12 0 0 1 1.632-.48 11 11 0 0 1 1.728-.384q.864-.192 1.152-.192 3.072 0 5.376 2.112 2.4 2.016 3.072 4.992v1.92q0 1.92-.384 3.264-.288 1.344-1.248 2.976-.192.192-.576.768-.288.576-.768 1.248a21 21 0 0 1-.768 1.248q-.384.576-.48.768-.384.192-.384.576.288 0 1.056.096t.96.096q1.728-.192 2.88-1.44 1.152-1.152 1.344-2.88.192.288.768 1.248.576 1.056.672 1.344.48.48.96 1.248.576.864 1.344.864.576 0 .96-.48.48-.48.672-1.152.288-.576.384-1.248t.096-1.152v-.864q0-.384-.192-.672L65.856 74.4q-.288-.48-.672-1.152a2.56 2.56 0 0 1-.288-1.152v-.288q.48-.096 1.152-.096.48 0 .864.384.48.384.768.768.192 3.072 1.344 5.28 1.248 2.304 3.168 3.744A13.9 13.9 0 0 0 76.704 84q2.592.768 5.472.768h1.152q.48-.192.96-.576t.96-.384h.096q.384.192.672.48.288.384.48.576v.096q0 .288-.384.672t-.672.384H74.496q-.48 0-.96-.192a2.1 2.1 0 0 1-.864-.384q-.288-.096-1.344-.576-.96-.48-1.248-.672-.192.192-.96.864t-1.056.864q-.096.096-.48.288-.288.288-.384.288h-2.112q-.288 0-.48-.288a5 5 0 0 0-.288-.48 2.4 2.4 0 0 0-.288-.576q-.096-.192-.48-.192-.96 0-1.632.768t-1.728.768H56.16q-.576 0-1.248-.384-.576-.384-.576-.864 0-.384.384-.768l.48-.96q.48-.768.576-.96h-.288q-1.536 0-3.168.576a62 62 0 0 0-2.88 1.344q-.288.192-.96.48a10 10 0 0 1-1.44.672l-1.344.768q-.672.384-.96.48h-3.552q-.096 0-.192-.096-.288-.288-.288-.192-1.44-.864-2.976-1.824a5.6 5.6 0 0 0-3.168-.96zm-27.552.288q0-.192.288-.384.288-.096.48-.192l2.4-2.4 7.872-10.368q1.536-1.92 3.648-3.648 2.208-1.824 4.704-2.4l-.576.768a65 65 0 0 0-5.568 4.416 34.7 34.7 0 0 0-4.8 5.28q-.096.192-.576.768-.384.576-.864 1.152-.48.672-.96 1.248-.384.672-.48.768 0 .192-.192.384l-.288.288L7.776 84l-.576.576q0-.096-.192-.192-.096-.096-.096-.192zm10.176-7.584q-.768 2.016-2.496 3.936-1.632 2.016-3.552 3.168v-.096q-.096 0 .192-.288l5.472-6.528.192-.192zm51.84-2.4q0-.192.096-.576.096-.288.384-.288.576 1.152 1.056 2.304.576 1.152 1.152 2.208a9.2 9.2 0 0 0 1.344 2.016q.864.864 2.208 1.344.096 0 .48.192.48.192.96.288.576.192.96.384t.48.192l.96.384q.48.288.768.672h-.192q-1.44 0-3.264-.96-1.824-.864-3.552-2.304a15.2 15.2 0 0 1-2.784-2.976q-1.056-1.536-1.056-2.88m15.264 9.024q.096 0 .096.096 0 .192-.096.192T84 83.232q0-.096.096-.096M74.304 74.4q0 .096.192.192l.288.288q.192.192.576.48.384.384.48.384l.768.768 1.344 1.344q.672.768 1.248 1.344.576.672.768.768.096.096.576.48.576.384 1.152.864.672.48 1.152.864.576.48.768.576l.384.384h-.384q-.864-.288-2.4-1.344a29 29 0 0 1-2.976-2.304 37 37 0 0 1-2.688-2.784Q74.4 75.36 74.112 74.4zm-34.848 4.992q-.96 0-1.92.096-.96.192-1.92.192-1.152 0-2.4-.576a7.4 7.4 0 0 1-2.112-1.344 6.8 6.8 0 0 1-1.536-2.016 5.5 5.5 0 0 1-.576-2.496q0-3.072 1.632-4.512 1.632-1.344 4.416-2.016 2.016.768 3.456 1.632t1.44 3.264q0 1.92-.768 2.976-.768 1.152-2.88 1.152-.864 0-1.728-.576a1.83 1.83 0 0 1-.768-1.536q0-.288.096-.768l.384-.96q.192-.48.48-.864.288-.288.576-.288h.384q.288.096.48.192.192.192.96.48.864.288 1.056.384h.192q0-1.632-1.056-2.496t-2.688-.864q-2.112 0-3.264 1.44-1.056 1.44-1.056 3.456 0 1.056.576 1.92.576.96 1.44 1.632.96.672 2.016 1.056t2.016.384q3.264 0 5.088-2.304 1.92-2.304 1.92-5.376 0-4.512-2.976-6.912-2.88-2.496-7.008-2.688 0-.096.096-.096t.192-.096.192-.288a25 25 0 0 0 1.152-.864q.864-.768 1.152-.96v.288q0 .096.096.288 0 .096.384.096.576 0 .576-.672 0-.384-.288-.48a1.8 1.8 0 0 0-.576-.096q-.768 0-1.536.576-.768.48-1.536.576v.288q0 .096.096.288l.192.384v.192q-.192.096-.576.192h-.768q-.096-1.344-.384-1.632t-.576-.288a2.8 2.8 0 0 1-.672-.096q-.288-.096-.384-1.056h-1.728q-.192-.672-.48-1.056-.192-.384-.192-1.056 0-1.344.576-2.304.672-1.056 1.152-2.304v-.288q.096-.288.096-.384v-1.344q.096-1.056.192-1.44.192-.576.864-.672.768-.096 1.248-.192.192-.096.672-.672l.768-.768q.096-.096.192-.288l.384-.384.384-.384 2.592-6.24h-5.664q-.288 0-.384-.192v-.384q0-.576.384-1.056.384-.576.768-1.056.48-.48.864-.96t.384-.96v-.096a33 33 0 0 0-2.304-.096q-.96 0-2.016-.48a7.5 7.5 0 0 0-.96-.384 5.5 5.5 0 0 0-.96-.288v.96h-.096q-.192 0-.288-.096l-6.24-3.84q0-.192.192-.192.096-.096.288-.192.288-.096.48-.192v-.192l-5.472-7.776-3.168 8.352h.288q1.056 0 2.112-.288a8 8 0 0 1 2.112-.288h.096q-1.344.768-2.592 1.152a31 31 0 0 0-2.304.672q-1.152.384-2.208.96t-2.208 1.824l-.384-.576q3.456-3.264 5.76-7.2 1.536-2.592 2.112-5.76t.576-6.144q0-1.728-.576-3.36-.576-1.728-1.728-2.976a7.55 7.55 0 0 0-2.592-2.112q-1.44-.864-3.264-.864-2.496 0-4.032 1.056T2.4 8.448q0 1.056.384 2.208.48 1.152 1.536 1.632h.768q1.344 0 2.112-.576t1.728-1.536v2.016a15 15 0 0 0-.672.48 4 4 0 0 0-.576.48 5 5 0 0 1-.48.288q-.768.576-1.632.576-2.208 0-3.264-1.344-1.056-1.44-1.056-3.552 0-1.44.096-2.112.192-.768.576-1.248.384-.576.96-1.056.672-.48 1.632-1.536h.672l1.152-.192a8 8 0 0 1 1.152-.096q.576-.096.864-.096h.672q1.44 0 2.496.768 1.152.672 2.112.672h.096q1.248-2.304 3.36-2.976a18.6 18.6 0 0 1 4.704-.96q9.312.096 18.432-.096T58.656 0H60q1.056 0 2.112.096h3.552q.672.096 1.536.48.96.384 1.728.96a4.5 4.5 0 0 1 1.44 1.248q.576.672.576 1.536 0 1.056-.864 1.536a3.85 3.85 0 0 1-1.632.576q-.384 0-1.632.096h-1.44l-.288.288-2.688 3.936q-.192 0-.192.192v.096q0 .096.192.096.096 0 .096.096l7.584 1.056h.384q.384 0 .48-.096.096-.288.384-.96l.768-1.536.672-1.344q.384-.672.576-.96a14.9 14.9 0 0 1 2.976-3.936q1.824-1.824 4.32-1.824 2.784 0 4.512 2.016 1.824 2.016 1.824 4.8v.96q-.384 1.632-2.112 2.976T81.6 13.728q-.768 0-1.92-.672-1.152-.768-1.152-1.536V8.448q0-.192.096-.288v-.096q.096-.096.096-.192a3 3 0 0 0 .288-.384q.288-.288.48-.384H79.2q-.768 0-1.632.864-.768.864-.96 1.632v2.208q0 1.824.192 3.648.192 1.728.864 3.36l.384 1.152q.288.768.576 1.632.384.864.672 1.632.288.672.384.864.288.672.96 2.304a177 177 0 0 1 1.632 3.36q.864 1.728 1.632 3.36l1.056 2.112a58 58 0 0 1 1.536 4.416q.864 2.4.864 4.704v9.408q0 .192-.192.672-.096.48-.192.768l-.288 1.152q-.192.768-.288.768l-3.072 6.624a4 4 0 0 0-.192.48v.384l-.096.096q0 .48.288.864a.91.91 0 0 1 .384.768h-.096q-.48-.288-1.344-.672-.768-.48-1.536-.48-.672 0-1.248.384t-1.248.384h-.096q.192-.864.96-1.44a134 134 0 0 0 3.936-4.608q1.728-2.112 2.688-5.472.096-.192.192-.864.096-.768.192-.96.096-.384.192-1.056.096-.768.096-.96v-7.584q0-.192-.192-1.056-.096-.96-.192-1.344a27 27 0 0 0-.576-1.92 37 37 0 0 0-.672-2.016L78.336 23.04a39 39 0 0 1-1.92-5.664 28.3 28.3 0 0 1-.672-6.048q0-.96.288-2.112.384-1.152.96-2.112.672-1.056 1.632-1.632a3.6 3.6 0 0 1 2.112-.672q1.44 0 2.4.864.96.768.96 2.4v.096q-.384-.192-1.056-.864-.672-.768-.864-.768H80.16q-.192 0-.288 1.056-.096.96-.096 1.344 0 1.152.864 1.92.96.672 2.112.672.288 0 .672-.192l.96-.576q.48-.288.768-.672.384-.384.384-.672V5.952q0-.864-.576-1.44a2.9 2.9 0 0 0-1.248-.864 4.8 4.8 0 0 0-1.632-.48 6 6 0 0 0-1.44-.192q-2.4 0-3.936 1.44-1.44 1.344-2.304 3.36a16 16 0 0 0-1.152 4.32 31 31 0 0 0-.288 4.032q0 1.44.096 3.072a29 29 0 0 0 .384 3.168q.384 1.536.96 2.976a9.2 9.2 0 0 0 1.728 2.4l5.568 5.952.576.768q.576.768.864 1.056 0 .096.096.192l.192.192q0 .096-.192.192-.096 0-.096.096h-.096q-.192 0-.48-.384a22 22 0 0 1-.672-.96 6 6 0 0 0-.672-1.056q-.288-.576-.576-.864a17.7 17.7 0 0 0-4.224-3.264 10.44 10.44 0 0 0-5.184-1.344q-1.92 0-3.84.576a13.8 13.8 0 0 0-3.552 1.632 12.3 12.3 0 0 0-2.88 2.592 11 11 0 0 0-1.728 3.456 4.2 4.2 0 0 0-.384 1.728v3.36q.096.768.384 1.632.672 2.4 2.976 4.224 2.4 1.824 4.992 1.824a6.9 6.9 0 0 0 2.496-.48q1.344-.576 2.304-1.44a6.1 6.1 0 0 0 1.632-2.016q.672-1.152.672-2.496 0-1.632-.96-2.688a86 86 0 0 1-2.016-2.304v-.192q1.824.192 2.688 1.824t.864 3.264a6.4 6.4 0 0 1-.768 3.072 7.9 7.9 0 0 1-1.824 2.496 9.7 9.7 0 0 1-2.688 1.728 7 7 0 0 1-2.976.672q-2.208 0-4.224-.864-.576-.288-1.728-.96-1.056-.672-1.536-.672-.384 0-.48.48a3 3 0 0 1-.192.576v1.152q.096.768.096 1.728 0 .864-.096 1.728v1.056q0 1.824-.864 3.168-.768 1.248-2.688 1.44 0 .096-.096.288v.192q0 .384.192.48.192.192.864.576.768.288.96.384h-4.896l-.288.288q-.096.096-.576.384t-1.056.576l-.96.576q-.48.288-.576.384-1.92 1.344-2.688 3.36a13.3 13.3 0 0 0-.672 4.224q0 2.592 1.728 4.608t4.512 2.016q1.44 0 2.592-.672a11 11 0 0 0 2.208-1.728q.192-.192.288-.576.192-.288.192-.576v-2.304q0-.096-.096-.192v-.192q-1.248-2.784-4.608-2.784-1.056 0-1.632.192-.48.288-1.056 1.248.672.192 1.344.192t1.248.096q.576.192.96.576.384.48.384 1.344 0 1.056-.864 1.824-.768.864-1.824.864-1.824 0-2.4-.96-.576-.864-.576-2.496v-1.152q.384-1.344 1.44-2.496 1.056-1.056 2.592-1.056 3.072 0 4.704 1.632 1.728 1.728 1.728 4.8v1.344q-.672 2.4-2.976 3.552-2.304 1.248-4.608 1.248-.48 0-.864-.288a2.4 2.4 0 0 1-.576-.288q-.096 0-.192.096t-.192.096-.096.096q-.192.096-.672.48-.48.48-1.056.96a7.6 7.6 0 0 1-1.152.96l-.576.576q-.096.096-.192.096t-.192.096h-.288l-4.128-2.976q-.192-.192-.384-.192zm-18.432.48q0-.96.384-2.592.48-1.632 1.632-2.016v.096q0 .768-.384 1.44l-.576 1.344q-.096.096-.096.192-.096.096-.096.192v.096q0 .384-.096 1.536v1.536a1.5 1.5 0 0 1-.384-.288 1.5 1.5 0 0 1-.384-.288zm40.128 1.056q0-.288.288-.864.288-.48.384-.48a.92.92 0 0 0 .288-.672q.192-.48.384-1.152t.192-.768V72.48h.96v4.032l-.192.384q-.192.384-.192.672a7 7 0 0 0-.288.768q-.192.672-.192.768l-.48.96q-.288.576-.576 1.056-.096 0-.096.096l-.096.096q-.384 0-.384-.384M41.664 79.2q.576.384 1.344.96.864.576 1.632.576.96 0 1.248-.48t.48-1.344q.384.384.672.384t.288-.288v-.096L44.16 75.36h-.192q-.48.672-.864 1.344l-.768 1.152q-.288.672-.48 1.056l-.192.192zm3.456-2.304V79.2h-.384v-2.304zM16.8 75.744q0-.192.192-.384.864-1.344 1.92-2.976 1.056-1.536 2.496-2.496v.192q-.096 0-.096.096 0 .192-.096.192l-3.552 5.376-.384.384-.288-.288q-.096-.096-.192-.096m33.216-3.168a.85.85 0 0 1-.384.096.7.7 0 0 0-.288.096.85.85 0 0 1-.384.096v.576q.384 0 .768-.096.384 0 .864-.096a4 4 0 0 1-.192-.48q0-.192-.288-.192zM67.2 66.24q-1.632-2.016-3.936-2.88a5 5 0 0 1-.576-.096q-.48-.192-1.056-.384a9 9 0 0 0-1.056-.288q-.48-.192-.576-.288-.48-.192-1.344-.48-.864-.384-1.056-.768h.192l7.68 2.688.096.096q.288 0 .576-.288a14.5 14.5 0 0 0 1.824-2.208 4.2 4.2 0 0 0 .864-2.592q0-.768-.576-1.056-.576-.384-.576-.96t.288-.96l2.112-2.4q.384.192.384.576-.192.384-.672.576-.384.096-.384.672 0 .672.384 1.152.384.384.576.864t.192.864v.768q0 1.536-.48 2.592a5.4 5.4 0 0 1-1.344 1.824q-.864.768-.864 2.112.576 0 1.248-.48t1.152-1.152q.576-.768.96-1.44.384-.768.576-1.248.192-.384.192-.576v-1.344a5.2 5.2 0 0 0-.192-1.44 10 10 0 0 1-.096-1.44v-.384q.576.48.864 1.44t.288 1.632q0 1.92-.96 3.456a77 77 0 0 1-1.824 3.072 1.7 1.7 0 0 0-.192.768 4.1 4.1 0 0 0 1.728-1.056 7.6 7.6 0 0 0 1.248-1.92q.576-1.152.768-2.304.288-1.152.288-2.112 0-.672-.096-1.248a8 8 0 0 1-.096-1.344v-.384q.768.672.96 1.824t.192 1.92q0 1.056-.384 2.016a7 7 0 0 1-.768 1.728l-3.36 5.088-.096.288v.192q.096.192.192.288l.192.192q.096.192.672.768l.48.48h.864q.288-.192.672-.384.288-.192.48-.288.288-.096.48-.192l2.304-1.344a5.5 5.5 0 0 1 2.496-.576q1.344 0 2.496.48 1.152.576 2.496.768v2.016l-.48.576-.384-.192a2.2 2.2 0 0 1-.576-.384q-.768-.48-1.44-.768-.576-.288-1.536-.288-1.632 0-3.648.768t-2.688 2.4l-.96-.96zm-5.184 4.128q0-.192.288-1.152.384-.864.576-.864h4.032v.768H65.76q-.768.096-.96.096-.096.096-.384.096-.192 0-.288.096t-.192.096l-.192.192a1.1 1.1 0 0 0-.288.192v1.056l-.096.096q0 .096-.096.096-.096.096-.288.096-.096 0-.192.096-.192 0-.48-.384-.288-.288-.288-.576m-48.096-.576h.576l-.192-.384zm69.408-1.632q.096 0 .096-.288.192-.384.192-1.152h.48v2.016q-.192 0-.48-.192a1.5 1.5 0 0 1-.288-.384m-48-3.264q-.672.48-1.44.384-.768-.192-1.536.192-.288.096-.672.288a1.9 1.9 0 0 1-.864.192h-.192q.672-.96 1.92-1.248 1.344-.384 2.4-.384 1.536 0 3.264 1.056 1.824.96 2.496 2.304 0 .192-.192.192a1.1 1.1 0 0 0-.288.192q-.576-1.44-2.112-2.016a32 32 0 0 0-2.784-1.152m27.648.576q.576 0 1.152.384.672.384.672 1.056v.192q-.192 0-.96.096t-.96.096q-.48.096-.864.384a1.4 1.4 0 0 1-.864.288v-1.536l.096-.096h.096q0-.096.096-.096.192-.192.672-.384.48-.288.672-.384zM5.088 63.744l-3.456-7.968-.096-.192v-.192a42 42 0 0 1-1.152-5.664A46.5 46.5 0 0 1 0 43.776q0-3.552.96-6.624 1.056-3.072 2.592-5.856 1.536-2.88 3.168-5.664a52 52 0 0 0 3.072-5.952 23.4 23.4 0 0 0 1.248-3.552q.576-1.92.576-3.84 0-1.056-.384-1.92-.288-.96-1.44-1.44-.096 0-.576-.096-.384-.096-.48-.192-.096 0-.192-.096L6.912 5.952h.192q1.44 0 2.4.672a4.7 4.7 0 0 1 1.632 1.728q.576.96.768 2.304.288 1.248.288 2.4a17.7 17.7 0 0 1-2.208 8.64l-5.088 9.792a26 26 0 0 0-1.44 2.976 15 15 0 0 0-.768 3.264l-.864 8.832a.7.7 0 0 0-.096.288v.384q0 2.208.672 4.416.768 2.208.768 4.416h.096l5.952 8.832.096.096h-.096q0 .096-.096.096h-.192q-.48.096-1.152.288-.576.096-1.248.288-.576.096-1.056.192l-.48.096h-.48q.096-.48.288-.864.288-.48.288-.96zm54.144 1.344q-.192-.672.576-.864.864-.192 1.248-.192.288 0 .384.096l-1.728 1.824h-.096q-.096 0-.288-.288a2.6 2.6 0 0 1-.096-.576m-19.488-4.224 3.936 4.128q.096 0 .288.192t.192.288h.192l2.016-2.016q.96-.96 2.016-1.92.192-.288.384-.48.192-.288.192-.672 0-.768-.48-1.152a2.6 2.6 0 0 0-1.152-.672 5.3 5.3 0 0 0-1.44-.384 9 9 0 0 0-1.248-.096q-.576 0-1.44.096a8.5 8.5 0 0 0-1.632.384q-.768.288-1.344.768-.48.48-.48 1.248zM13.728 63.36a4 4 0 0 0-.192.48q0 .288-.096.48v.288H12q.096-.096.192-.096l.192-.192q.096-.096.288-.192l.384-.384.384-.384zm13.92.384q-.192.288-.576.576-.288.288-.48.288h-.096zm-13.44-5.952.384-1.152q.288-.672.768-1.152v.192q0 .096-.096.768a7 7 0 0 0-.096.672q0 .096-.096.96v2.304q0 .384.096.672l.672 2.496h-.096q-.384 0-.768-.768-.384-.864-.48-1.152a3 3 0 0 1-.192-.576 5 5 0 0 1-.096-.576zm-2.016 5.28h-2.016v-.768q0-.096.864-.192.864-.192 1.152-.192zm-.96-3.168h.192q-.192.48-.48 1.056-.192.576-.96.576-.384 0-.768-.096-.288-.192-.288-.768zm39.36-1.44q0 .096-.096.096h-.288q-.096.096-.192.096t-.192.096a.7.7 0 0 1-.288.096v.192q.192.288.384.672.288.576.672 1.152.096.192.288.192h.096a7 7 0 0 1 .768-.288q.672-.192.864-.192a.93.93 0 0 0-.48-.384l-.576-.384q-.192-.192-.576-.768-.288-.576-.384-.576m-19.104 2.4q-.288.288-.768 0-.096-.096.288-.096.48 0 .48.096M45.6 59.136q.384 0 .48.288.096.192.288.48h-4.032v-.288q0-.096.192-.096.288-.096.48-.192.48 0 1.152-.096t1.44-.096M6.624 57.888q.096.096.48.192.48.096.576.096h.096l1.92-.672v1.632q-.096.096-.288.096-.096.096-.288.096h-.096q-.48.192-.576.288H7.104q-.48-.192-.576-.672a6.5 6.5 0 0 1-.096-1.056zm26.496 1.248q-.192 0-.192.096t.192.096.192-.096-.192-.096m38.112-5.76 3.264-.768q.288-.096.864-.672l1.152-1.344q.576-.768 1.056-1.44.48-.768.672-1.056.576-1.056.96-2.016t.384-2.016q0-1.92-.864-3.552a7.76 7.76 0 0 0-2.208-2.784 9.6 9.6 0 0 0-3.072-1.92 9.7 9.7 0 0 0-3.552-.672h-1.152q-.48-.096-1.056.096-.864.192-1.824.768-.864.48-1.632 1.248a5.3 5.3 0 0 0-1.248 1.632q-.48.864-.48 1.728 0 1.44.768 2.88.864 1.344 2.4 1.728v-.096q-.48-.864-.864-1.536t-.384-1.728q0-2.784 2.016-3.648t4.512-.864v.48h-2.496q-.096.096-.288.192a.63.63 0 0 0-.288.288l-.192.192q-.192.192-.672.576-.384.384-.48.576-.096.096-.096.192l-.096.096q-.096.096-.096.192v2.304q0 .384.384.672l.96.576q.576.192 1.056.288.576.096.864.096h.192q.192-.384.864-1.344.768-.96.96-1.152l.192-.192v.384q0 4.512-4.512 4.512-2.4 0-4.032-1.824t-1.632-4.224q0-1.056.672-2.208.672-1.248 1.632-2.304 1.056-1.056 2.208-1.728t2.208-.672h4.416q1.248 0 2.496.864a11.8 11.8 0 0 1 2.496 1.92q1.248 1.152 2.112 2.496.96 1.248 1.44 2.208 0 .192.096.48l.192.576q.096.384.288.672v5.28h.96v-4.8a5.2 5.2 0 0 0-.192-1.44 30 30 0 0 0-.384-1.248q-1.248-3.264-4.128-5.856-2.784-2.592-6.432-2.592-1.44 0-2.88.288a8.2 8.2 0 0 0-2.592 1.056q-.672.384-1.536.96-.768.576-1.536.768l-.192.096-.096-.096q1.344-1.92 3.36-2.688a11.3 11.3 0 0 1 4.32-.864q3.168 0 5.664 1.248 2.592 1.152 4.32 3.168 1.824 2.016 2.688 4.704.96 2.688.96 5.664v1.728q0 .192-.192 1.536-.096 1.248-.288 1.824 0 .192-.096.768 0 .576-.096.768l-.192.576a1.1 1.1 0 0 0-.096.48v.384q-.096.288-.384.864-.192.48-.48 1.056a6 6 0 0 1-.672 1.056q-.288.384-.672.384 0-1.152.576-2.4a6.3 6.3 0 0 0 .576-2.688q0-2.592-1.824-4.128h-.096q-.48 0-.96.768-.384.768-.48 1.056-.192.192-.48.672-.192.48-.288.576-.192.384-.384 1.152t-.192.96v3.936h-1.248q-.48-2.496-1.632-3.264-1.056-.864-3.552-.672zM35.04 57.408h18.336q.96 0 1.536-.48.672-.576.96-1.344a4.8 4.8 0 0 0 .48-1.632q.192-.864.288-1.632l.192-.096.384 1.536.096.192q.576-.864.672-2.112t.096-2.304v-1.248q0-.768-.48-1.056h-.864q-.48 0-1.248.096a5.3 5.3 0 0 0-1.344.384 3.6 3.6 0 0 0-1.152.768q-.48.48-.48 1.152V52.8q0 .384.192.576.288.192.48.576h-4.8q0-.672.48-.864.576-.288.576-.768 0-1.824-1.344-2.688a29 29 0 0 0-2.496-1.728l-.192-.096.576-.384 4.416 2.784 3.168-3.36-4.608-9.888q0-.192-.384-.192-.672 0-1.248.096t-1.248.288l.288 1.056h-7.104a6 6 0 0 0-.384.672l-.384.576a5 5 0 0 0-.288.48l-.096.192v.096q0 .192.768.288.864.096 1.056.288l-.672.288.288.576q.288.384.48.384h3.648l1.056-.288v.864H38.88v.576q.096.288.096.576h-.96q-.192 0-.96-.192.48 0 1.056-.192v-.288q-.096-.096-.192-.384t-.192-.384l-.288.288a.63.63 0 0 0-.288.288q-.288.192-.96 1.056t-.864 1.152q0 .096.288.096.864 0 1.728-.096a16 16 0 0 1 1.728-.096h1.152q.192 0 .768.096.672 0 1.344.096t1.248.192q.672.096.96.096l.096.096.48.96q.288.576.288.672v.192q-.288 0-.576-.096a2.1 2.1 0 0 0-.672-.096q-.576 0-1.44.48a7.3 7.3 0 0 0-1.536 1.056q-.768.576-1.344 1.152t-.576.864v1.824q0 .096.096.096.096.096.192.096.576.48.96.768.48.192.672.96-.384.096-1.824.192h-3.552q.288-1.056.96-1.632t.672-1.632q0-1.92-1.632-3.36-1.536-1.44-3.456-1.44-.192 0-.288.288l-2.784 8.832v.48q.48-.192 1.248-.192.576 0 .864.288.288.192.576.768zm22.272-1.152h.096V55.2h-.096zm-25.536-2.208q0-1.92 1.152-3.168v-2.304l-.288-.384.096-.096q.096-.192.192-.192.192 0 .192-.096.192.096.192.384a.85.85 0 0 1 .096.384v2.88q0 .672-.384 1.248-.288.576-.288 1.248 0 .48.288.864a.91.91 0 0 1 .384.768q-.864 0-1.248-.288t-.384-1.248m12.096-.48v-2.496q.192.192.48.288t.384.288v1.248q.096.96.096 1.152.096.096.192.48t.096.48v.192h-2.016zM5.28 50.976q0-3.552 1.056-7.008.096-.192.288-.192h.096l.288.288q.192.192.192.288a14.6 14.6 0 0 1 1.152-3.84 13.3 13.3 0 0 1 2.208-3.552 11.5 11.5 0 0 1 3.264-2.592 7.7 7.7 0 0 1 3.936-1.056q1.152 0 2.496.192t2.4 1.248l.768.768q.576.48.672.672.576.768.576 1.344.096.48.96.48 0-.48-.096-.864a3.6 3.6 0 0 1-.096-.864v-.096q.864.576.96 1.824.192 1.248.192 2.112 0 1.536-.768 3.264-.768 1.632-2.4 2.112 0-.288.288-.864.384-.672.48-1.056.288-.864.288-2.016 0-2.592-1.824-4.32T18.24 35.52q-2.88 0-4.896 1.152-1.92 1.152-3.264 3.072-1.248 1.824-2.016 4.224-.672 2.4-1.056 4.896a16 16 0 0 0-.288 2.976q.096 1.44-.288 2.88-.768-.768-.96-1.728a10.3 10.3 0 0 1-.192-2.016m7.68 2.112-2.016 1.632v-.384q0-.768.384-.96.384-.288 1.152-.288zm-1.536-.096q.096 0 .096.192 0 .096-.096.096-.192 0-.192-.096 0-.192.192-.192m-2.88-4.608q.96.768 1.824 1.92.96 1.056.96 2.4-.096 0-.096.096v.192l-.096-.192q-.096 0-.864-1.248a28 28 0 0 1-1.152-2.016l-.288-.576zm26.592 1.632q.096-.096.192-.096v2.304q0 .288-.384.48a1.6 1.6 0 0 1-.48.096h-.096v-.288a.7.7 0 0 0 .096-.288q.096-.288.288-1.056zM12.96 42.528q.192 3.072 1.824 5.184 1.728 2.112 4.992 2.112 2.496 0 4.8-1.248a9.1 9.1 0 0 0 3.744-3.552q.288-.576.576-1.248.384-.672.384-1.344V37.92q0-.864-.768-1.824-.672-1.056-.672-1.632l.192-.192q.096 0 .192-.096l.096.096q.096 0 .384.768a8.5 8.5 0 0 1 .384 1.248q.096.192.288.864.192.576.288.768.192.384.192.576v4.224q0 .672-.288 1.44a34 34 0 0 1-.576 1.44 10.8 10.8 0 0 1-3.456 4.32q-2.208 1.632-5.088 1.632-4.128 0-6.048-2.592t-1.92-6.432zm24.288 6.048q0 .384.288.864.384.384.768.384t.672-.288A68 68 0 0 1 41.472 48q1.248-.672 2.208-2.016h-7.392q.192.384-.096.768-.288.288-.672.192v.096h5.664v.384q-.288 0-1.152.096t-1.056.192q-.288 0-1.056.192-.672.096-.672.672m-17.856-.48q-.096-.192.288-.192.48 0 .384.192zm-.384-.672v.48H17.76v-.48zm26.592 0q-.192 0-.192.192 0 .096.192.096.096 0 .096-.096 0-.192-.096-.192m5.376-8.256q0 .768.288 1.44t.576 1.248q.192.48.576 1.248l.96 1.536q.48.864.96 1.824l.096.096h2.976q0-.96-.384-1.728a19 19 0 0 1-.672-1.728 6.2 6.2 0 0 1-.48-2.4q0-1.248-.096-2.4H51.84q-.864 0-.864.864M16.32 46.272v.192l-.096-.192zm1.44-4.512q.096 1.344.48 1.92.384.48 1.728.48t1.92-.768q.672-.768.672-1.92 0-2.208-1.44-2.784-1.44-.672-3.36-.96.48-.576 1.536-.576.96 0 1.728.576.768.48 1.248 1.344.576.768.864 1.728.288.864.384 1.728l.576.576q.096.096-.192.48-.192.288-.576.672a7 7 0 0 1-.672.768l-.384.384q.288.096.384.288.192.096.384.288l-.768.192a3.2 3.2 0 0 1-.768.096q-1.92 0-3.264-1.248-1.344-1.344-1.344-3.264zm33.6 3.648v-.096q.192 0 .192.288v.672h-.48a2.6 2.6 0 0 0-.576-.096q0-.096-.096-.096-.192 0-.192-.096zm-36.864-2.88q.288-.384.576-.672l.768-.768v.096a4 4 0 0 0-.192.48q-.096.288-.096.384v2.784l.288.288-.48.384q-.384-.192-.672-1.152-.192-.96-.192-1.44zm31.104 1.44v.384h-2.016v-.384zm4.8-.576v.96h-1.632v-.576zm-11.232.384q.096 0 .096.192 0 .096-.096.096-.192 0-.192-.096 0-.192.192-.192M10.944 34.56q0 .096-.096.192-1.056.768-1.824 2.112-.768 1.248-1.44 2.304-.48.672-.672 1.44-.096.672-.288 1.44-.096.192-.288.192a.7.7 0 0 0-.288-.096h-.48q.384-1.152.768-2.208a10.8 10.8 0 0 1 1.248-2.208q0-.096.288-.48.384-.384.768-.864.48-.576.864-1.056t.672-.768q.384 0 .384-.384zm3.072 4.8.576.384v.096q0 .288-.576.864-.576.48-.576 1.44h-.768zm54.912 1.632.096.096v.096l-.096-.096zm-22.56-.384v.384h-5.664v-.384zm-6.624-1.44.192.96h-.96q0-.192.192-.576.288-.384.576-.576zm-14.112 0h.48v-.48h-.48zm-10.752-.48q.192-.384.768-.48a5 5 0 0 0 1.152-.288l-.768.768q-.576.48-.768.48-.096 0-.288-.192a.7.7 0 0 1-.096-.288M48 37.344v.384h-1.248v-.384zm-7.968.384h.672v-1.056h-.672zm2.4-.96q-.384 0-.576.48h1.056l-.192-.192a1.1 1.1 0 0 0-.192-.288zM6.048 35.52l-1.056 1.056h-.096q.192-.672.288-.864.096-.288.864-.384zm29.76-2.304q0 .096-.288.288-.192.192-.192.288-.192.192-.864.96-.576.672-.768.864h21.216q0-.384-.48-1.056l-.576-1.152-.48.672-1.536-1.536q-.096-.096-.288-.096-.48 0-.576-.096h-3.84q-.672.192-1.056.96a3.8 3.8 0 0 1-.96 1.248v-.096q0-.096-.096-.192 0-.192-.192-.768-.096-.576-.096-.768l-1.632.672v-1.056h-2.208q-.48 0-.864.384l-.672.672q-.096.288-.48 1.056-.384.672-.576.864h-2.016q.384-.48.864-.672.576-.288.96-.768 0-.192.096-.672.192-.48.288-.672v-.192h-1.152q.48 0 .48.192v.096q0 .48-.48 1.056-.384.48-.864.48h-.288q0-.096-.096-.384-.096-.384-.192-.48zm0 1.344v.768h-.768v-.768zm19.872-.288q0 .384.48.672t.768.288h.096q-.096-.096-.192-.384v-.768h.96v-.672q-.48 0-1.344.096-.768 0-.768.768m-13.728-1.728q0 .096-.096.096v.192l-1.152 1.728v-.48q0-.576.192-1.056.288-.48.96-.48zm.768.864q.192.672 0 1.152-.096.192-.096-.48 0-.768.096-.672m-19.584.48h-.096v-.096zm-16.128-.576q.096 0 .096.096v.288l-.192-.384zm45.504-1.44q.096.192.288.48.192.192.288.48.096.192.288.288 0 .096.192.096.096 0 .096.096v-.096a4 4 0 0 1-.192-.48 1.5 1.5 0 0 0-.288-.384l-.192-.384q-.096-.096-.096-.192-.096-.096-.096-.192zm5.952.48h.576l-.576-.768zm-25.536-1.536h1.632q1.248 0 2.496.096h5.088q.768 0 1.728.096h5.952a8 8 0 0 1 1.152-.096h.576l7.296-.768.384-.096q-.192-.288-.768-.48a4 4 0 0 0-1.248-.192 9.5 9.5 0 0 0-1.344-.096h-.96q-1.44 0-2.88.096h-2.88v-.48H60.48v.768a9.8 9.8 0 0 0 2.592-.96q1.248-.672 2.304-1.632 1.152-.96 2.112-1.92a53 53 0 0 1 2.016-1.92q.096 0 .192-.096.192-.192.192-.384l1.344-2.208v-3.552q0-1.056-.288-1.824a2.06 2.06 0 0 0-.96-1.344q-.672-.576-2.112-.768L58.464 12H50.4q-.192 0-.96.096t-1.632.192-1.632.192-.96.096h-2.112q-3.456 0-6.912-.096-3.36-.192-6.816-.192h-4.512q-.864 0-2.112.192-1.152.096-2.4.48a8.2 8.2 0 0 0-2.112 1.056 2.75 2.75 0 0 0-1.056 1.728V16.8q0 1.824.48 3.168a18 18 0 0 0 1.344 2.4 57 57 0 0 0 1.824 2.304 27 27 0 0 1 2.112 2.4l.096.288-.576.288q-.288.096-.288.384t.096.384q.192.096.384.288 0 .096.192.096h.096v-.96h.48q.096-.096.192-.096 1.056.096 1.44 1.152 1.824.576 3.84 1.248 2.112.576 4.032.672m2.4-1.92v.48H30.24v-.48zm31.2-.96h.096q.192 0 .48-.096.384-.096.48-.192h5.472l-1.824-5.472-1.152.576.288.48-3.552 4.224zM34.56 27.36v.384h-6.336v-.384zm14.016-.096.192-.096.192-.192h.192l.288.288h2.496v.48h-5.568v-.48zm13.824.096v.384h-9.6v-.384zm15.744-.576q.096 0 .096.192 0 .096-.096.096-.192 0-.192-.096 0-.192.192-.192m-3.552-15.168v6.048q0 .096.192 1.056t.384 1.44q.48 1.728 1.152 3.36.768 1.536 1.632 3.168v.096h-.192q-.096 0-.384-.192l-.48-.48q-.48-.48-1.056-1.344-.48-.96-.864-2.016a42 42 0 0 1-.672-2.208q-.192-1.056-.192-1.728v-7.2zM61.44 26.304H42.912q-9.12 0-18.336-.192v-.768h1.728q1.44 0 4.416.096 2.976 0 6.72.096 3.744 0 7.872.096 4.224 0 7.968.096h11.136q-.288.864-1.248.864a4.5 4.5 0 0 1-.864-.096 19 19 0 0 0-.864-.192m-5.856-2.208h11.232q0 .672-.384.864h-1.824q-.48-.096-1.056-.192l-1.152-.192a7 7 0 0 0-.672-.096h-6.144zm11.04-2.112a10.7 10.7 0 0 1 2.4-.288q0 .192-.096.672 0 .384-.48.192a44 44 0 0 1-4.992.48h-4.8q0-.576.576-.576zm-43.2.192q1.152-.096 2.208-.288a14 14 0 0 1 2.304-.192q.672 0 1.248.192.576.096 1.248.192h7.488v.48H23.424zm36.384-1.536q0 .096-.096.096v.288q-.096 0-.096-.096zm2.208-.192q.384 0 1.344-.096t2.016-.096a26 26 0 0 1 2.112-.096q.96-.096 1.344-.096h1.248l-.288.576q-.192.288-.48.288H61.44q0-.192.096-.384.192-.192.48-.096M34.56 20.16v.48H21.696a3 3 0 0 0-.576.192h-.576q-.672 0-1.152-.672zm20.256-1.44q0-.384.192-.288a236 236 0 0 1 13.44-.384h1.632q-1.632 1.056-3.648 1.056h-9.504a9.5 9.5 0 0 0-1.344-.096h-.768zm-35.424-.096v.384H18.24v-.384zm2.016-.48h9.6v.48h-5.952l-1.248.384-2.4-.384zm17.76-2.112H70.08v.864H45.12l-5.952-.288zm-16.512 0v.384h-2.4v-.384zm12.672 0v.384H24.192v-.384zm-17.088.288q-.096-.096.288-.096.48 0 .384.096zm2.4-1.536q.192-.384.672-.576t.864-.192h12.096v.288q0 .192-.192.288-.864.192-1.632.288t-1.536.096q-.576 0-.96-.096-.288-.096-.96-.288l-2.304.288h-5.472zm16.032-.768v.384H35.04v-.384zm-19.68-.96 5.952-1.44v-.096q0-.192-.288-.576-.192-.48-.384-.672-.96-1.728-2.88-1.92a23 23 0 0 0-3.552-.288v.192zm5.952-5.664q0 .096.096.192 0 .096.096.192.192.288.576.768.384.384.768.864t.672.96l.48.48q0 .096.192.288.096.096.288.192.096-.096.192-.096.288 0 .288-.096h34.56q.384-1.344 1.248-2.304a7.3 7.3 0 0 0 1.44-2.304h-8.448q-2.88-.096-6.048-.096h-5.952a149 149 0 0 0-5.088-.096 83 83 0 0 0-3.264-.096H24q0 .48-.384.672-.384.096-.672.288l-.096.096zM60.384 9.6q.192 0 .192.192 0 .096-.192.096t-.192-.096q0-.192.192-.192m-18.24-.192q.192 0 .48-.192.384-.192.48-.288h.192q.096-.096.288-.096h.096q.192.096.576.192t.48.096h4.416v.48h-6.144q-.672-.096-.864-.192m14.688-.192V9.6h-7.296v-.384zm3.36.384q0 .096-.096.096T60 9.6q-.096-.096 0-.096.192 0 .192.096m-.384-.192q-.192.192-.192 0zm-31.584-.576-.768.192q.192-.192.576-.192zM4.704 7.776 5.76 6.72h.192l-.96 1.44q0-.096-.192-.096-.096-.096-.096-.192zM25.056 7.2h36.576q-.192.384-1.056.48-.768 0-.96.096-.48 0-1.248.096-.768 0-1.632.096h-3.264q-.672 0-1.632.096h-7.2a18 18 0 0 0-1.824-.096h-4.224q-2.4-.096-5.088-.096-2.688-.096-5.088-.192t-3.36-.096zM21.6 6.72h.48v-.576h-.48zm-5.28-1.728q.192.48.96.48h.384a7 7 0 0 0 .288-.768q.288-.672.48-.768.192-.192.672-.96.576-.768.672-.96.096 0 .096-.096t.096-.192q-1.056.192-2.4.96-1.248.768-1.248 1.92zm6.336-.288q0 .768.96.768.576 0 1.152-.384a4.2 4.2 0 0 0 1.152-.96q.48-.576.768-1.248.384-.672.384-1.152h-.192L24 4.032l1.152-2.112-.096-.096q-.864 0-1.632 1.056t-.768 1.824m17.28.288q.288 0 .864.096l1.344.192q.672.096 1.248.192h3.744q.288 0 .96-.768t.48-1.152L48 2.112v-.096q.864 0 1.632.768a48 48 0 0 0 1.536 1.152q.768.48 1.824 1.056 1.152.48 2.208.48.48 0 .96-.48.48-.576.48-.96 0-1.344-1.344-1.92-1.344-.672-2.4-.768h-1.92a41 41 0 0 0-2.88-.096h-2.784a31 31 0 0 0-1.92-.096h-5.28a5 5 0 0 0-.576.096q-.48 0-1.056.096l-1.152.192a6 6 0 0 1-.864.096q-.768.096-1.248.864t-.48 1.536q0 .384.384.672t.768.288h2.4q.288 0 .48-.48.288-.48.672-.96.384-.576.96-1.056t1.536-.48h.384q-.48.576-.768.96-.288.288-.288.96 0 .48.192.672t.48.384M23.424 1.344q-.288 0-.768.192-.48.096-.768.192-1.248.576-1.632 1.344-.384.672-.384 2.016.384 0 .864.096.576 0 .864-.48 0-.192.192-.672.288-.576.288-.672.288-.576.768-.96.48-.48.672-1.056zm4.128 2.304q0 1.44 1.44 1.44.96 0 1.728-.96.192-.096.864-.96.768-.96 1.056-1.44 0-.096.288-.384h-.96q-.576 0-1.344.096-.768 0-1.44.288a2.6 2.6 0 0 0-1.152.672q-.48.384-.48 1.248m29.472-2.304q0 .48.288 1.056t.672 1.152q.48.576.864.96.48.384.864.48.096 0 .48.096h1.632q.864-.096.864-.576 0-.384-.384-.864a4 4 0 0 0-.768-1.056 3.3 3.3 0 0 0-1.056-.864q-.48-.384-.864-.384zm5.184 0q.576.864 1.44 1.92.96 1.056 2.112 1.056.864 0 .864-.768 0-.288-.096-.48V2.4q.672.576 1.056 1.056.48.48 1.248.48h.384q.288-.096.288-.384v-.096q-.576-.576-1.248-1.152-.576-.576-1.344-.576-.384 0-.672.096a1.8 1.8 0 0 1-.576.096h-.192q-.192 0-.672-.096a13 13 0 0 0-.96-.192l-.96-.192q-.384-.096-.48-.096z"/></svg>