<svg xmlns="http://www.w3.org/2000/svg" width="648" height="1220" fill="none" viewBox="0 0 648 1220"><g clip-path="url(#a)"><path fill="#a76f00" d="M647.006 392.734c.84-1.293 1.355-3.128 1.355-5.2s-.515-3.907-1.355-5.201v-52.571h.19l-.19-1.104v-.927h-.155l-30.332-177.452v-3.338h5.42v-23.699h-23.712v4.74H474.164l-9.309-105.63h3.293V15.58h6.775V8.81h3.387V0H170.051v8.803h3.387v6.77h6.775v6.772h4.648l-9.309 105.63H50.134v-4.74H26.422v23.699h5.42v3.338L1.517 327.724h-.156v.928l-.19 1.103h.19v52.572c-.84 1.293-1.355 3.128-1.355 5.2s.515 3.907 1.355 5.2v826.753h645.652V551.843h.108v-20.314h-.108V428.608h1.355v-14.897h-1.355v-20.984zM42.682 358.871v-4.739h109.754v28.195c-.84 1.293-1.355 3.128-1.355 5.2 0 .752.067 1.476.196 2.153H43.84c.129-.677.197-1.401.197-2.153 0-2.072-.515-3.907-1.355-5.2zm89.429-29.116H497.28v8.803H132.111zM28.454 125.266h19.648v19.637H28.454zM462.816 22.345l9.309 105.63h-11.558l-8.218-93.192-.082-.927H197.448l-5.081 57.643-.02.216-3.198 36.267h-11.565l9.309-105.63h275.909zm137.443 105.63v-2.709h19.648v19.637h-19.648zm-410.351 14.558.088-1.016 1.016-11.511h4.783v52.138h-2.71v10.157h2.71v14.219h-1.355v5.417h1.355v102.245h-21.016l15.041-170.633zm4.41-50.012c35.264-29.434 80.663-47.154 130.201-47.154A203.2 203.2 0 0 1 455.452 93.13l1.761 19.947H192.509l1.687-19.101.129-1.456zm130.201-49.186c-49.315 0-94.558 17.389-129.95 46.349l4.743-53.797h251.092l4.797 54.4C419.7 60.96 374.173 43.335 324.519 43.335M192.327 115.11h265.062l1.132 12.865h-4.6v-3.386h-18.293v3.386h-41.666v-3.386H375.67v3.386h-41.666v-3.386h-18.292v3.386h-41.666v-3.386h-18.292v3.386h-41.666v-3.386h-18.293v3.386h-4.6zm267.393 26.407.088 1.016.088 1.016 15.04 170.633h-21.015V211.937h1.355v-5.417h-1.355v-14.219h2.71v-10.157h-2.71v-52.138h4.783zm-141.976-11.511v-3.385h14.228v20.313h-2.033v1.016a5.081 5.081 0 0 1-10.162 0v-1.016h-2.033zm0 18.959h.082a7.104 7.104 0 0 0 14.064 0h.082v33.179h-14.228zm14.228 35.211h2.71v6.094h-19.648v-6.094zm-14.228 8.125h14.228v14.219h-14.228zm14.228 16.251h1.355v1.354h-16.938v-1.354zm-14.228 3.385h14.228v102.245h-14.228zm25.068 92.765v9.48h-8.808V211.937h1.355v-5.417h-1.355v-14.219h2.71v-10.157h-2.71v-52.138h41.666v18.959h2.114c.061.42.156.833.284 1.226-19.965 3.237-35.256 20.578-35.256 41.433v106.984h84.009V191.624c0-20.855-15.291-38.196-35.257-41.433.129-.393.224-.806.285-1.226h2.113v-18.959h41.666v52.138h-2.71v10.157h2.71v14.219h-1.355v5.417h1.355v102.245h-8.807v-9.48zm34.89-174.696v-3.385h14.228v20.313h-2.033v1.016a5.1 5.1 0 0 1-.393 1.963 5.3 5.3 0 0 1-1.402 1.91 5.06 5.06 0 0 1-3.286 1.205 5.06 5.06 0 0 1-4.153-2.16 5 5 0 0 1-.535-.955 5.1 5.1 0 0 1-.393-1.963v-1.016h-2.033zm7.114 25.054a7.1 7.1 0 0 0 5.772-2.966c19.316 2.803 34.2 19.46 34.2 39.53v104.953h-79.944V191.624c0-20.07 14.885-36.727 34.2-39.53a7.1 7.1 0 0 0 5.772 2.966m52.845-25.054v-3.385h14.227v20.313h-2.032v1.016a5.082 5.082 0 0 1-10.163 0v-1.016h-2.032zm14.227 78.546h1.355v1.354h-16.937v-1.354zm0-2.032h-14.227v-14.219h14.227zm-14.227-16.25h-2.71v-6.094h19.647v6.094zm14.227-8.126h-14.227v-33.179h.081a7.105 7.105 0 0 0 14.065 0h.081zm-14.227 29.793h14.227v102.245h-14.227zm-165.648-83.962v18.959h-2.032v1.016a5.1 5.1 0 0 1-.393 1.963 5.3 5.3 0 0 1-1.402 1.91 5.06 5.06 0 0 1-3.286 1.205 5.06 5.06 0 0 1-4.153-2.16 5 5 0 0 1-.536-.955 5.1 5.1 0 0 1-.392-1.963v-1.016h-2.033v-20.313h14.227zM264.9 155.06a7.1 7.1 0 0 0 5.772-2.966c19.315 2.803 34.2 19.46 34.2 39.53v104.953h-79.944V191.624c0-20.07 14.884-36.727 34.199-39.53a7.1 7.1 0 0 0 5.773 2.966m-52.845-27.085v18.959h-2.032v1.016a5.082 5.082 0 0 1-10.163 0v-1.016h-2.032v-20.313h14.227zm0 80.577h1.355v1.354h-16.937v-1.354zm0-2.032h-14.227v-14.219h14.227zm-14.227-16.25h-2.71v-6.094h19.647v6.094zm14.227-8.126h-14.227v-33.179h.081a7.106 7.106 0 0 0 14.065 0h.081zm-14.227 29.793h14.227v102.245h-14.227zm16.26 0h1.355v-5.417h-1.355v-14.219h2.71v-10.157h-2.71v-52.138h41.666v18.959h2.113c.061.42.156.833.285 1.226-19.966 3.237-35.257 20.578-35.257 41.433v106.984h84.009V191.624c0-20.855-15.291-38.196-35.256-41.433a7.4 7.4 0 0 0 .284-1.226h2.114v-18.959h41.666v52.138h-2.71v10.157h2.71v14.219h-1.355v5.417h1.355v102.245h-8.808v-9.48h-84.009v9.48h-8.807zm10.84 104.276v-9.48h79.944v20.991h-79.944zm81.976 0h35.908v11.511h-35.908zm37.94 0v-9.48h79.944v20.991h-79.944zm249.995-173.68v-11.85h3.388v16.251h16.26v3.386h-19.648zm6.226 9.818 27.663 161.831H490.587l-15.041-170.633h117.268v8.802h8.258zm-127.748-10.834.088 1.016.088 1.016 15.041 170.633.088 1.015.088 1.016 1.016 11.511h-62.912v-11.511h50.338l-.088-1.016-.088-1.015-15.041-170.633-.088-1.016-.088-1.016-1.016-11.511h11.565l1.016 11.511zm-284.344-11.511-1.016 11.511-.088 1.016-.088 1.016-15.041 170.633-.081.927v.088l-.095 1.016h50.338v11.511H159.99l1.016-11.511.088-1.016.088-1.015 15.041-170.633.088-1.016.088-1.016 1.016-11.511h11.565zM33.874 150.32v-3.386h16.26v-16.251h3.388v19.637zm21.68 2.031v-8.802h118.622l-15.04 170.633H19.633l27.662-161.831zM497.28 340.589v4.74H132.111v-4.74zm147.694 4.74H499.313v-4.74h145.661zm-641.587-4.74h126.691v4.74H3.387zm128.724 6.771H497.28v4.74H132.111zm473.568 11.511v23.456c-.84 1.293-1.355 3.128-1.355 5.2 0 .752.068 1.476.197 2.153H497.09c.129-.677.197-1.401.197-2.153 0-2.072-.515-3.907-1.355-5.2v-28.195h109.754v4.739zm40.65 28.656c0 .934-.129 1.801-.339 2.539-.19.657-.44 1.219-.725 1.646q-.141.214-.291.379c-.325.365-.678.569-1.016.569-.441 0-.908-.346-1.308-.948l-.081-.122a12 12 0 0 0 .311-1.903q.053-.58.055-1.178c0-.325-.014-.637-.034-.948a10 10 0 0 0-.102-.914 12 12 0 0 0-.19-1.016 11 11 0 0 0-.277-1.016c-.048-.135-.095-.257-.143-.386.468-1.124 1.139-1.814 1.762-1.814.339 0 .691.203 1.016.568.637.711 1.165 2.032 1.314 3.664q.042.437.041.894zm-7.453 43.457c0 .941-.203 1.74-.501 2.37-.4.84-.982 1.354-1.531 1.354-.224 0-.454-.088-.678-.25-.318-.224-.616-.61-.853-1.104-.034-.074-.075-.142-.109-.223a8 8 0 0 0 .285-2.147c0-.765-.102-1.483-.285-2.146.034-.081.075-.149.109-.224.21-.44.46-.785.738-1.015.041-.034.075-.061.115-.088.224-.156.454-.251.678-.251.264 0 .535.122.793.339.277.23.528.575.738 1.015.298.63.501 1.429.501 2.37m-7.452 3.724c-.264 0-.535-.122-.793-.338a2 2 0 0 1-.223-.217 3.4 3.4 0 0 1-.515-.799c-.298-.63-.502-1.429-.502-2.37s.204-1.74.502-2.37c.149-.318.325-.589.515-.799.074-.081.149-.149.223-.216.258-.217.529-.339.793-.339s.535.122.793.339c.277.23.528.575.738 1.015.034.075.075.143.108.224a5.8 5.8 0 0 1 .393 2.146c0 .826-.149 1.558-.393 2.147-.033.081-.074.149-.108.223-.21.44-.461.786-.738 1.016-.258.216-.529.338-.793.338m-9.146-.555a4 4 0 0 1-.224.217c-.257.216-.528.338-.792.338-.265 0-.536-.122-.793-.338-.278-.23-.529-.576-.739-1.016-.033-.074-.074-.142-.108-.223a5.8 5.8 0 0 1-.393-2.147c0-.826.149-1.557.393-2.146.034-.081.075-.149.108-.224.21-.44.461-.785.739-1.015.257-.217.528-.339.793-.339.264 0 .535.122.792.339q.112.093.224.216c.189.21.366.488.515.799.298.63.501 1.429.501 2.37s-.203 1.74-.501 2.37a3.3 3.3 0 0 1-.515.799m-5.759.305c-.223.156-.454.25-.677.25-.549 0-1.132-.514-1.532-1.354-.298-.63-.501-1.429-.501-2.37s.203-1.74.501-2.37c.21-.44.461-.785.739-1.015.257-.217.528-.339.793-.339.223 0 .454.088.677.251.041.027.075.061.115.088.278.23.529.575.739 1.015.034.075.074.143.108.224a8 8 0 0 0-.284 2.146c0 .765.101 1.483.284 2.147-.034.081-.074.149-.108.223-.237.494-.535.88-.854 1.104m-128.724-3.474c0 .941-.203 1.74-.501 2.37-.4.84-.982 1.354-1.531 1.354-.224 0-.454-.088-.678-.25-.318-.224-.616-.61-.853-1.104-.034-.074-.075-.142-.109-.223a8 8 0 0 0 .285-2.147c0-.765-.102-1.483-.285-2.146.034-.081.075-.149.109-.224.21-.44.46-.785.738-1.015.041-.034.075-.061.115-.088.224-.156.454-.251.678-.251.264 0 .535.122.792.339.278.23.529.575.739 1.015.298.63.501 1.429.501 2.37m-7.452 3.724c-.264 0-.535-.122-.793-.338a2 2 0 0 1-.223-.217 3.4 3.4 0 0 1-.515-.799c-.298-.63-.502-1.429-.502-2.37s.204-1.74.502-2.37c.149-.318.325-.589.515-.799.074-.081.149-.149.223-.216.258-.217.529-.339.793-.339s.535.122.792.339c.278.23.529.575.739 1.015.034.075.074.143.108.224a5.8 5.8 0 0 1 .393 2.146c0 .826-.149 1.558-.393 2.147-.034.081-.074.149-.108.223-.21.44-.461.786-.739 1.016-.257.216-.528.338-.792.338m-9.146-.555a4 4 0 0 1-.224.217c-.257.216-.528.338-.793.338-.264 0-.535-.122-.792-.338-.278-.23-.529-.576-.739-1.016-.034-.074-.074-.142-.108-.223a5.8 5.8 0 0 1-.393-2.147c0-.826.149-1.557.393-2.146.034-.081.074-.149.108-.224.21-.44.461-.785.739-1.015.257-.217.528-.339.792-.339.265 0 .536.122.793.339q.112.093.224.216c.189.21.365.488.515.799.298.63.501 1.429.501 2.37s-.203 1.74-.501 2.37c-.15.318-.326.589-.515.799m-5.759.305c-.224.156-.454.25-.678.25-.548 0-1.131-.514-1.531-1.354-.298-.63-.501-1.429-.501-2.37s.203-1.74.501-2.37c.21-.44.461-.785.739-1.015.257-.217.528-.339.792-.339.224 0 .454.088.678.251.041.027.074.061.115.088.278.23.529.575.739 1.015.033.075.074.143.108.224a8 8 0 0 0-.285 2.146c0 .765.102 1.483.285 2.147-.034.081-.075.149-.108.223-.238.494-.536.88-.854 1.104m-128.724-3.474c0 .941-.203 1.74-.501 2.37-.4.84-.983 1.354-1.531 1.354-.224 0-.454-.088-.678-.25-.318-.224-.616-.61-.854-1.104-.033-.074-.074-.142-.108-.223a8 8 0 0 0 .285-2.147c0-.765-.102-1.483-.285-2.146.034-.081.075-.149.108-.224.21-.44.461-.785.739-1.015.041-.034.074-.061.115-.088.224-.156.454-.251.678-.251.264 0 .535.122.792.339.278.23.529.575.739 1.015.298.63.501 1.429.501 2.37m-7.452 3.724c-.265 0-.536-.122-.793-.338a2 2 0 0 1-.224-.217 3.4 3.4 0 0 1-.514-.799c-.299-.63-.502-1.429-.502-2.37s.203-1.74.502-2.37c.149-.318.325-.589.514-.799.075-.081.149-.149.224-.216.257-.217.528-.339.793-.339.264 0 .535.122.792.339.278.23.529.575.739 1.015.034.075.074.143.108.224a5.8 5.8 0 0 1 .393 2.146c0 .826-.149 1.558-.393 2.147-.034.081-.074.149-.108.223-.21.44-.461.786-.739 1.016-.257.216-.528.338-.792.338m-9.147-.555c-.074.081-.149.149-.223.217-.258.216-.529.338-.793.338s-.535-.122-.792-.338c-.278-.23-.529-.576-.739-1.016-.034-.074-.074-.142-.108-.223a5.8 5.8 0 0 1-.393-2.147c0-.826.149-1.557.393-2.146.034-.081.074-.149.108-.224.21-.44.461-.785.739-1.015.257-.217.528-.339.792-.339s.535.122.793.339q.112.093.223.216c.19.21.366.488.515.799.298.63.502 1.429.502 2.37s-.204 1.74-.502 2.37a3.3 3.3 0 0 1-.515.799m-5.758.305c-.224.156-.454.25-.678.25-.548 0-1.131-.514-1.531-1.354-.298-.63-.501-1.429-.501-2.37s.203-1.74.501-2.37c.21-.44.461-.785.739-1.015.257-.217.528-.339.792-.339.224 0 .454.088.678.251.04.027.074.061.115.088.278.23.528.575.738 1.015.034.075.075.143.109.224a8 8 0 0 0-.285 2.146c0 .765.102 1.483.285 2.147-.034.081-.075.149-.109.223-.237.494-.535.88-.853 1.104m-128.724-3.474c0 .941-.203 1.74-.501 2.37-.4.84-.983 1.354-1.532 1.354-.223 0-.453-.088-.677-.25-.318-.224-.617-.61-.854-1.104-.034-.074-.074-.142-.108-.223a8 8 0 0 0 .284-2.147 8 8 0 0 0-.284-2.146c.034-.081.074-.149.108-.224.21-.44.461-.785.739-1.015.04-.034.074-.061.115-.088.224-.156.454-.251.677-.251.265 0 .536.122.793.339.278.23.529.575.739 1.015.298.63.501 1.429.501 2.37m-7.453 3.724c-.264 0-.535-.122-.792-.338a2 2 0 0 1-.224-.217 3.4 3.4 0 0 1-.515-.799c-.298-.63-.501-1.429-.501-2.37s.203-1.74.501-2.37c.149-.318.326-.589.515-.799.075-.081.149-.149.224-.216.257-.217.528-.339.792-.339.265 0 .536.122.793.339.278.23.529.575.739 1.015.034.075.074.143.108.224a5.8 5.8 0 0 1 .393 2.146c0 .826-.149 1.558-.393 2.147-.034.081-.074.149-.108.223-.21.44-.461.786-.739 1.016-.257.216-.528.338-.793.338m-9.146-.555c-.074.081-.149.149-.223.217-.258.216-.529.338-.793.338s-.535-.122-.793-.338c-.277-.23-.528-.576-.738-1.016-.034-.074-.075-.142-.108-.223a5.8 5.8 0 0 1-.393-2.147c0-.826.149-1.557.393-2.146.033-.081.074-.149.108-.224.21-.44.461-.785.738-1.015.258-.217.529-.339.793-.339s.535.122.793.339q.112.093.223.216c.19.21.366.488.515.799.298.63.502 1.429.502 2.37s-.204 1.74-.502 2.37a3.3 3.3 0 0 1-.515.799m-5.758.305c-.224.156-.454.25-.678.25-.549 0-1.131-.514-1.531-1.354-.298-.63-.501-1.429-.501-2.37s.203-1.74.501-2.37c.21-.44.461-.785.738-1.015.258-.217.529-.339.793-.339.224 0 .454.088.678.251.04.027.074.061.115.088.278.23.528.575.738 1.015.034.075.075.143.109.224a8 8 0 0 0-.285 2.146c0 .765.102 1.483.285 2.147-.034.081-.075.149-.109.223-.237.494-.535.88-.853 1.104m-128.724-3.474c0 .941-.203 1.74-.502 2.37-.4.84-.982 1.354-1.53 1.354-.224 0-.455-.088-.678-.25-.319-.224-.617-.61-.854-1.104-.034-.074-.074-.142-.108-.223a8 8 0 0 0 .284-2.147 8 8 0 0 0-.284-2.146c.034-.081.074-.149.108-.224.21-.44.46-.785.739-1.015a1 1 0 0 1 .115-.088c.223-.156.454-.251.677-.251.264 0 .535.122.793.339.278.23.528.575.738 1.015.299.63.502 1.429.502 2.37m-7.453 3.724c-.264 0-.535-.122-.792-.338a2 2 0 0 1-.224-.217 3.4 3.4 0 0 1-.515-.799c-.298-.63-.501-1.429-.501-2.37s.203-1.74.501-2.37c.15-.318.325-.589.515-.799a3 3 0 0 1 .224-.216c.257-.217.528-.339.792-.339.265 0 .536.122.793.339.278.23.528.575.739 1.015.033.075.074.143.108.224.237.589.393 1.32.393 2.146s-.15 1.558-.393 2.147c-.034.081-.075.149-.108.223-.21.44-.461.786-.739 1.016-.257.216-.528.338-.793.338m-9.146-.555c-.074.081-.149.149-.223.217-.258.216-.529.338-.793.338s-.535-.122-.793-.338c-.277-.23-.528-.576-.738-1.016-.034-.074-.075-.142-.109-.223a5.8 5.8 0 0 1-.393-2.147c0-.826.15-1.557.393-2.146.034-.081.075-.149.109-.224.21-.44.46-.785.738-1.015.258-.217.529-.339.793-.339s.535.122.793.339q.111.093.223.216c.19.21.366.488.515.799.298.63.501 1.429.501 2.37s-.203 1.74-.5 2.37a3.3 3.3 0 0 1-.516.799m-5.758.305c-.224.156-.454.25-.678.25-.549 0-1.131-.514-1.531-1.354-.298-.63-.502-1.429-.502-2.37s.204-1.74.502-2.37c.21-.44.46-.785.738-1.015.258-.217.529-.339.793-.339.224 0 .454.088.678.251.04.027.074.061.115.088.277.23.528.575.738 1.015.034.075.075.143.108.224a8 8 0 0 0-.284 2.146c0 .765.102 1.483.284 2.147-.033.081-.074.149-.108.223-.237.494-.535.88-.854 1.104M8.34 384.29c.589-1.185 1.395-1.889 2.16-1.889s1.566.704 2.162 1.889a11 11 0 0 0-.427 2.343q-.032.436-.034.894c0 .752.068 1.476.197 2.153a9.4 9.4 0 0 0 .616 2.032c.014.027.02.047.034.074-.59 1.74-1.599 2.817-2.54 2.817-.292 0-.59-.109-.881-.305-.644-.433-1.254-1.314-1.66-2.512a.3.3 0 0 0-.027-.074 9.6 9.6 0 0 1-.4-1.842l-.02-.19a12 12 0 0 1-.061-1.178q.002-.996.156-1.869c.027-.169.06-.325.094-.487q.064-.274.136-.529.155-.548.359-1.015c.047-.109.095-.21.15-.312zm10.44 1.327a9.4 9.4 0 0 1 .19 1.91 9.3 9.3 0 0 1-.244 2.153c-.177.752-.434 1.402-.739 1.896-.027.047-.06.088-.088.136-.4.595-.86.948-1.308.948-.169 0-.345-.055-.521-.156-.271-.156-.542-.427-.786-.792l-.082-.122c-.29-.474-.541-1.084-.718-1.795-.006-.04-.02-.074-.027-.115a9.7 9.7 0 0 1-.237-2.153 9.4 9.4 0 0 1 .46-2.925q.07-.203.15-.386c.467-1.124 1.138-1.815 1.761-1.815.698 0 1.444.853 1.91 2.201a8 8 0 0 1 .272 1.015zm-8.28 11.017c1.586 0 2.975-1.104 3.903-2.871.59.542 1.267.86 1.992.914a163 163 0 0 1 1.518 19.041c.006.338.006.677.013 1.015q.002.509.014 1.016c0 .44.013.874.013 1.314v8.349a3 3 0 0 0-1.016-.183c-1.016 0-1.938.508-2.642 1.354-.02.027-.048.054-.068.088v-7.59c0-1.111-.034-2.221-.088-3.332-.014-.338-.027-.677-.048-1.016-.02-.338-.054-.677-.08-1.015a68.8 68.8 0 0 0-3.55-17.091h.04zm1.694 22.447v6.229a3.3 3.3 0 0 0-.677-.081c-1.016 0-1.938.508-2.642 1.354H3.387v-10.834H12.1c.054 1.111.095 2.221.095 3.332m8.456 9.533a7 7 0 0 0-.414-1.015 6 6 0 0 0-.257-.454v-10.089c0-.44-.014-.874-.014-1.314q-.001-.508-.013-1.015c0-.339 0-.677-.014-1.016a165 165 0 0 0-1.572-19.616c.739-.515 1.362-1.341 1.816-2.39.264-.61.481-1.294.617-2.032.128-.677.196-1.401.196-2.153q-.001-.457-.034-.894h2.107q-.032.437-.034.894c0 .752.068 1.476.197 2.153a9.4 9.4 0 0 0 .616 2.032c.454 1.043 1.078 1.875 1.816 2.39a166 166 0 0 0-1.572 19.616c-.007.339-.007.677-.013 1.016q-.002.508-.014 1.015c0 .44-.013.874-.013 1.314v10.089a6 6 0 0 0-.258.454 7 7 0 0 0-.413 1.015 8 8 0 0 0-.352 2.37c0 .853.128 1.652.352 2.37h-2.737a8 8 0 0 0 .352-2.37c0-.853-.129-1.652-.352-2.37zm4.607-42.997c.074-.358.162-.704.27-1.015.468-1.348 1.213-2.201 1.911-2.201.63 0 1.294.691 1.762 1.815q.079.183.149.386.16.467.27 1.015.05.244.089.508c.027.17.04.339.06.508q.042.436.041.894c0 .779-.088 1.503-.237 2.153-.007.041-.02.075-.027.115-.176.711-.427 1.321-.718 1.795l-.081.122c-.244.365-.515.636-.786.792a1.04 1.04 0 0 1-.522.156c-.44 0-.908-.346-1.307-.948-.028-.048-.061-.089-.089-.136-.304-.494-.562-1.144-.738-1.896a9.7 9.7 0 0 1-.237-2.153 9.4 9.4 0 0 1 .19-1.91m10.582-1.015q.206.467.36 1.015.072.255.135.529.051.233.094.487c.095.582.156 1.205.156 1.869q-.001.445-.034.86a4 4 0 0 1-.027.318c0 .061-.013.129-.02.19-.081.67-.224 1.286-.4 1.842a.3.3 0 0 1-.027.074c-.406 1.198-1.01 2.079-1.653 2.512-.291.196-.59.305-.88.305-.942 0-1.952-1.07-2.541-2.817.013-.027.02-.047.034-.074.264-.61.48-1.294.616-2.032.129-.677.197-1.401.197-2.153q-.002-.458-.034-.894a11 11 0 0 0-.339-2.031c-.027-.109-.061-.21-.088-.312.59-1.185 1.395-1.889 2.161-1.889s1.565.704 2.161 1.889c.048.102.102.203.15.312zm118.629-30.47h37.262v4.739h-37.262zm339.425 4.739h-37.262v-4.739h37.262zm118.771 25.419c.59-1.185 1.396-1.889 2.161-1.889s1.565.704 2.162 1.889a11.2 11.2 0 0 0-.427 2.343q-.033.436-.034.894c0 .752.068 1.476.196 2.153.136.738.353 1.422.617 2.032.013.027.02.047.034.074-.59 1.74-1.599 2.817-2.541 2.817-.291 0-.589-.109-.881-.305-.643-.433-1.253-1.314-1.659-2.512a.3.3 0 0 0-.028-.074 9.6 9.6 0 0 1-.399-1.842l-.021-.19a12 12 0 0 1-.061-1.178c0-.664.055-1.287.156-1.869.027-.169.061-.325.095-.487q.063-.274.136-.529a8 8 0 0 1 .359-1.015c.047-.109.095-.21.149-.312zm10.44 1.327q.1.488.149 1.016.04.436.041.894c0 .779-.088 1.503-.237 2.153-.176.752-.434 1.402-.739 1.896-.027.047-.061.088-.088.136-.399.595-.86.948-1.307.948-.17 0-.346-.055-.522-.156-.271-.156-.542-.427-.786-.792l-.081-.122c-.291-.474-.542-1.084-.718-1.795-.007-.04-.021-.074-.027-.115a9.7 9.7 0 0 1-.237-2.153 9.5 9.5 0 0 1 .189-1.91c.075-.358.163-.704.271-1.015.048-.136.095-.264.149-.386.468-1.124 1.139-1.815 1.762-1.815.698 0 1.443.853 1.91 2.201.109.311.197.657.271 1.015m-.853 29.116q.001.509.013 1.016c0 .44.014.874.014 1.314v8.349a3 3 0 0 0-1.016-.183c-1.017 0-1.938.508-2.643 1.354-.02.027-.047.054-.067.088v-7.59c0-1.111-.034-2.221-.088-3.332q-.02-.507-.048-1.016c-.02-.338-.054-.677-.081-1.015a69 69 0 0 0-3.544-17.091h.041c1.585 0 2.974-1.103 3.903-2.871.589.542 1.266.86 1.991.915a163 163 0 0 1 1.518 19.04c.007.339.007.677.013 1.016zm-142.897 0c0-.338 0-.677.013-1.015.129-6.365.644-12.73 1.518-19.047.725-.055 1.402-.373 1.992-.915.928 1.768 2.317 2.871 3.902 2.871h.041a69 69 0 0 0-3.544 17.091l-.081 1.015q-.029.509-.047 1.016a67 67 0 0 0-.088 3.332v7.59s-.041-.061-.068-.088c-.705-.846-1.626-1.354-2.642-1.354-.353 0-.691.067-1.017.183v-8.349c0-.44.014-.874.014-1.314 0-.338.007-.677.013-1.016zm-8.184 0q.001.509.013 1.016c0 .44.014.874.014 1.314v8.349a3 3 0 0 0-1.017-.183c-1.016 0-1.937.508-2.642 1.354-.02.027-.047.054-.068.088v-7.59c0-1.111-.033-2.221-.088-3.332a50 50 0 0 0-.047-1.016c-.02-.338-.054-.677-.081-1.015a69 69 0 0 0-3.544-17.091h.041c1.585 0 2.974-1.103 3.902-2.871.59.542 1.267.86 1.992.915a163 163 0 0 1 1.518 19.04c.007.339.007.677.013 1.016zm-142.897 0c0-.338 0-.677.013-1.015.129-6.365.644-12.73 1.518-19.041.725-.054 1.402-.372 1.991-.914.929 1.767 2.318 2.871 3.903 2.871h.04a69 69 0 0 0-3.543 17.091l-.081 1.015q-.029.508-.048 1.016a69 69 0 0 0-.088 3.331v7.591s-.04-.061-.067-.088c-.705-.847-1.626-1.354-2.643-1.354-.352 0-.691.067-1.016.182v-8.348c0-.441.014-.874.014-1.314q.001-.508.013-1.016zm-8.185 0q.002.509.014 1.016c0 .44.013.874.013 1.314v8.349a3 3 0 0 0-1.016-.183c-1.016 0-1.937.508-2.642 1.354-.02.027-.047.054-.068.088v-7.59c0-1.111-.034-2.221-.088-3.332a50 50 0 0 0-.047-1.016c-.021-.338-.054-.677-.082-1.015a69 69 0 0 0-3.543-17.091h.041c1.585 0 2.974-1.103 3.902-2.871.59.542 1.267.86 1.992.915a163 163 0 0 1 1.518 19.04c.006.339.006.677.013 1.016zm-142.897 0c0-.338 0-.677.014-1.015.129-6.365.644-12.73 1.517-19.041.725-.054 1.403-.372 1.992-.914.928 1.767 2.317 2.871 3.903 2.871h.04a69.4 69.4 0 0 0-3.55 17.091l-.081 1.015q-.029.508-.047 1.016a67 67 0 0 0-.089 3.331v7.591s-.04-.061-.067-.088c-.705-.847-1.626-1.354-2.643-1.354-.352 0-.691.067-1.016.182v-8.348c0-.441.014-.874.014-1.314 0-.339.007-.677.013-1.016zm-8.184 0q.002.509.014 1.016c0 .44.013.874.013 1.314v8.349a3 3 0 0 0-1.016-.183c-1.016 0-1.938.508-2.642 1.354-.02.027-.048.054-.068.088v-7.59c0-1.111-.034-2.221-.088-3.332-.014-.338-.027-.677-.047-1.016-.021-.338-.055-.677-.082-1.015a69 69 0 0 0-3.543-17.091h.041c1.585 0 2.974-1.103 3.902-2.871.589.542 1.267.86 1.992.915a163 163 0 0 1 1.517 19.04c.007.339.007.677.014 1.016zm-142.897 0c0-.338 0-.677.014-1.015.129-6.365.643-12.73 1.517-19.041.725-.054 1.403-.372 1.992-.914.928 1.767 2.317 2.871 3.903 2.871h.04a69.4 69.4 0 0 0-3.55 17.091l-.081 1.015q-.028.508-.048 1.016a68 68 0 0 0-.088 3.331v7.591s-.04-.061-.067-.088c-.705-.847-1.626-1.354-2.643-1.354-.352 0-.69.067-1.016.182v-8.348c0-.441.014-.874.014-1.314q.001-.508.013-1.016zm127.003-27.206q0-.467.041-.894c.149-1.638.677-2.959 1.314-3.663.325-.366.678-.569 1.016-.569.631 0 1.294.691 1.762 1.815-.047.128-.102.257-.142.386-.109.325-.197.663-.278 1.015-.075.332-.142.671-.19 1.016q-.06.447-.101.914-.033.47-.034.948c0 .406.02.792.054 1.178 0 .068.013.143.02.21.061.589.156 1.158.292 1.693l-.082.122c-.399.596-.86.948-1.307.948s-.908-.345-1.308-.948c-.339-.508-.63-1.205-.826-2.031a9.7 9.7 0 0 1-.238-2.154zm16.938 0c0 .779-.089 1.503-.244 2.153-.176.752-.434 1.402-.739 1.896-.027.047-.061.088-.088.136-.4.595-.86.948-1.307.948-.17 0-.346-.055-.522-.156-.271-.156-.542-.427-.786-.792l-.081-.122c-.292-.474-.542-1.084-.718-1.795-.007-.04-.021-.074-.028-.115a9.7 9.7 0 0 1-.237-2.153 9.5 9.5 0 0 1 .461-2.925q.07-.203.149-.386c.468-1.124 1.138-1.815 1.762-1.815.697 0 1.443.853 1.91 2.201.108.311.197.657.271 1.015a9.7 9.7 0 0 1 .19 1.91zm-10.63-3.237c.589-1.185 1.395-1.889 2.161-1.889.765 0 1.565.704 2.161 1.889a11.2 11.2 0 0 0-.427 2.343c-.02.291-.034.589-.034.894 0 .752.068 1.476.197 2.153a9.4 9.4 0 0 0 .616 2.032c.014.027.021.047.034.074-.589 1.74-1.599 2.817-2.54 2.817-.292 0-.59-.109-.881-.305-.644-.433-1.253-1.314-1.66-2.512a.3.3 0 0 0-.027-.074 9.7 9.7 0 0 1-.4-1.842l-.02-.19c-.014-.108-.02-.21-.027-.318a11 11 0 0 1-.034-.86q.002-.996.156-1.869c.027-.169.061-.325.095-.487.04-.183.088-.359.135-.529a8 8 0 0 1 .359-1.015c.048-.109.095-.21.149-.312zM32.519 425.229c-.23 0-.454.034-.677.081v-6.229q.002-1.666.095-3.332h131.251c.054 1.111.094 2.221.094 3.332v6.229a3.3 3.3 0 0 0-.677-.081c-1.016 0-1.938.508-2.642 1.354H35.162c-.705-.846-1.626-1.354-2.643-1.354m439.694-37.702c0 .779-.088 1.503-.237 2.153-.176.752-.434 1.402-.739 1.896-.027.047-.061.088-.088.136-.4.595-.86.948-1.307.948-.17 0-.346-.055-.522-.156-.271-.156-.542-.427-.786-.792l-.081-.122c-.292-.474-.542-1.084-.718-1.795-.007-.04-.021-.074-.027-.115a9.6 9.6 0 0 1-.238-2.153 9.5 9.5 0 0 1 .461-2.925q.07-.203.149-.386c.468-1.124 1.138-1.815 1.762-1.815.697 0 1.443.853 1.91 2.201.109.311.197.657.271 1.015q.1.488.149 1.016.04.436.041.894m-144.984 0a9.5 9.5 0 0 1 .461-2.925c.467-1.348 1.213-2.201 1.91-2.201.63 0 1.294.691 1.762 1.815q.08.183.149.386.16.467.271 1.015.05.244.088.508c.027.163.041.332.061.508q.04.436.041.894c0 .779-.088 1.503-.238 2.153-.006.041-.02.075-.027.115-.176.711-.426 1.321-.718 1.795l-.081.122c-.244.365-.515.636-.786.792a1.04 1.04 0 0 1-.522.156c-.44 0-.907-.346-1.307-.948-.027-.048-.061-.089-.088-.136-.305-.494-.563-1.144-.739-1.896a9.7 9.7 0 0 1-.237-2.153m5.962 4.185c.264-.61.481-1.294.617-2.032.128-.677.196-1.401.196-2.153q-.001-.458-.034-.894a12 12 0 0 0-.122-1.016c-.061-.352-.128-.69-.217-1.015-.027-.109-.06-.21-.088-.312.59-1.185 1.396-1.889 2.162-1.889.765 0 1.565.704 2.161 1.889.047.102.101.203.149.312q.204.467.359 1.015a10 10 0 0 1 .23 1.016c.095.582.156 1.205.156 1.869q-.001.445-.034.86c-.007.108-.013.217-.027.318 0 .061-.013.129-.02.19-.081.67-.224 1.286-.4 1.842a.3.3 0 0 1-.027.074c-.407 1.198-1.009 2.079-1.66 2.512-.291.196-.589.305-.881.305-.941 0-1.951-1.07-2.54-2.817.013-.027.02-.047.034-.074zm9.912 0c-.4.595-.861.948-1.308.948s-.908-.346-1.307-.948l-.082-.122c.136-.535.231-1.104.292-1.693l.02-.21a13.4 13.4 0 0 0 .02-2.126 10 10 0 0 0-.101-.914 12 12 0 0 0-.19-1.016 11 11 0 0 0-.278-1.016c-.047-.135-.095-.257-.142-.386.468-1.124 1.138-1.814 1.762-1.814.338 0 .691.203 1.016.568.637.711 1.165 2.032 1.314 3.664q.04.437.041.894c0 .778-.088 1.503-.237 2.153-.19.826-.481 1.523-.827 2.031zm112.173-4.185q0-.467.04-.894c.149-1.632.678-2.959 1.315-3.663.325-.366.677-.569 1.016-.569.63 0 1.294.691 1.761 1.815-.047.128-.101.257-.142.386-.108.325-.197.663-.278 1.015-.074.332-.142.671-.189 1.016q-.062.447-.102.914-.032.47-.034.948c0 .406.02.792.054 1.178 0 .068.014.143.021.21.06.589.155 1.158.291 1.693l-.081.122c-.4.596-.861.948-1.308.948s-.908-.345-1.308-.948c-.338-.508-.63-1.205-.826-2.031a9.7 9.7 0 0 1-.237-2.154zm6.307-3.237c.589-1.185 1.396-1.889 2.161-1.889s1.565.704 2.161 1.889a11.2 11.2 0 0 0-.426 2.343q-.033.436-.034.894c0 .752.067 1.476.196 2.153a9.4 9.4 0 0 0 .617 2.032c.013.027.02.047.034.074-.59 1.74-1.599 2.817-2.541 2.817-.291 0-.589-.109-.881-.305-.643-.433-1.253-1.314-1.66-2.512a.3.3 0 0 0-.027-.074 9.6 9.6 0 0 1-.399-1.842l-.021-.19a12 12 0 0 1-.061-1.178q.002-.996.156-1.869c.027-.169.061-.325.095-.487q.063-.274.135-.529a8 8 0 0 1 .359-1.015c.048-.109.095-.21.15-.312zm-3.936 10.401c.806 0 1.551-.339 2.195-.928.366.698.806 1.287 1.301 1.747a67.4 67.4 0 0 1 4.071 18.208H334.228a67 67 0 0 1 4.071-18.208c.495-.46.935-1.049 1.301-1.747.644.589 1.389.928 2.195.928 1.498 0 2.798-1.165 3.591-2.979h108.67c.793 1.814 2.093 2.979 3.591 2.979m-114.835-14.132a2.9 2.9 0 0 0-1.017-.189c-1.124 0-2.141.663-2.913 1.76-.867-1.103-1.965-1.753-3.184-1.753s-2.317.656-3.184 1.753c-.773-1.097-1.782-1.76-2.914-1.76-1.822 0-3.353 1.72-4.031 4.232h-2.777c-.678-2.512-2.209-4.232-4.032-4.232-1.124 0-2.14.663-2.913 1.754-.867-1.104-1.964-1.754-3.184-1.754-1.219 0-2.317.657-3.184 1.754-.773-1.097-1.782-1.754-2.913-1.754-.353 0-.691.068-1.017.189v-19.656h37.263zm-21.68 6.968a9.3 9.3 0 0 1-.244 2.153c-.176.752-.434 1.402-.739 1.896-.027.047-.061.088-.088.136-.399.595-.86.948-1.307.948-.17 0-.346-.055-.522-.156-.271-.156-.542-.427-.786-.792l-.081-.122c-.291-.474-.542-1.084-.718-1.795-.007-.04-.021-.074-.027-.115a9.7 9.7 0 0 1-.238-2.153 9.5 9.5 0 0 1 .461-2.925q.07-.203.149-.386c.468-1.124 1.138-1.815 1.762-1.815.698 0 1.443.853 1.91 2.201.109.311.197.657.271 1.015a9.7 9.7 0 0 1 .19 1.91zm-144.984 0a9.5 9.5 0 0 1 .461-2.925c.467-1.348 1.212-2.201 1.91-2.201.63 0 1.294.691 1.762 1.815.054.122.101.25.149.386q.16.467.271 1.015.05.244.088.508c.027.17.04.339.061.508q.04.436.04.894c0 .779-.088 1.503-.237 2.153-.006.041-.02.075-.027.115-.176.711-.427 1.321-.718 1.795l-.081.122c-.244.365-.515.636-.786.792a1.04 1.04 0 0 1-.522.156c-.44 0-.908-.346-1.307-.948-.027-.048-.061-.089-.088-.136-.305-.494-.563-1.144-.739-1.896a9.6 9.6 0 0 1-.244-2.153zm10.772-2.925q.206.467.359 1.015.073.255.136.529.052.233.095.487c.094.582.155 1.205.155 1.869 0 .298-.013.582-.033.86-.007.108-.014.217-.028.318 0 .061-.013.129-.02.19-.081.67-.223 1.286-.4 1.842a.3.3 0 0 1-.027.074c-.406 1.198-1.009 2.079-1.653 2.512-.291.196-.589.305-.881.305-.941 0-1.951-1.07-2.54-2.81.013-.027.02-.048.034-.075a9.4 9.4 0 0 0 .616-2.031c.129-.677.197-1.402.197-2.153q-.002-.458-.034-.894a11 11 0 0 0-.339-2.031c-.027-.109-.061-.21-.088-.312.589-1.185 1.396-1.889 2.161-1.889s1.565.704 2.161 1.889c.048.102.102.203.149.312zm6.165 2.925c0 .779-.088 1.503-.237 2.153-.189.826-.481 1.524-.826 2.032-.4.595-.861.948-1.308.948s-.908-.346-1.307-.948l-.082-.122a12 12 0 0 0 .312-1.903 13.4 13.4 0 0 0 .02-2.126 10 10 0 0 0-.101-.914 13 13 0 0 0-.468-2.032c-.047-.135-.095-.257-.142-.386.467-1.124 1.138-1.814 1.761-1.814.339 0 .691.203 1.017.568.636.711 1.165 2.032 1.314 3.664q.04.437.041.894zm111.109 0q0-.467.041-.894c.149-1.638.678-2.959 1.314-3.663.326-.366.678-.569 1.017-.569.63 0 1.294.691 1.761 1.815-.047.128-.102.257-.142.386a12.8 12.8 0 0 0-.569 2.945q-.033.47-.034.948c0 .406.02.792.054 1.178 0 .068.014.143.02.21.061.589.156 1.158.292 1.693l-.082.122c-.399.596-.86.948-1.307.948s-.908-.345-1.308-.948c-.338-.508-.63-1.205-.826-2.031a9.7 9.7 0 0 1-.237-2.154zm5.928 4.259s-.013-.047-.027-.074a9.6 9.6 0 0 1-.399-1.842l-.021-.19a12 12 0 0 1-.061-1.178c0-.664.055-1.287.156-1.869.027-.169.061-.325.095-.487q.063-.274.135-.529.154-.548.36-1.015c.047-.109.094-.21.149-.312.589-1.185 1.395-1.889 2.161-1.889.765 0 1.565.704 2.161 1.889a11.2 11.2 0 0 0-.427 2.343c-.02.291-.034.589-.034.894 0 .752.068 1.476.197 2.153a9.4 9.4 0 0 0 .616 2.032c.014.027.021.047.034.074-.589 1.74-1.599 2.817-2.54 2.817-.292 0-.59-.109-.881-.305-.644-.433-1.254-1.314-1.66-2.512zm-3.556 2.905c.806 0 1.551-.339 2.195-.928.366.698.806 1.287 1.3 1.747a67.3 67.3 0 0 1 4.072 18.208H183.147a67 67 0 0 1 4.071-18.208c.495-.46.935-1.049 1.301-1.747.644.589 1.389.928 2.195.928 1.504 0 2.798-1.165 3.591-2.979h108.67c.793 1.814 2.093 2.979 3.591 2.979M183.6 425.229c-.23 0-.453.034-.677.081v-6.229q.002-1.666.095-3.332h131.251c.054 1.111.095 2.221.095 3.332v6.229a3.3 3.3 0 0 0-.678-.081c-1.016 0-1.938.508-2.642 1.354H186.249c-.704-.846-1.626-1.354-2.642-1.354zm151.082 0a3.3 3.3 0 0 0-.678.081v-6.229q.002-1.666.095-3.332H465.35c.054 1.111.095 2.221.095 3.332v6.229a3.3 3.3 0 0 0-.678-.081c-1.016 0-1.937.508-2.642 1.354H337.331c-.705-.846-1.626-1.354-2.643-1.354zm143.628-37.702a9.5 9.5 0 0 1 .461-2.925c.467-1.348 1.213-2.201 1.911-2.201.63 0 1.294.691 1.761 1.815q.08.183.149.386.161.467.271 1.015.05.244.088.508c.027.163.041.332.061.508q.04.436.041.894c0 .779-.088 1.503-.237 2.153-.007.041-.021.075-.027.115-.177.711-.427 1.321-.719 1.795l-.081.122c-.244.365-.515.636-.786.792a1.04 1.04 0 0 1-.521.156c-.441 0-.908-.346-1.308-.948-.027-.048-.061-.089-.088-.136-.305-.494-.562-1.144-.739-1.896a9.7 9.7 0 0 1-.237-2.153m10.772-2.925q.206.467.36 1.015.072.255.135.529.053.233.095.487c.095.582.156 1.205.156 1.869 0 .298-.014.582-.034.86-.007.108-.014.217-.027.318 0 .061-.014.129-.021.19a10 10 0 0 1-.399 1.842.4.4 0 0 1-.027.074c-.407 1.198-1.01 2.079-1.66 2.512-.292.196-.59.305-.881.305-.942 0-1.951-1.07-2.541-2.817.014-.027.021-.047.034-.074.264-.61.481-1.294.617-2.032.129-.677.196-1.401.196-2.153q-.001-.458-.034-.894a11 11 0 0 0-.338-2.031c-.027-.109-.061-.21-.088-.312.589-1.185 1.395-1.889 2.161-1.889.765 0 1.565.704 2.161 1.889.047.102.102.203.149.312zm5.102 7.11c-.4.595-.86.948-1.308.948-.447 0-.907-.346-1.307-.948l-.081-.122c.135-.535.23-1.104.291-1.693l.02-.21a13.4 13.4 0 0 0 .021-2.126 10 10 0 0 0-.102-.914 12 12 0 0 0-.19-1.016 11 11 0 0 0-.278-1.016c-.047-.135-.094-.257-.142-.386.468-1.124 1.138-1.814 1.762-1.814.338 0 .691.203 1.016.568.637.711 1.165 2.032 1.314 3.664q.04.437.041.894c0 .778-.088 1.503-.237 2.153-.19.826-.481 1.523-.827 2.031zm-8.421 33.517a3.3 3.3 0 0 0-.678.081v-6.229q.002-1.666.095-3.332h131.251c.054 1.111.095 2.221.095 3.332v6.229a3.3 3.3 0 0 0-.678-.081c-1.016 0-1.937.508-2.642 1.354H488.412c-.705-.846-1.626-1.354-2.642-1.354zm124.584-40.627a12.3 12.3 0 0 0-.467 2.031q-.062.447-.102.914a13 13 0 0 0 .02 2.126c0 .068.014.143.021.21.061.589.155 1.158.291 1.693l-.081.122c-.4.596-.861.948-1.308.948s-.908-.345-1.307-.948c-.339-.508-.63-1.205-.827-2.031a9.7 9.7 0 0 1-.237-2.154q0-.467.041-.893c.149-1.632.677-2.959 1.314-3.664.325-.365.677-.568 1.016-.568.63 0 1.294.69 1.762 1.814-.048.129-.102.258-.143.386zm-1.619 10.089c.806 0 1.551-.339 2.195-.928.366.698.806 1.287 1.301 1.747a67.4 67.4 0 0 1 4.072 18.208H485.309a67 67 0 0 1 4.072-18.208 6.5 6.5 0 0 0 1.3-1.747c.644.589 1.389.928 2.195.928 1.498 0 2.798-1.165 3.591-2.979h108.67c.793 1.814 2.094 2.979 3.591 2.979m-114.835-14.132a2.9 2.9 0 0 0-1.017-.189c-1.124 0-2.14.663-2.913 1.76-.867-1.103-1.965-1.753-3.184-1.753s-2.317.656-3.184 1.753c-.773-1.097-1.782-1.76-2.913-1.76-1.823 0-3.354 1.72-4.032 4.232h-2.784c-.678-2.512-2.209-4.232-4.031-4.232-1.125 0-2.141.663-2.913 1.754-.868-1.104-1.965-1.754-3.185-1.754s-2.317.657-3.184 1.754c-.772-1.097-1.782-1.754-2.913-1.754-.352 0-.691.068-1.016.189v-19.656h37.262v19.656zm-39.295-21.688v23.456c-.84 1.293-1.355 3.128-1.355 5.2 0 .752.068 1.476.197 2.153H346.009c.129-.677.197-1.401.197-2.153 0-2.072-.515-3.907-1.355-5.2v-28.195h109.754v4.739zm-111.786 0h-37.263v-4.739h37.263zm-39.295 0v23.456c-.84 1.293-1.355 3.128-1.355 5.2 0 .752.068 1.476.196 2.153h-107.43c.129-.677.197-1.401.197-2.153 0-2.072-.515-3.907-1.355-5.2v-28.195h109.754v4.739zm-111.787 2.032v19.656a2.9 2.9 0 0 0-1.016-.189c-1.125 0-2.141.663-2.913 1.754-.867-1.104-1.965-1.754-3.184-1.754s-2.317.657-3.185 1.754c-.772-1.097-1.781-1.754-2.913-1.754-1.822 0-3.353 1.72-4.031 4.232h-2.778c-.677-2.512-2.208-4.232-4.031-4.232-1.124 0-2.141.663-2.913 1.754-.867-1.104-1.965-1.754-3.184-1.754s-2.317.657-3.184 1.754c-.773-1.097-1.782-1.754-2.914-1.754-.352 0-.691.068-1.016.189v-19.656zm-36.246 33.788c.807 0 1.552-.339 2.196-.928a6.5 6.5 0 0 0 1.3 1.747 67.4 67.4 0 0 1 4.072 18.208H32.065a67 67 0 0 1 4.072-18.208c.495-.46.935-1.049 1.3-1.747.645.589 1.39.928 2.196.928 1.504 0 2.798-1.165 3.59-2.979h108.671c.792 1.814 2.093 2.979 3.59 2.979m-113.48-7.164c0 .779-.088 1.503-.237 2.153-.19.826-.48 1.524-.827 2.032-.4.595-.86.948-1.307.948s-.908-.346-1.308-.948l-.08-.122c.135-.535.23-1.104.29-1.693l.02-.21q.054-.58.055-1.178c0-.325-.014-.637-.034-.948a10 10 0 0 0-.102-.914 12 12 0 0 0-.19-1.016 11 11 0 0 0-.277-1.016c-.047-.135-.095-.257-.142-.386.467-1.124 1.138-1.814 1.761-1.814.339 0 .691.203 1.016.568.637.711 1.166 2.032 1.315 3.664q.04.437.04.894zm129.727 41.087a7 7 0 0 0-.414-1.015 6 6 0 0 0-.257-.454v-10.089c0-.44-.014-.874-.014-1.314q-.001-.508-.013-1.015c0-.339 0-.677-.014-1.016a166 166 0 0 0-1.571-19.616c.738-.515 1.361-1.341 1.815-2.39a9.4 9.4 0 0 0 .617-2.032c.129-.677.196-1.401.196-2.153q-.001-.457-.034-.894h2.107q-.031.437-.033.894c0 .752.067 1.476.196 2.153.135.738.352 1.422.617 2.032.453 1.043 1.077 1.875 1.815 2.39a166 166 0 0 0-1.572 19.616c-.006.339-.006.677-.013 1.016q-.002.508-.014 1.015c0 .44-.013.874-.013 1.314v10.089a6 6 0 0 0-.258.454 7 7 0 0 0-.413 1.015 8 8 0 0 0-.352 2.37c0 .853.128 1.652.352 2.37h-2.737a8 8 0 0 0 .352-2.37c0-.853-.128-1.652-.352-2.37zm151.081 0a6.2 6.2 0 0 0-.671-1.469v-10.089c0-.44-.013-.874-.013-1.314q-.002-.508-.014-1.015c0-.339 0-.677-.013-1.016a166 166 0 0 0-1.572-19.616c.738-.515 1.362-1.341 1.815-2.39a9.4 9.4 0 0 0 .617-2.032c.129-.677.196-1.401.196-2.153q-.001-.457-.033-.894h2.107q-.033.437-.034.894c0 .752.067 1.476.196 2.153a9.4 9.4 0 0 0 .617 2.032c.454 1.043 1.077 1.875 1.815 2.39a166 166 0 0 0-1.571 19.616c-.007.339-.007.677-.014 1.016q-.002.508-.014 1.015c0 .44-.013.874-.013 1.314v10.089a6 6 0 0 0-.258.454 7 7 0 0 0-.413 1.015 8 8 0 0 0-.352 2.37c0 .853.129 1.652.352 2.37h-2.737a8 8 0 0 0 .352-2.37c0-.853-.128-1.652-.352-2.37zm151.081 0a6.2 6.2 0 0 0-.671-1.469v-10.089c0-.44-.013-.874-.013-1.314q-.002-.508-.014-1.015c0-.339 0-.677-.013-1.016a166 166 0 0 0-1.572-19.616c.738-.515 1.362-1.341 1.816-2.39a9.4 9.4 0 0 0 .616-2.032c.129-.677.197-1.401.197-2.153q-.002-.457-.034-.894h2.107q-.033.437-.034.894c0 .752.068 1.476.196 2.153.136.738.353 1.422.617 2.032.454 1.043 1.077 1.875 1.816 2.39a165 165 0 0 0-1.572 19.616c-.007.339-.007.677-.014 1.016s-.007.677-.013 1.015c0 .44-.014.874-.014 1.314v10.089a6 6 0 0 0-.257.454 7 7 0 0 0-.414 1.015 8 8 0 0 0-.352 2.37c0 .853.129 1.652.352 2.37h-2.737a8 8 0 0 0 .353-2.37c0-.853-.129-1.652-.353-2.37zm151.081 0a7 7 0 0 0-.413-1.015 6 6 0 0 0-.258-.454v-10.089c0-.44-.013-.874-.013-1.314q-.002-.508-.014-1.015c0-.339 0-.677-.013-1.016a166 166 0 0 0-1.572-19.616c.739-.515 1.362-1.341 1.816-2.39a9.4 9.4 0 0 0 .616-2.032c.129-.677.197-1.401.197-2.153q-.002-.457-.034-.894h2.107q-.032.437-.034.894c0 .752.068 1.476.196 2.153.136.738.353 1.422.617 2.032.454 1.043 1.077 1.875 1.816 2.39a165 165 0 0 0-1.572 19.616c-.007.339-.007.677-.014 1.016-.006.338-.006.677-.013 1.015 0 .44-.014.874-.014 1.314v10.089a6 6 0 0 0-.257.454 7 7 0 0 0-.413 1.015 8 8 0 0 0-.353 2.37c0 .853.129 1.652.353 2.37h-2.738a8 8 0 0 0 .353-2.37c0-.853-.129-1.652-.353-2.37zm4.607-42.997c.075-.358.163-.704.271-1.015.468-1.348 1.213-2.201 1.911-2.201.63 0 1.294.691 1.761 1.815q.08.183.149.386.162.467.271 1.015.05.244.088.508c.027.163.041.332.061.508q.04.436.041.894c0 .779-.088 1.503-.237 2.153-.007.041-.021.075-.027.115-.176.711-.427 1.321-.718 1.795l-.082.122c-.244.365-.515.636-.786.792a1.04 1.04 0 0 1-.521.156c-.441 0-.908-.346-1.308-.948-.027-.048-.061-.089-.088-.136-.305-.494-.562-1.144-.738-1.896a9.7 9.7 0 0 1-.238-2.153 9.5 9.5 0 0 1 .19-1.91m10.583-1.015q.204.467.359 1.015a10 10 0 0 1 .23 1.016c.095.582.156 1.205.156 1.869q-.002.445-.034.86c-.007.108-.014.217-.027.318 0 .061-.014.129-.02.19-.082.67-.224 1.286-.4 1.842a.4.4 0 0 1-.027.074c-.407 1.198-1.01 2.079-1.66 2.512-.291.196-.59.305-.881.305-.942 0-1.951-1.07-2.54-2.817l.033-.074a9.4 9.4 0 0 0 .617-2.032c.129-.677.196-1.401.196-2.153q-.002-.458-.033-.894a11 11 0 0 0-.339-2.031c-.027-.109-.061-.21-.088-.312.589-1.185 1.395-1.889 2.161-1.889s1.565.704 2.161 1.889c.048.102.102.203.149.312zm-5.888 30.131q-.029.509-.047 1.016a69 69 0 0 0-.088 3.332v7.59s-.041-.061-.068-.088c-.705-.846-1.626-1.354-2.642-1.354-.353 0-.691.067-1.016.183v-8.349c0-.44.013-.874.013-1.314q.002-.507.014-1.016c0-.338 0-.677.013-1.015.129-6.365.644-12.73 1.518-19.047.725-.055 1.402-.373 1.992-.915.928 1.768 2.317 2.871 3.902 2.871h.041a69 69 0 0 0-3.544 17.091l-.081 1.015zM3.387 382.97c.325-.366.678-.569 1.016-.569.63 0 1.294.691 1.762 1.815-.048.128-.102.257-.143.386-.108.325-.196.663-.277 1.015a12 12 0 0 0-.19 1.016q-.06.447-.102.914-.031.47-.033.948c0 .406.02.792.054 1.178 0 .068.013.143.02.21.061.589.156 1.158.291 1.693l-.08.122c-.4.596-.861.948-1.308.948-.34 0-.692-.203-1.017-.569a3 3 0 0 1-.291-.379c-.014-.027-.034-.047-.047-.075-.583-.92-1.017-2.383-1.017-4.103q0-.466.04-.894c.15-1.638.678-2.959 1.315-3.663zm32.845 45.644h122.653a8 8 0 0 0-.352 2.37c0 .853.129 1.652.352 2.37H36.232a8 8 0 0 0 .352-2.37 8 8 0 0 0-.352-2.37m151.081 0h122.654a8 8 0 0 0-.353 2.37c0 .853.129 1.652.353 2.37H187.313a8 8 0 0 0 .352-2.37c0-.853-.128-1.652-.352-2.37m151.081 0h122.654a8 8 0 0 0-.353 2.37c0 .853.129 1.652.353 2.37H338.394a8 8 0 0 0 .353-2.37c0-.853-.129-1.652-.353-2.37m151.081 0h122.654a8 8 0 0 0-.352 2.37c0 .853.128 1.652.352 2.37H489.475a8 8 0 0 0 .353-2.37c0-.853-.129-1.652-.353-2.37m156.854-2.031h-6.843c-.704-.846-1.626-1.354-2.642-1.354-.23 0-.454.034-.678.081v-6.229q.002-1.666.095-3.332h10.068zm-1.355-46.024a2.9 2.9 0 0 0-1.016-.189c-1.125 0-2.141.663-2.914 1.76-.867-1.103-1.964-1.753-3.184-1.753-1.219 0-2.317.656-3.184 1.753-.772-1.097-1.782-1.76-2.913-1.76-1.823 0-3.354 1.72-4.031 4.232h-2.785c-.677-2.512-2.209-4.232-4.031-4.232-1.125 0-2.141.663-2.913 1.754-.867-1.104-1.965-1.754-3.184-1.754s-2.317.657-3.185 1.754c-.772-1.097-1.781-1.754-2.913-1.754-.352 0-.691.068-1.016.189v-19.656h37.262v19.656zm0-21.688h-37.262v-4.739h37.262zm0-6.771H499.313v-4.74h145.661zm0-13.542H499.313v-8.803h145.661zm-.19-10.834H491.772l-1.016-11.511h140.377l-28.008-163.862h11.687zm-51.977-197.718v11.511H475.356l-1.016-11.511zM175.471 8.803H472.89v4.74H175.471zm-3.388-2.032v-4.74h304.195v4.74zm10.162 13.543v-4.74h283.87v4.74zm-7.886 121.203H55.554v-11.511H175.37l-1.016 11.511zm-140.81 10.834h11.687L17.228 316.213H158.96l-1.016 11.511H3.577zM3.387 329.755h126.691v8.803H3.387zm0 17.605h126.691v4.74H3.387zm0 6.772h37.262v4.739H3.387zm37.262 6.771v19.656a2.9 2.9 0 0 0-1.016-.189c-1.125 0-2.14.663-2.913 1.76-.867-1.103-1.965-1.753-3.184-1.753s-2.318.656-3.185 1.753c-.772-1.097-1.781-1.76-2.913-1.76-1.822 0-3.354 1.72-4.031 4.232h-2.785c-.677-2.512-2.208-4.232-4.03-4.232-1.125 0-2.141.663-2.914 1.754-.867-1.104-1.965-1.754-3.184-1.754s-2.317.657-3.184 1.754c-.773-1.097-1.782-1.754-2.913-1.754-.353 0-.692.068-1.017.189v-19.656zM3.387 394.501c.325.122.664.19 1.016.19.807 0 1.552-.339 2.195-.928a6.5 6.5 0 0 0 1.301 1.747 67.4 67.4 0 0 1 4.072 18.208H3.387zm4.417 34.113a8 8 0 0 0-.352 2.37c0 .853.129 1.652.352 2.37H3.387v-4.74zM3.387 533.567h71.137v9.48H3.387zm33.875-17.876v-46.45h34.437a73.7 73.7 0 0 0-14.83 11.464 73.5 73.5 0 0 0-16.01 23.943 73 73 0 0 0-3.59 11.043zm142.03 5.025a73.8 73.8 0 0 0-4.607-16.075 73.9 73.9 0 0 0-16.01-23.943 74 74 0 0 0-14.857-11.463h70.94a73.6 73.6 0 0 0-14.857 11.463 73.9 73.9 0 0 0-16.009 23.943 73.7 73.7 0 0 0-4.607 16.075zm40.216 12.851v9.48h-80.622v-9.48zm104.767-12.851a73.7 73.7 0 0 0-4.607-16.075 73.9 73.9 0 0 0-16.009-23.943 74 74 0 0 0-14.857-11.463h70.94a73.6 73.6 0 0 0-14.857 11.463 73.9 73.9 0 0 0-16.01 23.943 73.7 73.7 0 0 0-4.606 16.075zm40.216 12.851v9.48H283.87v-9.48zm104.768-12.851a73.7 73.7 0 0 0-4.607-16.075 73.9 73.9 0 0 0-16.009-23.943 74 74 0 0 0-14.858-11.463h70.941a73.6 73.6 0 0 0-14.858 11.463 73.9 73.9 0 0 0-16.009 23.943 73.8 73.8 0 0 0-4.607 16.075zm40.216 12.851v9.48h-80.622v-9.48zm101.726-17.876a74 74 0 0 0-3.591-11.043 73.3 73.3 0 0 0-16.009-23.943 74 74 0 0 0-14.83-11.464h34.43zm33.773 17.876v9.48h-71.029v-9.48zm-74.938 185.53c-.65 0-1.023.474-1.138.853-.115.373-.074.921.373 1.294.379.325.508.643.508.9 0 .305-.183.704-.739 1.07-.548.366-1.361.623-2.31.623-.948 0-1.761-.257-2.31-.623-.556-.366-.739-.765-.739-1.07 0-.257.129-.575.508-.9.448-.373.488-.921.373-1.294-.115-.379-.494-.853-1.138-.853h-1.768v-6.771h10.162v6.771zm-63.948-8.802v-8.803h71.136v8.803zm13.814 8.802c-.651 0-1.023.474-1.138.853-.116.373-.075.921.372 1.294.38.325.508.643.508.9 0 .305-.183.704-.738 1.07-.549.366-1.362.623-2.31.623-.949 0-1.762-.257-2.311-.623-.555-.366-.738-.765-.738-1.07 0-.257.129-.575.508-.9.447-.373.488-.921.373-1.294-.116-.379-.495-.853-1.139-.853h-1.768v-6.771h10.163v6.771zm-8.394-98.182h29.132v78.546h-29.132zM455.953 1145h26.422v10.84h-26.422zm-2.032-2.03h-2.033V582.997h34.552v559.973zm-4.065-562.005h-12.297l-3.164-29.116h69.552l-3.164 29.116zm-23.035 37.919h-29.132v-71.436c0-8.024 6.531-14.558 14.566-14.558s14.566 6.534 14.566 14.558zm-1.768 100.213c-.651 0-1.023.474-1.139.853-.115.373-.074.921.373 1.294.379.325.508.643.508.9 0 .305-.183.704-.738 1.07-.549.366-1.362.623-2.311.623s-1.761-.257-2.31-.623c-.555-.366-.738-.765-.738-1.07 0-.257.128-.575.508-.9.447-.373.488-.921.372-1.294-.115-.379-.494-.853-1.138-.853h-1.768v-6.771h10.162v6.771zm-63.949-8.802v-8.803h71.137v8.803zm13.814 8.802c-.65 0-1.023.474-1.138.853-.115.373-.075.921.372 1.294.38.325.509.643.509.9 0 .305-.183.704-.739 1.07-.549.366-1.362.623-2.31.623-.949 0-1.762-.257-2.31-.623-.556-.366-.739-.765-.739-1.07 0-.257.129-.575.508-.9.447-.373.488-.921.373-1.294-.115-.379-.495-.853-1.138-.853h-1.769v-6.771H376.7v6.771zm-8.394-98.182h29.132v78.546h-29.132zM310.969 1145h26.423v10.84h-26.423zm-2.032-2.03h-2.033V582.997h34.553v559.973zm-4.065-562.005h-12.297l-3.164-29.116h69.552l-3.164 29.116zm-23.035 37.919h-29.132v-71.436c0-8.024 6.538-14.558 14.566-14.558s14.566 6.534 14.566 14.558zm-1.768 100.213c-.651 0-1.023.474-1.138.853-.116.373-.075.921.372 1.294.38.325.508.643.508.9 0 .305-.183.704-.738 1.07-.549.366-1.362.623-2.31.623-.949 0-1.762-.257-2.311-.623-.555-.366-.738-.765-.738-1.07 0-.257.129-.575.508-.9.447-.373.488-.921.373-1.294-.116-.379-.495-.853-1.139-.853h-1.768v-6.771h10.163v6.771zm-63.949-8.802v-8.803h71.137v8.803zm13.814 8.802c-.65 0-1.023.474-1.138.853-.115.373-.074.921.373 1.294.379.325.508.643.508.9 0 .305-.183.704-.739 1.07-.548.366-1.361.623-2.31.623-.948 0-1.761-.257-2.31-.623-.556-.366-.739-.765-.739-1.07 0-.257.129-.575.508-.9.448-.373.488-.921.373-1.294-.115-.379-.494-.853-1.138-.853h-1.768v-6.771h10.162v6.771zm-8.394-98.182h29.132v78.546H221.54zM165.986 1145h26.422v10.84h-26.422zm-2.033-2.03h-2.032V582.997h34.552v559.973zm-4.065-562.005h-12.296l-3.164-29.116h69.551l-3.164 29.116zm-23.035 37.919h-29.132v-71.436c0-8.024 6.538-14.558 14.566-14.558s14.566 6.534 14.566 14.558zm-1.768 100.213c-.65 0-1.023.474-1.138.853-.115.373-.075.921.373 1.294.379.325.508.643.508.9 0 .305-.183.704-.739 1.07-.549.366-1.362.623-2.31.623-.949 0-1.762-.257-2.31-.623-.556-.366-.739-.765-.739-1.07 0-.257.129-.575.508-.9.447-.373.488-.921.373-1.294-.115-.379-.495-.853-1.138-.853h-1.768v-6.771h10.162v6.771zm-63.949-8.802v-8.803h71.137v8.803zm13.815 8.802c-.65 0-1.023.474-1.139.853-.115.373-.074.921.373 1.294.38.325.508.643.508.9 0 .305-.183.704-.738 1.07-.55.366-1.362.623-2.31.623-.95 0-1.762-.257-2.31-.623-.556-.366-.74-.765-.74-1.07 0-.257.13-.575.509-.9.447-.373.488-.921.372-1.294-.115-.379-.494-.853-1.145-.853h-1.768v-6.771h10.163v6.771zm-8.395-98.182h29.133v78.546H76.556zm568.526-71.097h-71.137v-4.74h71.137zM76.556 532.552c0-12.432 7.575-23.124 18.347-27.728-3.767 3.291-6.152 8.125-6.152 13.508 0 5.011 2.067 9.548 5.393 12.811a16.5 16.5 0 0 0-3.022-.284c-6.273 0-11.747 3.494-14.566 8.64zm46.07-14.22c0 8.776-7.141 15.912-15.921 15.912s-15.921-7.136-15.921-15.912 6.7-15.465 15.101-15.892c.271-.006.542-.02.82-.02q.415 0 .82.02c8.401.427 15.101 7.394 15.101 15.892m-15.921 17.944c1.267 0 2.5-.136 3.685-.386a16.6 16.6 0 0 0-3.685 5.837 16.7 16.7 0 0 0-3.686-5.837c1.193.25 2.426.386 3.686.386m17.953-17.944c0-5.383-2.384-10.217-6.151-13.508 10.779 4.597 18.346 15.296 18.346 27.728v6.947c-2.818-5.146-8.292-8.64-14.566-8.64-1.036 0-2.046.101-3.021.284a17.88 17.88 0 0 0 5.392-12.811m14.228 29.116v-2.37h80.622v4.74h-80.622zm82.654-14.896c0-12.432 7.574-23.124 18.347-27.728-3.767 3.291-6.152 8.125-6.152 13.508 0 5.011 2.066 9.548 5.393 12.811a16.5 16.5 0 0 0-3.022-.284c-6.273 0-11.748 3.494-14.566 8.64zm46.07-14.22c0 8.776-7.141 15.912-15.921 15.912-8.781 0-15.922-7.136-15.922-15.912s6.701-15.465 15.102-15.892c.271-.006.542-.02.82-.02q.414 0 .819.02c8.401.427 15.102 7.394 15.102 15.892m-15.921 17.944c1.266 0 2.5-.136 3.685-.386a16.6 16.6 0 0 0-3.685 5.837 16.7 16.7 0 0 0-3.686-5.837c1.192.25 2.425.386 3.686.386m17.953-17.944c0-5.383-2.385-10.217-6.151-13.508 10.778 4.597 18.346 15.296 18.346 27.728v6.947c-2.818-5.146-8.292-8.64-14.566-8.64-1.037 0-2.046.101-3.022.284a17.87 17.87 0 0 0 5.393-12.811m14.228 29.116v-2.37h80.621v4.74H283.87zm82.654-14.896c0-12.432 7.574-23.124 18.346-27.728-3.767 3.291-6.151 8.125-6.151 13.508 0 5.011 2.066 9.548 5.393 12.811a16.5 16.5 0 0 0-3.022-.284c-6.274 0-11.748 3.494-14.566 8.64zm46.069-14.22c0 8.776-7.14 15.912-15.921 15.912s-15.921-7.136-15.921-15.912 6.701-15.465 15.102-15.892c.271-.006.542-.02.819-.02q.415 0 .82.02c8.401.427 15.101 7.394 15.101 15.892m-15.921 17.944c1.267 0 2.5-.136 3.686-.379a16.6 16.6 0 0 0-3.686 5.836 16.7 16.7 0 0 0-3.685-5.836 18 18 0 0 0 3.685.379m17.954-17.944c0-5.383-2.385-10.211-6.152-13.508 10.779 4.597 18.347 15.296 18.347 27.728v6.947c-2.819-5.146-8.293-8.64-14.566-8.64-1.037 0-2.046.101-3.022.284a17.87 17.87 0 0 0 5.393-12.811m14.227 29.116v-2.37h80.622v4.74h-80.622zm82.655-14.896c0-12.432 7.574-23.124 18.346-27.728-3.767 3.291-6.152 8.125-6.152 13.508 0 5.011 2.067 9.548 5.393 12.811a16.5 16.5 0 0 0-3.021-.284c-6.274 0-11.748 3.494-14.566 8.64zm46.069-14.22c0 8.776-7.141 15.912-15.921 15.912s-15.921-7.136-15.921-15.912 6.7-15.465 15.101-15.892c.271-.006.542-.02.82-.02q.415 0 .82.02c8.401.427 15.101 7.394 15.101 15.892m-15.921 17.944c1.267 0 2.5-.136 3.686-.379a16.6 16.6 0 0 0-3.686 5.836 16.7 16.7 0 0 0-3.686-5.836c1.193.25 2.426.379 3.686.379m17.954-17.944c0-5.383-2.385-10.211-6.152-13.508 10.779 4.597 18.346 15.296 18.346 27.728v6.947c-2.818-5.146-8.292-8.64-14.566-8.64-1.036 0-2.046.101-3.021.284a17.88 17.88 0 0 0 5.393-12.811m14.18 12.527c-.868-16.644-14.458-29.969-31.213-30.45-.304-.007-.616-.02-.921-.02s-.616.013-.921.02c-16.755.474-30.345 13.8-31.213 30.45h-8.841c.258-10.38 4.458-20.104 11.89-27.471 7.676-7.611 17.886-11.802 28.746-11.802s21.07 4.191 28.746 11.802c7.432 7.367 11.633 17.091 11.89 27.471zm-144.984 0c-.867-16.644-14.458-29.969-31.212-30.45-.305-.007-.617-.02-.922-.02s-.616.013-.921.02c-16.755.474-30.345 13.8-31.212 30.45h-8.842c.258-10.38 4.458-20.104 11.89-27.471 7.676-7.611 17.886-11.802 28.747-11.802 10.86 0 21.07 4.191 28.746 11.802 7.432 7.367 11.632 17.091 11.89 27.471zm-144.984 0c-.867-16.644-14.458-29.969-31.212-30.45-.305-.007-.617-.02-.921-.02s-.617.013-.922.02c-16.754.474-30.345 13.8-31.212 30.45h-8.841c.257-10.38 4.458-20.104 11.89-27.471 7.676-7.611 17.886-11.802 28.746-11.802s21.07 4.191 28.746 11.802c7.432 7.367 11.632 17.091 11.89 27.471zm-144.984 0c-.867-16.644-14.457-29.969-31.212-30.45-.305-.007-.616-.02-.921-.02s-.617.013-.922.02c-16.754.474-30.344 13.8-31.212 30.45H65.73c.257-10.38 4.458-20.104 11.89-27.471 7.676-7.611 17.886-11.802 28.746-11.802s21.07 4.191 28.746 11.802c7.432 7.367 11.633 17.091 11.89 27.471zM3.387 545.078h71.137v4.74H3.387zm73.17 6.771v-4.401c0-8.024 6.537-14.558 14.566-14.558s14.566 6.534 14.566 14.558v71.436H76.556zm60.296 147.612h-29.132v-78.546h29.132zm84.687-147.612v-4.401c0-8.024 6.538-14.558 14.566-14.558s14.566 6.534 14.566 14.558v71.436H221.54zm60.297 147.612h-29.132v-78.546h29.132zm84.687-147.612v-4.401c0-8.024 6.531-14.558 14.566-14.558s14.566 6.534 14.566 14.558v71.436h-29.132zm60.297 147.612h-29.132v-78.546h29.132zm84.687-147.612v-4.401c0-8.024 6.531-14.558 14.566-14.558s14.566 6.534 14.566 14.558v71.436h-29.132zm60.296 147.612h-29.132v-78.546h29.132zm-29.132-80.577v-71.436c0-8.024 6.531-14.558 14.566-14.558s14.566 6.534 14.566 14.558v71.436zm41.321-87.348c-.088-11.179-4.513-21.675-12.493-29.59-8.063-7.99-18.781-12.391-30.176-12.391s-22.12 4.401-30.176 12.391c-7.98 7.915-12.404 18.411-12.493 29.59h-8.136c0-13.38 5.284-25.961 14.878-35.427 9.6-9.466 22.357-14.68 35.934-14.68s26.334 5.214 35.934 14.68c9.593 9.466 14.878 22.047 14.878 35.427zm-144.984 0c-.088-11.179-4.512-21.675-12.493-29.59-8.062-7.99-18.78-12.391-30.176-12.391s-22.12 4.401-30.175 12.391c-7.981 7.915-12.405 18.411-12.493 29.59h-8.137c0-13.38 5.284-25.961 14.878-35.427 9.6-9.466 22.357-14.68 35.934-14.68s26.334 5.214 35.934 14.68c9.594 9.466 14.878 22.047 14.878 35.427zm-144.984 0c-.088-11.179-4.512-21.675-12.493-29.59-8.062-7.99-18.78-12.391-30.175-12.391-11.396 0-22.121 4.401-30.176 12.391-7.981 7.915-12.405 18.411-12.493 29.59h-8.137c0-13.38 5.285-25.961 14.878-35.427 9.6-9.466 22.357-14.68 35.934-14.68s26.335 5.214 35.935 14.68c9.593 9.466 14.877 22.047 14.877 35.427zm-144.984 0c-.088-11.179-4.512-21.675-12.493-29.59-8.062-7.99-18.78-12.391-30.175-12.391s-22.12 4.401-30.176 12.391c-7.98 7.915-12.405 18.411-12.493 29.59h-8.136c0-13.38 5.284-25.961 14.877-35.427 9.6-9.466 22.358-14.68 35.935-14.68s26.334 5.214 35.934 14.68c9.593 9.466 14.878 22.047 14.878 35.427zm-80.052 20.313-3.184 29.116H3.387v-29.116zM21.002 1145h26.422v10.84H21.002zm-2.033-2.03h-2.032V582.997h34.552v559.973zm626.005 58.23H3.387v-6.09h641.587zm0 16.25H3.387v-6.09h641.587zm0-8.12H3.387v-6.1h641.587zM3.387 1193.08v-6.1h641.587v6.1zm641.587-8.13H3.387V582.997h11.517V1145h4.065v12.87h30.488V1145h4.065V582.997h14.105l3.408-31.148h3.496v147.612h-5.42v12.865h5.42v7.617c0 .657.528 1.185 1.185 1.185h1.037c-.122.319-.19.657-.19 1.016 0 1.192.725 2.146 1.647 2.763.92.616 2.14.961 3.434.961s2.514-.345 3.442-.961c.915-.617 1.64-1.571 1.64-2.763 0-.359-.068-.697-.19-1.016h1.036c.658 0 1.186-.528 1.186-1.185v-7.617h35.907v7.617c0 .657.529 1.185 1.186 1.185h1.036a2.8 2.8 0 0 0-.189 1.016c0 1.192.725 2.146 1.639 2.763.922.616 2.141.961 3.442.961s2.513-.345 3.442-.961c.914-.617 1.639-1.571 1.639-2.763 0-.359-.068-.697-.19-1.016h1.037c.657 0 1.186-.528 1.186-1.185v-7.617h5.42v-12.865h-5.42V551.849h3.489l3.387 31.148h14.126V1145h4.065v12.87h30.487V1145h4.065V582.997h14.126l3.387-31.148h3.489v147.612h-5.42v12.865h5.42v7.617c0 .657.529 1.185 1.186 1.185h1.037c-.122.319-.19.657-.19 1.016 0 1.192.725 2.146 1.639 2.763.929.616 2.141.961 3.442.961s2.514-.345 3.442-.961c.914-.617 1.639-1.571 1.639-2.763a2.8 2.8 0 0 0-.189-1.016h1.036c.657 0 1.186-.528 1.186-1.185v-7.617h35.907v7.617c0 .657.528 1.185 1.186 1.185h1.036c-.122.319-.19.657-.19 1.016 0 1.192.725 2.146 1.64 2.763.928.616 2.141.961 3.442.961 1.3 0 2.513-.345 3.441-.961.915-.617 1.64-1.571 1.64-2.763 0-.359-.068-.697-.19-1.016h1.037c.657 0 1.185-.528 1.185-1.185v-7.617h5.42v-12.865h-5.42V551.849h3.489l3.388 31.148h14.126V1145h4.065v12.87h30.487V1145h4.065V582.997h14.126l3.387-31.148h3.489v147.612h-5.42v12.865h5.42v7.617c0 .657.529 1.185 1.186 1.185h1.036a2.8 2.8 0 0 0-.189 1.016c0 1.192.725 2.146 1.639 2.763.922.616 2.141.961 3.442.961s2.513-.345 3.441-.961c.915-.617 1.64-1.571 1.64-2.763 0-.359-.068-.697-.19-1.016h1.037c.657 0 1.185-.528 1.185-1.185v-7.617h35.908v7.617c0 .657.528 1.185 1.185 1.185h1.037c-.122.319-.19.657-.19 1.016 0 1.192.725 2.146 1.64 2.763.921.616 2.141.961 3.441.961 1.301 0 2.514-.345 3.442-.961.915-.617 1.64-1.571 1.64-2.763 0-.359-.068-.697-.19-1.016h1.036c.658 0 1.186-.528 1.186-1.185v-7.617h5.42v-12.865h-5.42V551.849h3.489l3.388 31.148h14.125V1145h4.065v12.87h30.488V1145h4.065V582.997h14.125l3.388-31.148h3.489v147.612h-5.42v12.865h5.42v7.617c0 .657.528 1.185 1.185 1.185h1.037c-.122.319-.19.657-.19 1.016 0 1.192.725 2.146 1.64 2.763.921.616 2.141.961 3.442.961 1.3 0 2.513-.345 3.441-.961.915-.617 1.64-1.571 1.64-2.763 0-.359-.068-.697-.19-1.016h1.037c.657 0 1.185-.528 1.185-1.185v-7.617h35.907v7.617c0 .657.529 1.185 1.186 1.185h1.037c-.122.319-.19.657-.19 1.016 0 1.192.725 2.146 1.639 2.763.922.616 2.141.961 3.442.961s2.514-.345 3.442-.961c.914-.617 1.639-1.571 1.639-2.763a2.8 2.8 0 0 0-.189-1.016h1.036c.657 0 1.186-.528 1.186-1.185v-7.617h5.42v-12.865h-5.42V551.849h3.597l3.408 31.148h14.105V1145h4.065v12.87h30.488V1145h4.065V582.997h11.409v601.953zM601.045 1145h26.422v10.84h-26.422zm-2.032-2.03h-2.033V582.997h34.552v559.973zm45.961-562.005h-62.309l-3.184-29.116h65.493zm0-49.429H613.24V467.21h-40.419l-.468 1.916a71.7 71.7 0 0 1 17.812 13.008 71.5 71.5 0 0 1 15.568 23.286 71.6 71.6 0 0 1 5.454 26.109h-17.018c0-13.928-5.502-27.023-15.481-36.876-9.98-9.845-23.252-15.262-37.364-15.262s-27.384 5.424-37.364 15.269c-9.986 9.845-15.48 22.941-15.48 36.869h-18.178a71.8 71.8 0 0 1 5.447-26.116 71.9 71.9 0 0 1 15.569-23.286 71.7 71.7 0 0 1 17.812-13.008l-.468-1.916h-78.786l-.467 1.916a72 72 0 0 1 17.811 13.008 71.8 71.8 0 0 1 15.569 23.286 71.8 71.8 0 0 1 5.447 26.116h-19.051c0-13.928-5.501-27.023-15.481-36.876-9.979-9.845-23.251-15.262-37.364-15.262s-27.384 5.424-37.363 15.269c-9.987 9.845-15.481 22.941-15.481 36.869h-18.177a71.8 71.8 0 0 1 5.447-26.116 71.9 71.9 0 0 1 15.569-23.286 71.7 71.7 0 0 1 17.811-13.008l-.468-1.916h-78.785l-.468 1.916a72 72 0 0 1 17.811 13.008 71.8 71.8 0 0 1 15.569 23.286 71.8 71.8 0 0 1 5.447 26.116h-19.051c0-13.928-5.501-27.024-15.481-36.869-9.979-9.845-23.251-15.269-37.363-15.269-14.113 0-27.385 5.424-37.364 15.269-9.986 9.845-15.481 22.941-15.481 36.869h-18.177a71.8 71.8 0 0 1 5.447-26.116 71.9 71.9 0 0 1 15.569-23.286 71.7 71.7 0 0 1 17.811-13.008l-.467-1.916h-78.786l-.468 1.916a72 72 0 0 1 17.812 13.008 71.9 71.9 0 0 1 15.569 23.286 71.8 71.8 0 0 1 5.447 26.116h-19.052c0-13.928-5.501-27.023-15.48-36.876-9.98-9.845-23.252-15.262-37.364-15.262s-27.384 5.424-37.364 15.269c-9.986 9.845-15.48 22.941-15.48 36.869h-16.24a71.4 71.4 0 0 1 5.447-26.109 71.4 71.4 0 0 1 15.569-23.286 71.6 71.6 0 0 1 17.811-13.008l-.467-1.916H35.243v64.326H3.387v-96.151h5.488c.704.847 1.626 1.355 2.642 1.355s1.938-.508 2.642-1.355h.136c.704.847 1.626 1.355 2.642 1.355s1.938-.508 2.642-1.355h4.878c.705.847 1.626 1.355 2.642 1.355s1.938-.508 2.643-1.355h.135c.705.847 1.626 1.355 2.642 1.355s1.938-.508 2.642-1.355h124.795c.705.847 1.626 1.355 2.642 1.355s1.938-.508 2.642-1.355h.136c.704.847 1.626 1.355 2.642 1.355s1.938-.508 2.642-1.355h4.878c.705.847 1.626 1.355 2.642 1.355s1.938-.508 2.643-1.355h.135c.705.847 1.626 1.355 2.642 1.355s1.938-.508 2.643-1.355h124.794c.705.847 1.626 1.355 2.642 1.355s1.938-.508 2.643-1.355h.135c.705.847 1.626 1.355 2.642 1.355s1.938-.508 2.642-1.355h4.878c.705.847 1.626 1.355 2.643 1.355s1.937-.508 2.642-1.355h.135c.705.847 1.626 1.355 2.643 1.355s1.937-.508 2.642-1.355h124.794c.705.847 1.626 1.355 2.642 1.355s1.938-.508 2.643-1.355h.135c.705.847 1.626 1.355 2.642 1.355s1.938-.508 2.643-1.355h4.878c.704.847 1.626 1.355 2.642 1.355s1.937-.508 2.642-1.355h.136c.704.847 1.626 1.355 2.642 1.355s1.937-.508 2.642-1.355h124.794c.705.847 1.626 1.355 2.643 1.355s1.937-.508 2.642-1.355h.135c.705.847 1.626 1.355 2.643 1.355s1.937-.508 2.642-1.355h4.878c.704.847 1.626 1.355 2.642 1.355s1.938-.508 2.642-1.355h.136c.704.847 1.626 1.355 2.642 1.355s1.938-.508 2.642-1.355h5.488zm0-98.182h-4.417a8 8 0 0 0 .352-2.37c0-.853-.129-1.652-.352-2.37h4.417zm-8.584-19.636a67 67 0 0 1 4.072-18.208 6.5 6.5 0 0 0 1.301-1.747c.643.589 1.388.928 2.195.928.352 0 .691-.068 1.016-.19v19.217zM434.836 98.182h3.116l-2.514-1.835c-31.117-22.697-69.449-36.084-110.912-36.084s-79.795 13.38-110.913 36.084l-2.52 1.835zM324.519 62.295c39.891 0 76.835 12.52 107.146 33.855H217.374c30.311-21.336 67.261-33.855 107.145-33.855M60.127 375.122h1.037a2.8 2.8 0 0 0-.19 1.016c0 1.192.725 2.146 1.646 2.763.922.616 2.141.961 3.435.961s2.514-.345 3.442-.961c.915-.61 1.64-1.571 1.64-2.763 0-.359-.068-.698-.19-1.016h1.036c.657 0 1.186-.528 1.186-1.185v-8.464c0-.657-.528-1.185-1.186-1.185H60.127c-.657 0-1.186.528-1.186 1.185v8.464c0 .657.529 1.185 1.186 1.185m9.241-2.031c-.65 0-1.023.474-1.138.853-.115.372-.075.921.373 1.293.379.325.508.644.508.901 0 .305-.183.697-.739 1.07-.549.365-1.362.623-2.31.623s-1.761-.258-2.31-.623c-.556-.373-.739-.765-.739-1.07 0-.257.129-.576.508-.901.448-.372.488-.921.373-1.293-.115-.379-.494-.853-1.145-.853h-1.768v-6.771h10.162v6.771zm22.601 2.031h1.037c-.122.318-.19.657-.19 1.016 0 1.192.725 2.146 1.647 2.763.921.616 2.14.961 3.435.961s2.513-.345 3.441-.961c.915-.61 1.64-1.571 1.64-2.763 0-.359-.068-.698-.19-1.016h1.037c.657 0 1.185-.528 1.185-1.185v-8.464c0-.657-.528-1.185-1.185-1.185H91.969c-.657 0-1.185.528-1.185 1.185v8.464c0 .657.528 1.185 1.185 1.185m9.241-2.031c-.65 0-1.023.474-1.138.853-.115.372-.074.921.373 1.293.379.325.508.644.508.901 0 .305-.183.697-.739 1.07-.548.365-1.361.623-2.31.623-.948 0-1.761-.258-2.31-.623-.556-.373-.738-.765-.738-1.07 0-.257.128-.576.508-.901.447-.372.487-.921.372-1.293-.115-.379-.494-.853-1.138-.853h-1.775v-6.771h10.162v6.771zm22.602 2.031h1.036c-.122.318-.19.657-.19 1.016 0 1.192.725 2.146 1.64 2.763.921.616 2.141.961 3.442.961 1.3 0 2.513-.345 3.441-.961.915-.61 1.64-1.571 1.64-2.763 0-.359-.068-.698-.19-1.016h1.037c.657 0 1.185-.528 1.185-1.185v-8.464c0-.657-.528-1.185-1.185-1.185h-11.856c-.658 0-1.186.528-1.186 1.185v8.464c0 .657.528 1.185 1.186 1.185m9.241-2.031c-.651 0-1.023.474-1.139.853-.115.372-.074.921.373 1.293.379.325.508.644.508.901 0 .305-.183.697-.738 1.07-.549.365-1.362.623-2.311.623s-1.761-.258-2.31-.623c-.555-.373-.738-.765-.738-1.07 0-.257.128-.576.508-.901.447-.372.488-.921.372-1.293-.115-.379-.494-.853-1.138-.853h-1.768v-6.771h10.162v6.771zm77.478 2.031h1.036a2.8 2.8 0 0 0-.189 1.016c0 1.192.725 2.146 1.639 2.763.928.616 2.141.961 3.442.961s2.513-.345 3.442-.961c.914-.61 1.639-1.571 1.639-2.763 0-.359-.068-.698-.19-1.016h1.037c.657 0 1.186-.528 1.186-1.185v-8.464c0-.657-.529-1.185-1.186-1.185h-11.856c-.657 0-1.186.528-1.186 1.185v8.464c0 .657.529 1.185 1.186 1.185m9.241-2.031c-.651 0-1.023.474-1.138.853-.116.372-.075.921.372 1.293.38.325.508.644.508.901 0 .305-.183.697-.738 1.07-.549.365-1.362.623-2.31.623-.949 0-1.762-.258-2.311-.623-.555-.373-.738-.765-.738-1.07 0-.257.129-.576.508-.901.447-.372.488-.921.373-1.293-.115-.379-.495-.853-1.138-.853h-1.769v-6.771h10.163v6.771zm22.94 2.031h1.036a2.8 2.8 0 0 0-.189 1.016c0 1.192.725 2.146 1.639 2.763.928.616 2.141.961 3.442.961s2.513-.345 3.442-.961c.914-.61 1.639-1.571 1.639-2.763 0-.359-.068-.698-.19-1.016h1.037c.657 0 1.186-.528 1.186-1.185v-8.464c0-.657-.529-1.185-1.186-1.185h-11.856c-.657 0-1.186.528-1.186 1.185v8.464c0 .657.529 1.185 1.186 1.185m9.241-2.031c-.651 0-1.023.474-1.138.853-.116.372-.075.921.372 1.293.38.325.508.644.508.901 0 .305-.183.697-.738 1.07-.549.365-1.362.623-2.31.623-.949 0-1.762-.258-2.311-.623-.555-.373-.738-.765-.738-1.07 0-.257.129-.576.508-.901.447-.372.488-.921.373-1.293-.116-.379-.495-.853-1.139-.853h-1.768v-6.771h10.163v6.771zm22.94 2.031h1.036a2.8 2.8 0 0 0-.189 1.016c0 1.192.725 2.146 1.639 2.763.928.616 2.141.961 3.442.961s2.513-.345 3.441-.961c.915-.61 1.64-1.571 1.64-2.763 0-.359-.068-.698-.19-1.016h1.037c.657 0 1.186-.528 1.186-1.185v-8.464c0-.657-.529-1.185-1.186-1.185h-11.856c-.657 0-1.186.528-1.186 1.185v8.464c0 .657.529 1.185 1.186 1.185m9.241-2.031c-.651 0-1.023.474-1.138.853-.116.372-.075.921.372 1.293.38.325.508.644.508.901 0 .305-.183.697-.738 1.07-.549.365-1.362.623-2.31.623-.949 0-1.762-.258-2.311-.623-.555-.373-.738-.765-.738-1.07 0-.257.129-.576.508-.901.447-.372.488-.921.373-1.293-.116-.379-.495-.853-1.139-.853h-1.768v-6.771h10.163v6.771zm77.478 2.031h1.037c-.122.318-.19.657-.19 1.016 0 1.192.725 2.146 1.639 2.763.922.616 2.141.961 3.442.961s2.514-.345 3.442-.961c.914-.61 1.639-1.571 1.639-2.763 0-.359-.068-.698-.189-1.016h1.036c.657 0 1.186-.528 1.186-1.185v-8.464c0-.657-.529-1.185-1.186-1.185h-11.856c-.657 0-1.186.528-1.186 1.185v8.464c0 .657.529 1.185 1.186 1.185m9.241-2.031c-.65 0-1.023.474-1.138.853-.115.372-.075.921.372 1.293.38.325.509.644.509.901 0 .305-.183.697-.739 1.07-.549.365-1.362.623-2.31.623-.949 0-1.762-.258-2.31-.623-.556-.373-.739-.765-.739-1.07 0-.257.129-.576.508-.901.447-.372.488-.921.373-1.293-.115-.379-.495-.853-1.138-.853h-1.769v-6.771h10.163v6.771zm22.94 2.031h1.037c-.122.318-.19.657-.19 1.016 0 1.192.725 2.146 1.639 2.763.922.616 2.141.961 3.442.961s2.514-.345 3.442-.961c.914-.61 1.639-1.571 1.639-2.763 0-.359-.068-.698-.189-1.016h1.036c.657 0 1.186-.528 1.186-1.185v-8.464c0-.657-.529-1.185-1.186-1.185h-11.856c-.657 0-1.186.528-1.186 1.185v8.464c0 .657.529 1.185 1.186 1.185m9.241-2.031c-.65 0-1.023.474-1.138.853-.115.372-.075.921.372 1.293.38.325.509.644.509.901 0 .305-.183.697-.739 1.07-.549.365-1.362.623-2.31.623-.949 0-1.762-.258-2.31-.623-.556-.373-.739-.765-.739-1.07 0-.257.129-.576.508-.901.447-.372.488-.921.373-1.293-.115-.379-.495-.853-1.138-.853h-1.769v-6.771h10.163v6.771zm22.94 2.031h1.036a2.8 2.8 0 0 0-.189 1.016c0 1.192.725 2.146 1.639 2.763.922.616 2.141.961 3.442.961s2.513-.345 3.442-.961c.914-.61 1.639-1.571 1.639-2.763 0-.359-.068-.698-.19-1.016h1.037c.657 0 1.186-.528 1.186-1.185v-8.464c0-.657-.529-1.185-1.186-1.185h-11.856c-.657 0-1.186.528-1.186 1.185v8.464c0 .657.529 1.185 1.186 1.185m9.241-2.031c-.65 0-1.023.474-1.138.853-.115.372-.075.921.372 1.293.38.325.508.644.508.901 0 .305-.182.697-.738 1.07-.549.365-1.362.623-2.31.623-.949 0-1.762-.258-2.311-.623-.555-.373-.738-.765-.738-1.07 0-.257.129-.576.508-.901.447-.372.488-.921.373-1.293-.115-.379-.495-.853-1.138-.853h-1.769v-6.771h10.163v6.771zm78.156 2.031h1.036a2.8 2.8 0 0 0-.189 1.016c0 1.192.724 2.146 1.639 2.763.921.616 2.141.961 3.442.961 1.3 0 2.513-.345 3.441-.961.915-.61 1.64-1.571 1.64-2.763 0-.359-.068-.698-.19-1.016h1.037c.657 0 1.185-.528 1.185-1.185v-8.464c0-.657-.528-1.185-1.185-1.185h-11.856c-.658 0-1.186.528-1.186 1.185v8.464c0 .657.528 1.185 1.186 1.185m9.241-2.031c-.651 0-1.023.474-1.139.853-.115.372-.074.921.373 1.293.379.325.508.644.508.901 0 .305-.183.697-.738 1.07-.549.365-1.362.623-2.311.623s-1.761-.258-2.31-.623c-.555-.373-.738-.765-.738-1.07 0-.257.128-.576.508-.901.447-.372.488-.921.373-1.293-.116-.379-.495-.853-1.139-.853h-1.768v-6.771h10.162v6.771zm22.601 2.031h1.036a2.8 2.8 0 0 0-.189 1.016c0 1.192.725 2.146 1.639 2.763.922.616 2.141.961 3.442.961s2.513-.345 3.442-.961c.914-.61 1.639-1.571 1.639-2.763 0-.359-.068-.698-.19-1.016h1.037c.657 0 1.186-.528 1.186-1.185v-8.464c0-.657-.529-1.185-1.186-1.185h-11.856c-.657 0-1.186.528-1.186 1.185v8.464c0 .657.529 1.185 1.186 1.185m9.241-2.031c-.651 0-1.023.474-1.138.853-.115.372-.075.921.372 1.293.38.325.508.644.508.901 0 .305-.183.697-.738 1.07-.549.365-1.362.623-2.31.623-.949 0-1.762-.258-2.311-.623-.555-.373-.738-.765-.738-1.07 0-.257.129-.576.508-.901.447-.372.488-.921.373-1.293-.115-.379-.495-.853-1.138-.853h-1.769v-6.771h10.163v6.771zm22.601 2.031h1.037c-.122.318-.19.657-.19 1.016 0 1.192.725 2.146 1.639 2.763.922.616 2.141.961 3.442.961s2.514-.345 3.442-.961c.914-.61 1.639-1.571 1.639-2.763 0-.359-.067-.698-.189-1.016h1.036c.657 0 1.186-.528 1.186-1.185v-8.464c0-.657-.529-1.185-1.186-1.185h-11.856c-.657 0-1.186.528-1.186 1.185v8.464c0 .657.529 1.185 1.186 1.185m9.241-2.031c-.65 0-1.023.474-1.138.853-.115.372-.075.921.373 1.293.379.325.508.644.508.901 0 .305-.183.697-.739 1.07-.549.365-1.362.623-2.31.623-.949 0-1.762-.258-2.31-.623-.556-.373-.739-.765-.739-1.07 0-.257.129-.576.508-.901.447-.372.488-.921.373-1.293-.115-.379-.495-.853-1.138-.853h-1.768v-6.771h10.162v6.771zM175.471 1131.46h7.452V594.508h-7.452zm2.032-534.921h3.387v532.891h-3.387zm142.951 534.921h7.453V594.508h-7.453zm2.033-534.921h3.387v532.891h-3.387zm142.951 534.921h7.452V594.508h-7.452zm2.032-534.921h3.388v532.891h-3.388zM30.487 1131.46h7.452V594.508h-7.452zm2.032-534.921h3.388v532.891h-3.388zm111.787 297.186-.61-.264c-23.292-10.177-50.046-10.265-73.406-.25l-1.186.507v203.212h75.202zm-2.033 97.911H108.06V887.807c11.673.176 23.326 2.587 34.213 7.245zm-71.137-96.577c11.105-4.753 22.988-7.171 34.891-7.259v103.836h-34.89zm0 98.609h34.891V1094.9h-34.89zm71.137 101.232H108.06V993.668h34.213zm2.033-337.884H69.104v66.357h75.202zm-2.033 64.326H71.136v-62.295h71.137zm2.033 286.418H69.104v30.47h-6.775v19.64h88.752v-19.64h-6.775zm-2.033 30.47H71.136v-28.44h71.137zm6.775 2.03v15.58H64.362v-15.58zm285.225-246.535-.61-.264c-23.292-10.177-50.046-10.265-73.399-.25l-1.193.507v203.212h75.202zm-2.032 97.911h-34.214V887.807c11.674.176 23.326 2.587 34.214 7.245zm-71.137-96.577c11.104-4.753 22.987-7.171 34.891-7.259v103.836h-34.891zm0 98.609h34.891V1094.9h-34.891zm71.137 101.232h-34.214V993.668h34.214zm2.032-337.884h-75.202v66.357h75.202zm-2.032 64.326h-71.137v-62.295h71.137zm2.032 286.418h-75.202v30.47h-6.775v19.64h88.752v-19.64h-6.775zm-2.032 30.47h-71.137v-28.44h71.137zm6.775 2.03v15.58h-84.687v-15.58zM289.289 893.725l-.609-.264c-23.292-10.177-50.047-10.265-73.407-.25l-1.185.507v203.212h75.201zm-2.032 97.911h-34.213V887.807c11.673.176 23.326 2.587 34.213 7.245zm-71.137-96.577c11.104-4.753 22.988-7.171 34.891-7.259v103.836H216.12zm0 98.609h34.891V1094.9H216.12zm71.137 101.232h-34.213V993.668h34.213zm2.032-337.884h-75.201v66.357h75.201zm-2.032 64.326H216.12v-62.295h71.137zm2.032 286.418h-75.201v30.47h-6.775v19.64h88.751v-19.64h-6.775zm-2.032 30.47H216.12v-28.44h71.137zm6.775 2.03v15.58h-84.687v-15.58zm285.225-246.535-.61-.264c-23.292-10.177-50.046-10.265-73.4-.25l-1.192.507v203.212h75.202zm-2.033 97.911h-34.213V887.807c11.673.176 23.326 2.587 34.213 7.245zm-71.136-96.577c11.104-4.753 22.987-7.171 34.891-7.259v103.836h-34.891zm0 98.609h34.891V1094.9h-34.891zm71.136 101.232h-34.213V993.668h34.213zm2.033-337.884h-75.202v66.357h75.202zm-2.033 64.326h-71.136v-62.295h71.136zm2.033 286.418h-75.202v30.47h-6.775v19.64h88.752v-19.64h-6.775zm-2.033 30.47h-71.136v-28.44h71.136zm6.775 2.03v15.58h-84.686v-15.58zm26.531-8.8h7.452V594.508h-7.452zm2.033-534.921h3.387v532.891h-3.387zM186.988 366.32h-27.777v8.802h27.777zm-2.033 6.771h-23.712v-4.74h23.712zM35.907 366.32H8.13v8.802h27.777zm-2.033 6.771H10.162v-4.74h23.712zm304.195-6.771h-27.777v8.802h27.777zm-2.032 6.771h-23.713v-4.74h23.713zm153.113-6.771h-27.777v8.802h27.777zm-2.032 6.771h-23.713v-4.74h23.713zm153.113-6.771h-27.777v8.802h27.777zm-2.032 6.771h-23.712v-4.74h23.712zM33.874 140.163h9.485v-10.157H33.197v10.157zm7.453-2.031h-6.098v-6.094h6.098zm573.16 2.031h.677v-10.157h-10.162v10.157zm-7.453-2.031v-6.094h6.098v6.094zm-402.093 64.326a3.05 3.05 0 0 0 3.049-3.047 3.05 3.05 0 0 0-3.049-3.047 3.05 3.05 0 0 0-3.048 3.047 3.05 3.05 0 0 0 3.048 3.047m0-4.063a1.015 1.015 0 1 1 0 2.031 1.015 1.015 0 1 1 0-2.031m26.084 92.088h67.749v-98.859c0-18.668-15.196-33.856-33.874-33.856s-33.875 15.188-33.875 33.856zm2.032-63.988h30.826v61.956h-30.826zm63.685 61.956h-30.826v-61.956h30.826zm0-96.827v32.84h-30.826v-64.638c17.086.542 30.826 14.592 30.826 31.798m-63.685 0c0-17.206 13.74-31.263 30.826-31.798v64.638h-30.826zm12.534 117.818a3.73 3.73 0 0 0-3.726 3.724v8.125a3.73 3.73 0 0 0 3.726 3.725 3.73 3.73 0 0 0 3.726-3.725v-8.125a3.73 3.73 0 0 0-3.726-3.724m1.694 5.755v6.094a1.694 1.694 0 0 1-3.388 0v-8.125a1.695 1.695 0 0 1 3.388 0zm17.953-5.755a3.73 3.73 0 0 0-3.726 3.724v8.125a3.733 3.733 0 0 0 3.726 3.725 3.733 3.733 0 0 0 3.727-3.725v-8.125a3.73 3.73 0 0 0-3.727-3.724m1.694 5.755v6.094a1.694 1.694 0 0 1-3.387 0v-8.125a1.694 1.694 0 0 1 3.387 0zm17.954-5.755a3.73 3.73 0 0 0-3.726 3.724v8.125a3.73 3.73 0 0 0 3.726 3.725 3.73 3.73 0 0 0 3.726-3.725v-8.125a3.73 3.73 0 0 0-3.726-3.724m1.694 5.755v6.094a1.694 1.694 0 0 1-3.388 0v-8.125a1.695 1.695 0 0 1 3.388 0zm38.278-118.833a3.05 3.05 0 0 0-3.049 3.047 3.053 3.053 0 0 0 3.049 3.047 3.053 3.053 0 0 0 3.049-3.047 3.05 3.05 0 0 0-3.049-3.047m0 4.062a1.015 1.015 0 1 1 1.016-1.015c0 .562-.454 1.015-1.016 1.015m26.083 90.057h67.75v-98.859c0-18.668-15.196-33.856-33.875-33.856-18.678 0-33.875 15.188-33.875 33.856zm2.033-63.988H383.8v61.956h-30.826zm63.684 61.956h-30.826v-61.956h30.826zm0-96.827v32.84h-30.826v-64.638c17.087.542 30.826 14.592 30.826 31.798m-63.684 0c0-17.206 13.74-31.263 30.826-31.798v64.638h-30.826zm12.534 117.818a3.73 3.73 0 0 0-3.727 3.724v8.125a3.733 3.733 0 0 0 3.727 3.725 3.733 3.733 0 0 0 3.726-3.725v-8.125a3.73 3.73 0 0 0-3.726-3.724m1.693 5.755v6.094a1.693 1.693 0 0 1-3.387 0v-8.125a1.695 1.695 0 0 1 3.387 0zm17.954-5.755a3.73 3.73 0 0 0-3.726 3.724v8.125a3.73 3.73 0 0 0 3.726 3.725 3.73 3.73 0 0 0 3.726-3.725v-8.125a3.73 3.73 0 0 0-3.726-3.724m1.694 5.755v6.094a1.694 1.694 0 0 1-3.388 0v-8.125a1.695 1.695 0 0 1 3.388 0zm17.953-5.755a3.73 3.73 0 0 0-3.726 3.724v8.125a3.73 3.73 0 0 0 3.726 3.725 3.73 3.73 0 0 0 3.726-3.725v-8.125a3.73 3.73 0 0 0-3.726-3.724m1.694 5.755v6.094a1.694 1.694 0 0 1-3.388 0v-8.125a1.695 1.695 0 0 1 3.388 0zm38.278-112.739a3.05 3.05 0 0 0 3.049-3.047 3.05 3.05 0 0 0-3.049-3.047 3.05 3.05 0 0 0-3.048 3.047 3.05 3.05 0 0 0 3.048 3.047m0-4.063a1.015 1.015 0 1 1 0 2.031 1.015 1.015 0 1 1 0-2.031m-239.833-47.398a3.05 3.05 0 0 0 3.049-3.047 3.05 3.05 0 0 0-3.049-3.047 3.05 3.05 0 0 0-3.048 3.047 3.05 3.05 0 0 0 3.048 3.047m0-4.063a1.015 1.015 0 1 1 0 2.031 1.015 1.015 0 1 1 0-2.031m58.651 3.758c.4.19.84.305 1.308.305.467 0 .908-.115 1.307-.305a3.03 3.03 0 0 0 1.741-2.742 3.05 3.05 0 0 0-3.048-3.047 3.053 3.053 0 0 0-3.049 3.047 3.04 3.04 0 0 0 1.741 2.742m1.308-3.758a1.015 1.015 0 1 1 0 2.031 1.015 1.015 0 1 1 0-2.031m59.958 4.063a3.053 3.053 0 0 0 3.049-3.047 3.053 3.053 0 0 0-3.049-3.047 3.053 3.053 0 0 0-3.049 3.047 3.053 3.053 0 0 0 3.049 3.047m0-4.063a1.015 1.015 0 1 1 0 2.031 1.015 1.015 0 1 1 0-2.031m58.651 3.758c.399.19.84.305 1.307.305.468 0 .908-.115 1.308-.305a3.04 3.04 0 0 0 1.741-2.742 3.053 3.053 0 0 0-3.049-3.047 3.053 3.053 0 0 0-3.049 3.047 3.04 3.04 0 0 0 1.742 2.742m1.307-3.758a1.015 1.015 0 1 1 0 2.031 1.015 1.015 0 1 1 0-2.031m59.958 4.063a3.05 3.05 0 0 0 3.049-3.047 3.05 3.05 0 0 0-3.049-3.047 3.05 3.05 0 0 0-3.048 3.047 3.05 3.05 0 0 0 3.048 3.047m0-4.063a1.015 1.015 0 1 1 0 2.031 1.015 1.015 0 1 1 0-2.031M144.306 269.357h-5.549c-2.974-2.201-5.82-5.6-7.994-9.967a34.1 34.1 0 0 1-3.083-9.351c8.056-7.51 13.103-18.195 13.103-30.044 0-22.663-18.448-41.101-41.124-41.101s-41.124 18.438-41.124 41.101c0 11.91 5.102 22.649 13.225 30.165a33.9 33.9 0 0 1-3.056 9.23c-2.181 4.367-5.027 7.766-7.994 9.967h-5.156v10.156h88.752zm-2.033 8.125H57.587v-6.094h84.686zm-78.392-8.125c2.513-2.323 4.81-5.39 6.639-9.06a36 36 0 0 0 3.008-8.586c7.107 5.857 16.212 9.385 26.124 9.385a41.1 41.1 0 0 0 26.253-9.487 35.8 35.8 0 0 0 3.035 8.688c1.829 3.67 4.133 6.737 6.64 9.06zm35.778-88.432c21.558 0 39.091 17.524 39.091 39.07 0 10.739-4.356 20.476-11.402 27.552-.196.196-.406.386-.603.582-.108.102-.21.203-.318.305l-.034.034q-.385.363-.779.717a1 1 0 0 1-.102.088c-6.897 6.088-15.941 9.798-25.846 9.798s-18.835-3.663-25.718-9.682c-.081-.068-.156-.136-.237-.204-.21-.189-.427-.379-.637-.575l-.047-.048-.468-.446c-.149-.143-.305-.285-.454-.434-7.12-7.082-11.53-16.874-11.53-27.68 0-21.546 17.533-39.07 39.09-39.07zm0 65.545c14.607 0 26.49-11.876 26.49-26.475s-11.883-26.475-26.49-26.475-26.49 11.876-26.49 26.475 11.883 26.475 26.49 26.475m0-50.919c13.489 0 24.457 10.963 24.457 24.444s-10.968 24.444-24.457 24.444S75.2 233.476 75.2 219.995s10.969-24.444 24.458-24.444m-24.776 51.596c.38.346.772.684 1.165 1.016.413.345.84.684 1.267 1.016a36.6 36.6 0 0 0 22.337 7.583c8.394 0 16.145-2.83 22.337-7.583a38 38 0 0 0 2.432-2.032c7.378-6.73 12.012-16.406 12.012-27.152 0-20.273-16.503-36.767-36.788-36.767s-36.787 16.494-36.787 36.767c0 10.746 4.634 20.422 12.011 27.152zm24.776-61.888c19.166 0 34.755 15.58 34.755 34.736 0 10.983-5.128 20.781-13.116 27.152-.44.352-.881.691-1.341 1.016q-.73.528-1.491 1.016a34.55 34.55 0 0 1-18.814 5.552 34.55 34.55 0 0 1-18.814-5.552 32 32 0 0 1-1.49-1.016 32 32 0 0 1-1.342-1.016c-7.987-6.371-13.116-16.169-13.116-27.152 0-19.156 15.59-34.736 34.755-34.736zm479.605 74.131a34.1 34.1 0 0 1-3.083-9.351c8.056-7.51 13.103-18.195 13.103-30.044 0-22.663-18.448-41.101-41.124-41.101s-41.124 18.438-41.124 41.101c0 11.91 5.102 22.649 13.225 30.165a33.9 33.9 0 0 1-3.056 9.23c-2.181 4.367-5.027 7.766-7.994 9.967h-5.156v10.156h88.752v-10.156h-5.549c-2.974-2.201-5.82-5.6-7.994-9.967m11.51 11.998v6.094h-84.686v-6.094zm-78.393-2.031c2.514-2.323 4.811-5.39 6.64-9.06a36 36 0 0 0 3.008-8.586c7.107 5.857 16.212 9.385 26.124 9.385a41.1 41.1 0 0 0 26.253-9.487 35.8 35.8 0 0 0 3.035 8.688c1.829 3.67 4.133 6.737 6.64 9.06zm74.87-49.362c0 10.739-4.356 20.483-11.402 27.552-.196.196-.406.386-.603.582-.108.102-.21.203-.318.305l-.034.034c-.258.243-.515.48-.779.717a1 1 0 0 1-.102.088c-6.897 6.088-15.941 9.798-25.846 9.798s-18.835-3.663-25.718-9.682c-.081-.068-.156-.136-.237-.204-.21-.189-.427-.379-.63-.575l-.048-.048-.467-.446c-.149-.143-.305-.285-.454-.434-7.12-7.082-11.531-16.874-11.531-27.68 0-21.546 17.534-39.07 39.091-39.07s39.092 17.524 39.092 39.07zm-39.09 26.475c14.607 0 26.49-11.876 26.49-26.475s-11.883-26.475-26.49-26.475-26.49 11.876-26.49 26.475 11.883 26.475 26.49 26.475m0-50.919c13.489 0 24.457 10.963 24.457 24.444s-10.968 24.444-24.457 24.444-24.458-10.963-24.458-24.444 10.969-24.444 24.458-24.444m-24.776 51.596c.379.346.772.684 1.165 1.016.414.345.84.684 1.267 1.016a36.6 36.6 0 0 0 22.337 7.583c8.394 0 16.145-2.83 22.337-7.583a38 38 0 0 0 2.432-2.032c7.378-6.73 12.012-16.406 12.012-27.152 0-20.273-16.503-36.767-36.788-36.767s-36.788 16.494-36.788 36.767c0 10.746 4.635 20.422 12.012 27.152zm24.776-61.888c19.166 0 34.755 15.58 34.755 34.736 0 10.983-5.128 20.781-13.116 27.152-.44.352-.881.691-1.341 1.016q-.73.528-1.491 1.016a34.55 34.55 0 0 1-18.814 5.552 34.55 34.55 0 0 1-18.814-5.552 32 32 0 0 1-1.49-1.016 32 32 0 0 1-1.342-1.016c-7.987-6.371-13.116-16.169-13.116-27.152 0-19.156 15.589-34.736 34.755-34.736z"/></g><defs><clipPath id="a"><path fill="#fff" d="M0 0h648v1219.49H0z"/></clipPath></defs></svg>